<svg id="Group_27" data-name="Group 27" xmlns="http://www.w3.org/2000/svg" width="17.979" height="17.979" viewBox="0 0 17.979 17.979">
  <path id="Path_145" data-name="Path 145" d="M404.983,3093.873a.693.693,0,0,1-.691-.692V3091.8a.693.693,0,0,1,.691-.692h1.385a.692.692,0,0,1,.688.692v1.385a.692.692,0,0,1-.688.692Zm0,0" transform="translate(-391.154 -3089.031)" fill="#102838"/>
  <path id="Path_146" data-name="Path 146" d="M400.141,3095.386a2.61,2.61,0,0,0-1.363.388,1.367,1.367,0,0,1,.391-.064,1.337,1.337,0,1,1-1.336,1.336,1.361,1.361,0,0,1,.064-.391,2.627,2.627,0,0,0,2.248,4,2.635,2.635,0,1,0,0-5.27Zm0,0" transform="translate(-391.154 -3089.031)" fill="#102838"/>
  <path id="Path_147" data-name="Path 147" d="M400.141,3093.873a4.147,4.147,0,1,1-4.145,4.145,4.148,4.148,0,0,1,4.145-4.145m0-1.384a5.531,5.531,0,1,0,5.534,5.529,5.536,5.536,0,0,0-5.534-5.529Zm0,0" transform="translate(-391.154 -3089.031)" fill="#102838"/>
  <path id="Path_148" data-name="Path 148" d="M405.76,3089.031H394.524a3.372,3.372,0,0,0-3.37,3.37v11.235a3.372,3.372,0,0,0,3.37,3.374H405.76a3.372,3.372,0,0,0,3.373-3.374V3092.4a3.372,3.372,0,0,0-3.373-3.37Zm1.988,6.223h-4.52a4.146,4.146,0,1,1-6.172,0h-4.517V3092.4a1.988,1.988,0,0,1,1.985-1.985H405.76a1.988,1.988,0,0,1,1.988,1.985Zm0,0" transform="translate(-391.154 -3089.031)" fill="#102838"/>
</svg>
