<svg id="Group_269" data-name="Group 269" xmlns="http://www.w3.org/2000/svg" width="389.832" height="25.602" viewBox="0 0 389.832 25.602">
  <g id="Group_258" data-name="Group 258" transform="translate(54.364)">
    <path id="Path_340" data-name="Path 340" d="M535.23,1432v4.01h2.009V1430H514.211v-8.219a1.02,1.02,0,0,0-.3-.708.953.953,0,0,0-1.42,0,1.029,1.029,0,0,0-.292.708v14.229h2.008V1432Z" transform="translate(-507.822 -1410.583)" fill="#706f6f"/>
    <path id="Path_341" data-name="Path 341" d="M516.312,1425.424a1.864,1.864,0,0,0,1.319-.538,1.771,1.771,0,0,0,0-2.59,1.846,1.846,0,0,0-1.319-.538,1.762,1.762,0,0,0-1.3.538,1.82,1.82,0,0,0,0,2.59,1.779,1.779,0,0,0,1.3.538" transform="translate(-506.772 -1410.119)" fill="#706f6f"/>
    <path id="Path_342" data-name="Path 342" d="M536.173,1427.707v-2.447a1.226,1.226,0,0,0-.414-.95,2.027,2.027,0,0,0-1.057-.465l-14.519-1.42h-.1a.9.9,0,0,0-.664.271.913.913,0,0,0-.271.658v2.837h-3.716c-.62,0-.929.253-.929.759s.309.757.929.757Z" transform="translate(-506.756 -1409.81)" fill="#706f6f"/>
    <path id="Path_343" data-name="Path 343" d="M542.314,1423.986a.692.692,0,0,1-.328-.083l-15.927-8.54-15.838,8.5a.688.688,0,1,1-.648-1.214l16.486-8.854,16.579,8.891a.69.69,0,0,1-.325,1.3" transform="translate(-509.207 -1413.799)" fill="#706f6f"/>
  </g>
  <g id="Group_259" data-name="Group 259" transform="translate(121.271 0.132)">
    <path id="Path_344" data-name="Path 344" d="M568.859,1437.972s0-7.125-.006-7.833c.006-.645-.013-16.176-.013-16.176h-.366s-2.963,1.631-2.963,13.726c2.275.611,1.319,3.036,1.145,3.348,0,.616.048,6.935.048,6.935h.006c0,.007,0,.01,0,.022a1.077,1.077,0,0,0,2.153,0l-.006-.018Z" transform="translate(-550.079 -1413.854)" fill="#706f6f"/>
    <path id="Path_345" data-name="Path 345" d="M565.764,1414.273h-.646l.192,6.577h-.772v-6.577h-.563v6.622h-.646v-6.622h-.621v6.622h-.762l.221-6.625h-.592l-.711,5.6s-.019.214-.019.29a2.716,2.716,0,0,0,1.053,2.139c2.115,2.331.671,4.71.671,5.271,0,.623,0,10.246,0,10.246l0,.021a1.1,1.1,0,0,0,2.189,0l0-.021h0v-10.224c0-.656-1.224-3.391.818-5.423l.013-.007a2.752,2.752,0,0,0,.876-1.806c0-.051,0-.177,0-.177Z" transform="translate(-552.238 -1413.713)" fill="#706f6f"/>
    <path id="Path_346" data-name="Path 346" d="M558.726,1413.889h-.063c-2.371.033-3.7,2.25-3.7,4.656a4.675,4.675,0,0,0,2.793,4.541c.715.975.244,3.282-.257,4.611V1438.1a1.092,1.092,0,0,0,1.11,1.078h.18a1.088,1.088,0,0,0,1.1-1.078V1427.7c-.5-1.329-.971-3.636-.257-4.611a4.676,4.676,0,0,0,2.8-4.541c0-2.406-1.338-4.623-3.7-4.656m-1.239,8.258a3.373,3.373,0,0,1-.532-.525,5.8,5.8,0,0,1-.608-.857c-.1-.168-.183-.344-.266-.532a3.887,3.887,0,0,1-.192-.613,3.981,3.981,0,0,1-.021-1.231,5.143,5.143,0,0,1,.217-1.01,3.944,3.944,0,0,1,.281-.689,1.14,1.14,0,0,1,.155-.24s-.017.107-.026.273-.016.42-.021.711a12.1,12.1,0,0,0,.054,2.069,2.5,2.5,0,0,0,.137.518c.054.17.121.344.187.51.137.332.278.636.4.9s.235.484.323.633.159.219.164.212a.646.646,0,0,1-.255-.13" transform="translate(-554.959 -1413.889)" fill="#706f6f"/>
  </g>
  <g id="Group_260" data-name="Group 260" transform="translate(179.995 0.331)">
    <path id="Path_347" data-name="Path 347" d="M607.681,1424.179v-6.146l1.789.123v-2.932l-5.035.415v2.1h.54v4.095h-7.287a2.569,2.569,0,0,0-2.311,2.469v14.264l6.474-.04v-13.688h5.1s.728-.018.728-.659" transform="translate(-594.994 -1413.471)" fill="#706f6f"/>
    <path id="Path_348" data-name="Path 348" d="M602.53,1426.842a1.567,1.567,0,0,0-1.457,1.664v4.647s4.893-.064,4.86-.034v-4.026h4.583a2.263,2.263,0,0,0,1.974-2.252Z" transform="translate(-592.36 -1408.099)" fill="#706f6f"/>
    <path id="Path_349" data-name="Path 349" d="M607.021,1415.07s-1.7.035-1.7,0v3.334h1.7Z" transform="translate(-590.396 -1413.542)" fill="#706f6f"/>
    <rect id="Rectangle_135" data-name="Rectangle 135" width="1.075" height="1.595" transform="translate(7.913 2.395)" fill="#706f6f"/>
    <path id="Path_350" data-name="Path 350" d="M598.655,1421.106a3.54,3.54,0,1,0-3.54-3.542,3.542,3.542,0,0,0,3.54,3.542" transform="translate(-595.115 -1414.025)" fill="#706f6f"/>
    <path id="Path_351" data-name="Path 351" d="M603.582,1428.037a2.792,2.792,0,1,0-2.793-2.795,2.8,2.8,0,0,0,2.793,2.795" transform="translate(-592.491 -1410.128)" fill="#706f6f"/>
  </g>
  <g id="Group_261" data-name="Group 261" transform="translate(231.629 5.547)">
    <path id="Path_352" data-name="Path 352" d="M631.157,1426.966h1a.742.742,0,0,0,.739-.741v-5.164a.736.736,0,0,0-.739-.733h-1a.739.739,0,0,0-.734.733v5.164a.745.745,0,0,0,.734.741m8.578,3.274a1.9,1.9,0,1,0,1.889,1.894,1.9,1.9,0,0,0-1.889-1.894m0-1.981a3.874,3.874,0,1,1-3.878,3.868,3.873,3.873,0,0,1,3.878-3.868m21.349,1.981a1.9,1.9,0,1,0,1.9,1.894,1.9,1.9,0,0,0-1.9-1.894m0-1.981a3.874,3.874,0,1,1-3.878,3.868,3.873,3.873,0,0,1,3.878-3.868m-16.244-4.177v-4.969a.262.262,0,0,0-.262-.259h-5.367c-2.414,0-1.971,2.015-2,5.219a.285.285,0,0,0,.072.187.239.239,0,0,0,.189.081h7.107a.265.265,0,0,0,.262-.259m-11.737,1.986c.146-5.007-.629-8.47,3.706-8.47h10.823q.527-.011,1.049,0c5.515.137,6.664,2.537,9.329,5.949a2.621,2.621,0,0,0,1.734.636l5.034.437c2.065.174,2.333,1.587,2.352,3.671l.028,2.316a1.3,1.3,0,0,1-1.3,1.52,4.773,4.773,0,0,0-9.545,0v.007h-11.8v-.007a4.775,4.775,0,0,0-9.551-.016l-.955-.021a2.063,2.063,0,0,1-1.889-2.044v-1.056a1.142,1.142,0,0,1,.989-1.028v-1.781a.941.941,0,0,1,0-.113m0,.113h0m22.6-1.841c.636,0,.494-.674.371-.847-3.706-5.1-6.277-4.593-8.745-4.577a.318.318,0,0,0-.319.317v4.8a.312.312,0,0,0,.319.31H655.7" transform="translate(-630.423 -1417.592)" fill="#706f6f"/>
  </g>
  <g id="Group_262" data-name="Group 262" transform="translate(364.754 0.348)">
    <path id="Path_353" data-name="Path 353" d="M745.982,1422.355l-1.876-1.86a2.861,2.861,0,0,1-4.046-4.045l-1.859-1.863a1.849,1.849,0,0,0-1.351-.55,1.83,1.83,0,0,0-1.344.55l-13.5,13.483a1.917,1.917,0,0,0,0,2.694l1.859,1.873a2.862,2.862,0,0,1,4.046,4.05l1.876,1.877a1.928,1.928,0,0,0,2.7,0l13.5-13.515a1.921,1.921,0,0,0,0-2.694m-4.032,2.975-9.2,9.2a.975.975,0,0,1-1.337,0l-5.388-5.386a.936.936,0,0,1,0-1.343l9.2-9.2a.979.979,0,0,1,1.339,0l5.389,5.39a.929.929,0,0,1,0,1.337" transform="translate(-721.455 -1414.037)" fill="#ededed"/>
    <rect id="Rectangle_136" data-name="Rectangle 136" width="12.04" height="6.653" transform="translate(5.929 14.443) rotate(-45.007)" fill="#ededed"/>
  </g>
  <g id="Group_263" data-name="Group 263" transform="translate(306.444 0.949)">
    <path id="Path_354" data-name="Path 354" d="M704.48,1418.253h-1.8v6.173h.714v2.834h-1.362V1417.9a3.445,3.445,0,0,0-3.442-3.448H687.249a3.445,3.445,0,0,0-3.441,3.448v9.185h-1.186v-3.015h.755v-6.17h-1.794v6.17h.756v3.3h1.47v6.745a3.456,3.456,0,0,0,1.794,3.027v1.78h3.011v-1.36h8.543v1.362h3.015v-1.749a3.438,3.438,0,0,0,1.865-3.062v-6.568h1.653v-3.122h.791Zm-15.5-3.089h8.039v1.869h-8.039Zm.861,18.808h-4.452v-2.011h4.452Zm10.765,0h-4.449v-2.011H700.6Zm0-6.461s-.86,2.73-7.749,2.73-7.612-2.73-7.612-2.73v-9.475H700.6Z" transform="translate(-681.582 -1414.448)" fill="#ededed"/>
  </g>
  <path id="Path_355" data-name="Path 355" d="M494.972,1415.829a2.869,2.869,0,0,0-4.052.114l-3.937,4.209-12.493-3.74-2.109,2.109a.591.591,0,0,0,0,.836l10.13,5.576-3.979,4.316a4.229,4.229,0,0,0-.825,1.156l-4.229-1.094-1.315,1.315a.446.446,0,0,0,0,.63l4.653,2.362.421.421,2.36,4.653a.447.447,0,0,0,.632,0l1.315-1.314-1.113-4.3a4.244,4.244,0,0,0,1.12-.807l4.332-3.994,5.614,10.2a.593.593,0,0,0,.838,0l2.107-2.109-3.764-12.578,4.18-3.909a2.868,2.868,0,0,0,.114-4.051Zm0,0" transform="translate(-472.033 -1413.222)" fill="#706f6f"/>
  <g id="Group_264" data-name="Group 264" transform="translate(17.183 14.608)">
    <path id="Path_356" data-name="Path 356" d="M494.157,1428.975a5.187,5.187,0,1,0-5.187,5.187,5.187,5.187,0,0,0,5.187-5.187Zm0,0" transform="translate(-483.783 -1423.788)" fill="#32bea6"/>
    <path id="Path_357" data-name="Path 357" d="M491.1,1426.227c-.121-.316-.371-.266-.641-.212a4.415,4.415,0,0,0-2.011,1.438,9.685,9.685,0,0,0-.984,1.193,5.574,5.574,0,0,0-1.416-1.259.459.459,0,0,0-.48.782,5.2,5.2,0,0,1,.828.658,6.963,6.963,0,0,1,.746.921.458.458,0,0,0,.383.2.341.341,0,0,0,.078-.007.455.455,0,0,0,.367-.341,5.342,5.342,0,0,1,1.145-1.521,4.571,4.571,0,0,1,1.47-1.148h0l.018-.007c.031-.011.047-.016.047-.016l-.013,0h0c.083-.036.238-.1.241-.1a.432.432,0,0,0,.218-.582Zm0,0" transform="translate(-483.058 -1422.777)" fill="#fff"/>
  </g>
  <g id="Group_265" data-name="Group 265" transform="translate(80.08 14.608)">
    <path id="Path_358" data-name="Path 358" d="M537.166,1428.975a5.187,5.187,0,1,0-5.187,5.187,5.187,5.187,0,0,0,5.187-5.187Zm0,0" transform="translate(-526.792 -1423.788)" fill="#32bea6"/>
    <path id="Path_359" data-name="Path 359" d="M534.11,1426.227c-.123-.316-.371-.266-.641-.212a4.415,4.415,0,0,0-2.011,1.438,9.408,9.408,0,0,0-.984,1.193c-.126-.154-.268-.317-.418-.468a6.07,6.07,0,0,0-1-.791.458.458,0,0,0-.478.782,5.2,5.2,0,0,1,.828.658,7.1,7.1,0,0,1,.746.921.456.456,0,0,0,.382.2.347.347,0,0,0,.079-.007.457.457,0,0,0,.367-.341,5.348,5.348,0,0,1,1.144-1.521,4.6,4.6,0,0,1,1.47-1.148h.006l.016-.007a.386.386,0,0,1,.048-.016l-.013,0h0c.082-.036.237-.1.241-.1a.433.433,0,0,0,.218-.582Zm0,0" transform="translate(-526.067 -1422.777)" fill="#fff"/>
  </g>
  <g id="Group_266" data-name="Group 266" transform="translate(135.866 14.608)">
    <path id="Path_360" data-name="Path 360" d="M575.313,1428.975a5.187,5.187,0,1,0-5.187,5.187,5.187,5.187,0,0,0,5.187-5.187Zm0,0" transform="translate(-564.939 -1423.788)" fill="#32bea6"/>
    <path id="Path_361" data-name="Path 361" d="M572.257,1426.227c-.121-.316-.37-.266-.641-.212a4.408,4.408,0,0,0-2.009,1.438,9.587,9.587,0,0,0-.986,1.193,6.08,6.08,0,0,0-.418-.468,6.018,6.018,0,0,0-1-.791.459.459,0,0,0-.48.782,5.253,5.253,0,0,1,.829.658,7.246,7.246,0,0,1,.746.921.454.454,0,0,0,.382.2.346.346,0,0,0,.079-.007.456.456,0,0,0,.366-.341,5.38,5.38,0,0,1,1.145-1.521,4.572,4.572,0,0,1,1.47-1.148h0l.018-.007a.38.38,0,0,1,.048-.016l-.015,0h0c.083-.036.238-.1.241-.1a.431.431,0,0,0,.218-.582Zm0,0" transform="translate(-564.214 -1422.777)" fill="#fff"/>
  </g>
  <g id="Group_267" data-name="Group 267" transform="translate(191.653 14.608)">
    <path id="Path_362" data-name="Path 362" d="M613.461,1428.975a5.187,5.187,0,1,0-5.187,5.187,5.187,5.187,0,0,0,5.187-5.187Zm0,0" transform="translate(-603.087 -1423.788)" fill="#32bea6"/>
    <path id="Path_363" data-name="Path 363" d="M610.405,1426.227c-.123-.316-.371-.266-.641-.212a4.416,4.416,0,0,0-2.011,1.438,9.548,9.548,0,0,0-.984,1.193c-.126-.154-.268-.317-.418-.468a6.159,6.159,0,0,0-1-.791.459.459,0,1,0-.48.782,5.2,5.2,0,0,1,.828.658,6.958,6.958,0,0,1,.746.921.458.458,0,0,0,.382.2.345.345,0,0,0,.079-.007.456.456,0,0,0,.367-.341,5.341,5.341,0,0,1,1.145-1.521,4.59,4.59,0,0,1,1.468-1.148h.006l.016-.007a.506.506,0,0,1,.048-.016l-.013,0h0c.082-.036.237-.1.241-.1a.433.433,0,0,0,.218-.582Zm0,0" transform="translate(-602.362 -1422.777)" fill="#fff"/>
  </g>
  <g id="Group_268" data-name="Group 268" transform="translate(266.911 14.608)">
    <path id="Path_364" data-name="Path 364" d="M664.923,1428.975a5.187,5.187,0,1,0-5.187,5.187,5.187,5.187,0,0,0,5.187-5.187Zm0,0" transform="translate(-654.549 -1423.788)" fill="#32bea6"/>
    <path id="Path_365" data-name="Path 365" d="M661.867,1426.227c-.121-.316-.371-.266-.641-.212a4.415,4.415,0,0,0-2.011,1.438,9.675,9.675,0,0,0-.984,1.193,6.078,6.078,0,0,0-.418-.468,6.158,6.158,0,0,0-1-.791.459.459,0,1,0-.479.782,5.205,5.205,0,0,1,.828.658,6.975,6.975,0,0,1,.746.921.458.458,0,0,0,.383.2.342.342,0,0,0,.078-.007.455.455,0,0,0,.367-.341,5.342,5.342,0,0,1,1.145-1.521,4.571,4.571,0,0,1,1.47-1.148h0l.016-.007a.506.506,0,0,1,.048-.016l-.013,0h0c.083-.036.238-.1.241-.1a.432.432,0,0,0,.218-.582Zm0,0" transform="translate(-653.824 -1422.777)" fill="#fff"/>
  </g>
</svg>
