<svg id="Group_36" data-name="Group 36" xmlns="http://www.w3.org/2000/svg" width="17.1" height="16.344" viewBox="0 0 17.1 16.344">
  <g id="Group_35" data-name="Group 35">
    <g id="Group_34" data-name="Group 34">
      <path id="Path_151" data-name="Path 151" d="M439.656,3096.763v-.035a.155.155,0,0,1-.024.035Z" transform="translate(-430.081 -3089.849)" fill="#102838"/>
      <rect id="Rectangle_38" data-name="Rectangle 38" width="3.666" height="11.026" transform="translate(0.217 5.318)" fill="#102838"/>
      <path id="Path_152" data-name="Path 152" d="M432.13,3093.66h-.024a2.095,2.095,0,1,1,.024,0Z" transform="translate(-430.081 -3089.849)" fill="#102838"/>
      <path id="Path_153" data-name="Path 153" d="M447.181,3106.193h-3.666v-5.9c0-1.482-.53-2.494-1.858-2.494a2.01,2.01,0,0,0-1.88,1.343,2.485,2.485,0,0,0-.121.892v6.159h-3.665s.047-9.993,0-11.026h3.665v1.561a3.637,3.637,0,0,1,3.3-1.82c2.41,0,4.221,1.574,4.221,4.961Z" transform="translate(-430.081 -3089.849)" fill="#102838"/>
    </g>
  </g>
</svg>
