<svg xmlns="http://www.w3.org/2000/svg" width="71.713" height="71.715" viewBox="0 0 71.713 71.715">
  <g id="Group_49" data-name="Group 49" transform="translate(6.419 5.16)">
    <path id="Path_181" data-name="Path 181" d="M1192.65,1759.27a28.179,28.179,0,1,1,28.178-28.179,28.207,28.207,0,0,1-28.178,28.179Z" transform="translate(-1163.212 -1700.394)" fill="#161616" opacity="0.62"/>
    <path id="Path_182" data-name="Path 182" d="M1191.648,1757.265a28.179,28.179,0,1,1,28.178-28.179,28.208,28.208,0,0,1-28.178,28.179Z" transform="translate(-1163.469 -1700.907)" fill="#fff"/>
    <path id="Path_183" data-name="Path 183" d="M1182.23,1739.765l-.006.437a1.061,1.061,0,0,0,.32.815.445.445,0,0,0,.28.109.468.468,0,0,0,.342-.163l13.26-13.849a1.228,1.228,0,0,0,0-1.523h0l-13.26-13.85a.435.435,0,0,0-.622-.054,1.065,1.065,0,0,0-.32.816l.006.4,1.2,1.354,11.588,12.1-11.588,12.1Zm1.2-1.312" transform="translate(-1158.668 -1698.175)"/>
  </g>
</svg>
