<svg xmlns="http://www.w3.org/2000/svg" width="71.715" height="71.715" viewBox="0 0 71.715 71.715">
  <g id="Group_50" data-name="Group 50" transform="translate(7.678 5.16)">
    <path id="Path_184" data-name="Path 184" d="M419.172,1759.27a28.179,28.179,0,1,0-28.18-28.179,28.207,28.207,0,0,0,28.18,28.179Z" transform="translate(-390.992 -1700.394)" fill="#161616" opacity="0.62"/>
    <path id="Path_185" data-name="Path 185" d="M420.173,1757.265a28.179,28.179,0,1,0-28.178-28.179,28.208,28.208,0,0,0,28.178,28.179Z" transform="translate(-390.735 -1700.907)" fill="#fff"/>
    <path id="Path_186" data-name="Path 186" d="M419.856,1738.452l-11.588-12.1,11.588-12.1,1.2-1.354.008-.4a1.066,1.066,0,0,0-.32-.816.435.435,0,0,0-.622.054l-13.26,13.85h0a1.227,1.227,0,0,0,0,1.523l13.26,13.849a.468.468,0,0,0,.342.163.445.445,0,0,0,.28-.109,1.061,1.061,0,0,0,.32-.815l-.008-.437Zm0,0" transform="translate(-386.998 -1698.175)"/>
  </g>
</svg>
