<?xml version="1.0" encoding="utf-8"?>
<!-- Generator: Adobe Illustrator 28.1.0, SVG Export Plug-In . SVG Version: 6.00 Build 0)  -->
<svg version="1.1" id="Layer_1" xmlns="http://www.w3.org/2000/svg" xmlns:xlink="http://www.w3.org/1999/xlink" x="0px" y="0px"
	 viewBox="0 0 189.46 184.15" style="enable-background:new 0 0 189.46 184.15;" xml:space="preserve">
<style type="text/css">
	.st0{fill:#231F20;}
</style>
<g id="Group_3144" transform="translate(-1219.875 -728.064)">
	<path id="Path_4264" class="st0" d="M1261.88,868.08c0-5.22-0.1-10.44,0-15.65c-0.05-6.1,4.86-11.09,10.96-11.14
		c1.67-0.01,3.32,0.35,4.82,1.07c3.82,1.59,6.29,5.33,6.26,9.46c0.1,14.21,0.1,28.42,0,42.63c-0.03,5.84-4.75,10.58-10.6,10.61
		c-14.13,0.11-28.26,0.11-42.39,0c-6.1,0-11.05-4.95-11.05-11.05c0-6.1,4.95-11.05,11.05-11.05c4.44-0.11,8.87,0,13.71,0
		c-0.65-0.85-1.04-1.33-1.46-1.81c-33.62-38.24-29.87-96.49,8.37-130.11c16.58-14.57,37.83-22.72,59.9-22.95
		c6.16-0.46,11.53,4.16,11.99,10.32c0.02,0.21,0.03,0.41,0.03,0.62c-0.02,6.2-5.07,11.2-11.26,11.17c-0.18,0-0.37-0.01-0.55-0.02
		c-34.56,0.28-63.71,25.8-68.56,60.02c-3.22,20.46,3.01,41.27,16.93,56.61c0.44,0.51,0.85,1.07,1.24,1.61l0.6-0.34"/>
	<path id="Path_4265" class="st0" d="M1367.71,777.5c0,6.37,0.06,12.03,0,17.7c0.22,6.1-4.55,11.22-10.65,11.43
		c-0.67,0.02-1.34-0.01-2-0.11c-5.51-0.73-9.58-5.49-9.43-11.05c-0.05-11.98,0-23.97,0-35.96c0-2.07-0.04-4.15,0-6.22
		c0.15-5.66,4.67-10.22,10.33-10.43c14.36-0.14,28.73-0.14,43.09,0c5.92,0.25,10.52,5.23,10.29,11.15
		c-0.03,5.9-4.73,10.71-10.63,10.87c-4.05,0.12-8.09,0-12.38,0c2.11,3.35,4.16,6.37,5.95,9.54c25.28,44.22,9.93,100.55-34.29,125.83
		c-8.29,4.74-17.27,8.17-26.62,10.15c-4.29,0.83-8.63,1.42-12.99,1.78c-6.07,0.49-11.39-4.02-11.9-10.09
		c-0.56-5.97,3.83-11.27,9.8-11.83c14.05-0.81,27.52-5.88,38.63-14.53c18.99-14.22,29.28-37.24,27.2-60.88
		c-0.84-12.95-5.39-25.39-13.12-35.82c-0.26-0.37-0.56-0.7-1.3-1.61"/>
</g>
</svg>
