<svg xmlns="http://www.w3.org/2000/svg" xmlns:xlink="http://www.w3.org/1999/xlink" width="40.572" height="32.497" viewBox="0 0 40.572 32.497">
  <defs>
    <linearGradient id="linear-gradient" x1="-111.678" y1="-10.697" x2="-110.738" y2="-10.697" gradientUnits="objectBoundingBox">
      <stop offset="0" stop-color="#fcea10"/>
      <stop offset="1" stop-color="#f9b233"/>
    </linearGradient>
  </defs>
  <path id="Path_460" data-name="Path 460" d="M803.117,1489.835l0-.008,0-.008a2.054,2.054,0,0,0-1.979-1.116l-36.4,2.33a2.082,2.082,0,0,0-.76,3.959l15.138,7.18a.069.069,0,0,1,.037.074l-2.912,16.5A2.056,2.056,0,0,0,777.42,1521a1.97,1.97,0,0,0,.242.094,2.055,2.055,0,0,0,2.24-.676l22.979-28.326A2.056,2.056,0,0,0,803.117,1489.835Zm-38.323,3.264c.012-.053.027-.055.065-.057l34.056-2.179-18.68,9.644c-.083-.057-15.4-7.331-15.4-7.331C764.8,1493.16,764.784,1493.152,764.794,1493.1Zm13.544,26.052c-.024.03-.033.043-.083.02s-.047-.039-.039-.075c0,0,2.939-16.7,2.942-16.8l18.68-9.644Z" transform="translate(-762.776 -1488.699)" fill="url(#linear-gradient)"/>
</svg>
