<svg id="Group_2716" data-name="Group 2716" xmlns="http://www.w3.org/2000/svg" xmlns:xlink="http://www.w3.org/1999/xlink" width="20.181" height="19.039" viewBox="0 0 20.181 19.039">
  <defs>
    <clipPath id="clip-path">
      <rect id="Rectangle_965" data-name="Rectangle 965" width="20.181" height="19.039" fill="#102838"/>
    </clipPath>
  </defs>
  <g id="Group_2713" data-name="Group 2713" clip-path="url(#clip-path)">
    <path id="Path_4092" data-name="Path 4092" d="M4.652,6.251a20.389,20.389,0,0,1,.124-2.189A4.4,4.4,0,0,1,7.076.833,5.887,5.887,0,0,1,13,.771a4.539,4.539,0,0,1,2.514,4.248c0,.818-.052,1.636-.1,2.453-.025.445.163.654.612.581a5.23,5.23,0,0,0,.838-.227,1.066,1.066,0,0,1,.9.078c.415.23.464.587.086.867a4.8,4.8,0,0,1-.817.441c-.319.151-.668.247-.97.426a.832.832,0,0,0-.377,1.185A6.776,6.776,0,0,0,17,12.848a5.324,5.324,0,0,0,2.9,1.712c.108.022.276.128.28.2a.469.469,0,0,1-.156.379,10.96,10.96,0,0,1-1.317.574,5.311,5.311,0,0,1-.916.188.435.435,0,0,0-.389.372c-.037.168-.075.336-.113.5-.11.486-.182.532-.659.45-.254-.044-.511-.076-.767-.111a3.457,3.457,0,0,0-2.514.6c-.319.22-.636.445-.965.648a3.979,3.979,0,0,1-4.58-.094c-.271-.176-.548-.344-.807-.537a3.58,3.58,0,0,0-2.89-.567c-.116.02-.233.038-.351.053-.579.07-.7.038-.81-.544a.994.994,0,0,0-1.031-.91A6.121,6.121,0,0,1,.7,15.437a1.388,1.388,0,0,1-.479-.258A.6.6,0,0,1,0,14.791c0-.082.211-.2.344-.229a5.048,5.048,0,0,0,1.88-.819,6.541,6.541,0,0,0,2.317-2.957A.809.809,0,0,0,4.2,9.693a6.05,6.05,0,0,0-.781-.373c-.3-.137-.623-.242-.909-.407-.379-.219-.479-.447-.372-.69a.825.825,0,0,1,.924-.416c.226.067.443.165.671.226a1.8,1.8,0,0,0,.477.059c.469,0,.58-.139.55-.613-.026-.409-.038-.818-.056-1.227l-.052,0" transform="translate(0 -0.001)" fill="#102838"/>
  </g>
</svg>
