<svg xmlns="http://www.w3.org/2000/svg" width="115.242" height="17.302" viewBox="0 0 115.242 17.302">
  <g id="Group_288" data-name="Group 288" transform="translate(0 0)">
    <g id="Group_279" data-name="Group 279">
      <g id="Group_278" data-name="Group 278">
        <path id="Path_367" data-name="Path 367" d="M704.541,1622.554l1.4,8.651-1.4,6.138-5.623,2.513.652-6.127-4.125-4.565,6.021-1.274Z" transform="translate(-695.445 -1622.554)" fill="#ffd54f"/>
      </g>
      <path id="Path_368" data-name="Path 368" d="M706.636,1633.729l.652,6.127-5.623-2.513v-14.789l3.074,5.336,6.028,1.274Z" transform="translate(-692.57 -1622.554)" fill="#ffd54f"/>
    </g>
    <g id="Group_281" data-name="Group 281" transform="translate(24.261)">
      <g id="Group_280" data-name="Group 280">
        <path id="Path_369" data-name="Path 369" d="M721.131,1622.554l1.4,8.651-1.4,6.138-5.623,2.513.652-6.127-4.124-4.565,6.021-1.274Z" transform="translate(-712.036 -1622.554)" fill="#ffd54f"/>
      </g>
      <path id="Path_370" data-name="Path 370" d="M723.226,1633.729l.652,6.127-5.623-2.513v-14.789l3.074,5.336,6.028,1.274Z" transform="translate(-709.16 -1622.554)" fill="#ffd54f"/>
    </g>
    <g id="Group_283" data-name="Group 283" transform="translate(48.523)">
      <g id="Group_282" data-name="Group 282">
        <path id="Path_371" data-name="Path 371" d="M737.721,1622.554l1.4,8.651-1.4,6.138-5.623,2.513.652-6.127-4.124-4.565,6.021-1.274Z" transform="translate(-728.626 -1622.554)" fill="#ffd54f"/>
      </g>
      <path id="Path_372" data-name="Path 372" d="M739.816,1633.729l.652,6.127-5.623-2.513v-14.789l3.074,5.336,6.028,1.274Z" transform="translate(-725.75 -1622.554)" fill="#ffd54f"/>
    </g>
    <g id="Group_285" data-name="Group 285" transform="translate(72.784)">
      <g id="Group_284" data-name="Group 284">
        <path id="Path_373" data-name="Path 373" d="M754.312,1622.554l1.4,8.651-1.4,6.138-5.623,2.513.652-6.127-4.125-4.565,6.021-1.274Z" transform="translate(-745.216 -1622.554)" fill="#ffd54f"/>
      </g>
      <path id="Path_374" data-name="Path 374" d="M756.407,1633.729l.652,6.127-5.623-2.513v-14.789l3.074,5.336,6.028,1.274Z" transform="translate(-742.34 -1622.554)" fill="#ffd54f"/>
    </g>
    <g id="Group_287" data-name="Group 287" transform="translate(97.044)">
      <g id="Group_286" data-name="Group 286">
        <path id="Path_375" data-name="Path 375" d="M770.9,1622.554l1.4,8.651-1.4,6.138-5.622,2.513.651-6.127-4.125-4.565,6.021-1.274Z" transform="translate(-761.805 -1622.554)" fill="#ffd54f"/>
      </g>
      <path id="Path_376" data-name="Path 376" d="M773,1633.729l.652,6.127-5.623-2.513v-14.789l3.074,5.336,6.028,1.274Z" transform="translate(-758.929 -1622.554)" fill="#dadada"/>
    </g>
  </g>
</svg>
