<svg id="Group_108" data-name="Group 108" xmlns="http://www.w3.org/2000/svg" width="62.367" height="61.228" viewBox="0 0 62.367 61.228">
  <path id="Path_250" data-name="Path 250" d="M797.826,2034.135a3.2,3.2,0,1,1-3.2-3.2,3.2,3.2,0,0,1,3.2,3.2Zm13-3.2a3.2,3.2,0,1,0,3.2,3.2,3.2,3.2,0,0,0-3.2-3.2Zm23.083,1.418v6.086a5.532,5.532,0,0,1-5.532,5.532h-4.014c-3.978,11.045-14.136,17.716-21.637,17.716s-17.658-6.671-21.636-17.716h-4.015a5.532,5.532,0,0,1-5.532-5.532v-6.086a5.53,5.53,0,0,1,2.9-4.867c.059-8.64,2.576-15.389,7.5-20.053,4.88-4.628,11.874-6.974,20.788-6.974s15.908,2.346,20.788,6.974c4.92,4.665,7.438,11.413,7.5,20.053a5.53,5.53,0,0,1,2.9,4.867Zm-11.709,1.8c0-1.424-.073-2.761-.18-4.057-2.456-2.246-6.912-3.951-12.538-4.584a8.145,8.145,0,0,1,1.764,3.361c-3.445-2.715-10.209-2.069-15.324-8.143-.293-.34-.547-.665-.766-.96l-.008-.01h0c-.91-1.23-1.22-1.962-1.237-1.152-.151,6.982-5.1,12.425-10.594,13.194-.034.767-.063,1.543-.063,2.351a25.083,25.083,0,0,0,1.3,8.064c3.087,3.723,8.185,4.775,12.7,5.054a5.768,5.768,0,0,1,4.9-2.262c2.968,0,5.373,1.708,5.373,3.814s-2.405,3.813-5.373,3.813a5.648,5.648,0,0,1-5.006-2.437,26.447,26.447,0,0,1-9.709-2.179c4.345,6.4,11.08,9.79,15.286,9.79,6.61,0,19.474-8.349,19.474-23.656Zm5.479-7.338c-.352-15.076-8.958-23.042-24.952-23.042s-24.6,7.966-24.952,23.042H779.9a26.577,26.577,0,0,1,4.921-12.474c3.981-5.121,10-7.718,17.9-7.718s13.924,2.6,17.9,7.718a26.563,26.563,0,0,1,4.921,12.474Zm0,0" transform="translate(-771.54 -2000.457)"/>
</svg>
