<svg id="Group_25" data-name="Group 25" xmlns="http://www.w3.org/2000/svg" width="18.102" height="14.709" viewBox="0 0 18.102 14.709">
  <path id="Path_144" data-name="Path 144" d="M484.317,3094.329c.008.16.011.318.011.48a10.563,10.563,0,0,1-16.26,8.9,7.518,7.518,0,0,0,5.5-1.538,3.712,3.712,0,0,1-3.467-2.578,3.735,3.735,0,0,0,1.675-.064,3.719,3.719,0,0,1-2.978-3.642v-.046a3.694,3.694,0,0,0,1.683.464,3.721,3.721,0,0,1-1.15-4.959,10.542,10.542,0,0,0,7.655,3.88,3.717,3.717,0,0,1,6.328-3.387,7.462,7.462,0,0,0,2.359-.9,3.722,3.722,0,0,1-1.633,2.053,7.38,7.38,0,0,0,2.133-.584A7.545,7.545,0,0,1,484.317,3094.329Z" transform="translate(-468.068 -3090.666)" fill="#102838"/>
</svg>
