<svg id="Group_32" data-name="Group 32" xmlns="http://www.w3.org/2000/svg" width="18.957" height="13.213" viewBox="0 0 18.957 13.213">
  <g id="Group_31" data-name="Group 31">
    <path id="Path_150" data-name="Path 150" d="M524.757,3093.539a2.4,2.4,0,0,0-2.049-1.863,96.32,96.32,0,0,0-14.2,0,2.4,2.4,0,0,0-2.048,1.863,30.411,30.411,0,0,0,0,8.963,2.394,2.394,0,0,0,2.049,1.862,95.949,95.949,0,0,0,14.2,0,2.394,2.394,0,0,0,2.049-1.862,30.593,30.593,0,0,0,0-8.963Zm-11.6,7.424v-6.269l6.027,3.144Z" transform="translate(-506.128 -3091.414)" fill="#102838"/>
  </g>
</svg>
