<svg xmlns="http://www.w3.org/2000/svg" width="117.5" height="90.032" viewBox="0 0 117.5 90.032">
  <g id="Group_56" data-name="Group 56" transform="translate(-259.887 -773)">
    <g id="Group_53" data-name="Group 53" transform="translate(342.183 800.698)">
      <g id="Group_52" data-name="Group 52" transform="translate(0 0)">
        <path id="Path_187" data-name="Path 187" d="M682.027,921.538h-6.212V910.149h2.071a1.035,1.035,0,0,0,1.035-1.036v-3.106a1.035,1.035,0,0,0-1.035-1.035H661.32a1.036,1.036,0,0,0-1.036,1.035v3.106a1.036,1.036,0,0,0,1.036,1.036h2.071v11.389h-6.212A5.183,5.183,0,0,0,652,926.715v32.1a5.183,5.183,0,0,0,5.177,5.177v2.071a1.036,1.036,0,0,0,1.036,1.035h4.141a1.035,1.035,0,0,0,1.035-1.035V963.99h12.425v2.071a1.036,1.036,0,0,0,1.036,1.035h4.142a1.035,1.035,0,0,0,1.035-1.035V963.99a5.183,5.183,0,0,0,5.177-5.177v-32.1a5.183,5.183,0,0,0-5.177-5.177Zm-19.673-14.5h14.5v1.035h-14.5Zm3.106,3.106h8.283v11.389h-8.283Zm-4.142,54.876h-2.071V963.99h2.071Zm18.637,0h-2.071V963.99h2.071Zm5.177-6.212a3.106,3.106,0,0,1-3.106,3.106h-24.85a3.106,3.106,0,0,1-3.106-3.106v-32.1a3.106,3.106,0,0,1,3.106-3.106h24.85a3.106,3.106,0,0,1,3.106,3.106Zm0,0" transform="translate(-652.001 -904.972)" fill="#00c3c3"/>
      </g>
      <path id="Path_188" data-name="Path 188" d="M731.969,1003.639a1.035,1.035,0,0,0-1.035,1.035v32.1a1.035,1.035,0,1,0,2.071,0v-32.1a1.036,1.036,0,0,0-1.036-1.035Zm0,0" transform="translate(-714.368 -982.931)" fill="#00c3c3"/>
      <path id="Path_189" data-name="Path 189" d="M771.436,1013.505a1.035,1.035,0,0,0-1.035,1.036V1042.5a1.035,1.035,0,1,0,2.071,0v-27.956a1.035,1.035,0,0,0-1.035-1.036Zm0,0" transform="translate(-745.551 -990.726)" fill="#00c3c3"/>
      <path id="Path_190" data-name="Path 190" d="M692.5,1013.505a1.036,1.036,0,0,0-1.035,1.036V1042.5a1.035,1.035,0,1,0,2.071,0v-27.956a1.035,1.035,0,0,0-1.035-1.036Zm0,0" transform="translate(-683.184 -990.726)" fill="#00c3c3"/>
    </g>
    <g id="Group_55" data-name="Group 55" transform="translate(259.887 773)">
      <g id="Group_54" data-name="Group 54">
        <path id="Path_191" data-name="Path 191" d="M291.838,777.887a41.276,41.276,0,0,1,51.719,27.062,41.448,41.448,0,0,1,1.9,11.706h3A44.282,44.282,0,1,0,261.913,830.5l2.863-.9A41.322,41.322,0,0,1,291.838,777.887Z" transform="translate(-259.887 -773)" fill="#00c3c3"/>
        <path id="Path_192" data-name="Path 192" d="M368.557,1065.76q-.455.992-.964,1.967a41.274,41.274,0,0,1-71.2,3.327l-2.517,1.632a44.429,44.429,0,0,0,37.232,20.167,44.205,44.205,0,0,0,37.448-20.777Z" transform="translate(-286.743 -1004.316)" fill="#00c3c3"/>
      </g>
      <path id="Path_193" data-name="Path 193" d="M352.987,849.482l-13.5-6a1.5,1.5,0,0,1-.451-2.431l3-3a1.5,1.5,0,0,1,1.491-.377l15,4.5-.861,2.874-14.14-4.243-.822.822,11.5,5.113Z" transform="translate(-322.078 -824.051)" fill="#00c3c3"/>
      <path id="Path_194" data-name="Path 194" d="M352.1,856.324a1.456,1.456,0,0,1-.183-.011,1.5,1.5,0,0,1-1.1-.717l-4.307-7.178-7.178-4.308a1.5,1.5,0,0,1-.288-2.346l3-3a1.5,1.5,0,0,1,1.425-.394l5.176,1.294,12.718-12.717a12.275,12.275,0,0,1,8.736-3.619h0a1.5,1.5,0,0,1,1.5,1.5,12.373,12.373,0,0,1-3.415,8.669l-12.921,12.793,1.293,5.17a1.5,1.5,0,0,1-.394,1.425l-3,3A1.511,1.511,0,0,1,352.1,856.324Zm-9.581-13.8,5.852,3.511a1.5,1.5,0,0,1,.515.514L352.4,852.4l1.041-1.041-1.294-5.176a1.5,1.5,0,0,1,.4-1.429l13.5-13.363a9.247,9.247,0,0,0,2.437-4.93,9.277,9.277,0,0,0-5,2.6h0l-13.318,13.318a1.5,1.5,0,0,1-1.425.394l-5.176-1.294Z" transform="translate(-322.079 -812.767)" fill="#00c3c3"/>
      <path id="Path_195" data-name="Path 195" d="M432.131,905.53a1.524,1.524,0,0,1-.328-.036,1.5,1.5,0,0,1-1.05-.87l-5.819-13.5,2.755-1.188,5,11.6.91-.8-4.228-14.275,2.877-.852,4.5,15.193a1.5,1.5,0,0,1-.446,1.551l-3.179,2.8A1.5,1.5,0,0,1,432.131,905.53Z" transform="translate(-390.294 -861.973)" fill="#00c3c3"/>
      <path id="Path_196" data-name="Path 196" d="M273.136,1000.754c-4,0-7.227-1.138-9.511-3.421-8.178-8.177-1.179-28.749,17.019-50.028l2.28,1.95c-16.592,19.4-23.977,39.158-17.177,45.958,3.923,3.922,12.3,3.268,22.984-1.794l1.284,2.71C283.518,999.208,277.8,1000.754,273.136,1000.754Z" transform="translate(-260.164 -910.722)" fill="#00c3c3"/>
      <path id="Path_197" data-name="Path 197" d="M517.959,1006.383h-7.5a1.5,1.5,0,0,1-1.5-1.5v-16.5h-4.5a1.5,1.5,0,0,1-1.5-1.5v-12a1.5,1.5,0,0,1,1.5-1.5h15a1.5,1.5,0,0,1,1.342.829l4.085,8.169h5.072a1.5,1.5,0,0,1,1.248,2.331l-5.747,8.621v5.545a1.493,1.493,0,0,1-.439,1.06l-6,6A1.5,1.5,0,0,1,517.959,1006.383Zm-6-3h5.378l5.12-5.12v-5.378a1.509,1.509,0,0,1,.252-.832l4.445-6.666h-3.2a1.5,1.5,0,0,1-1.342-.829l-4.085-8.169H505.959v9h4.5a1.5,1.5,0,0,1,1.5,1.5v16.5Z" transform="translate(-451.945 -931.331)" fill="#00c3c3"/>
      <path id="Path_198" data-name="Path 198" d="M548.748,877.4h-6a1.5,1.5,0,0,1-1.3-.756L535.88,866.9h-7.326L526,870.737a1.5,1.5,0,0,1-1.248.667h-6a1.5,1.5,0,0,1-1.5-1.5v-10.5a1.5,1.5,0,0,1,1.5-1.5h8.378l5.56-5.56a1.5,1.5,0,0,1,1.06-.439h7.5v3h-6.878l-5.56,5.56a1.5,1.5,0,0,1-1.06.439h-7.5v7.5h3.7l2.554-3.832a1.5,1.5,0,0,1,1.248-.667h9a1.5,1.5,0,0,1,1.3.756l5.567,9.742h5.129v3Z" transform="translate(-463.237 -835.346)" fill="#00c3c3"/>
      <path id="Path_199" data-name="Path 199" d="M369.041,1039.114a1.5,1.5,0,0,1-1.5-1.5v-15h-6a1.5,1.5,0,0,1-1.5-1.5v-10.5a1.5,1.5,0,0,1,1.5-1.5h7.5a1.5,1.5,0,0,1,1.06.439l4.06,4.06h8.378a1.5,1.5,0,0,1,1.5,1.5v7.5a1.5,1.5,0,0,1-.562,1.171l-6.936,5.548v3.779a1.5,1.5,0,0,1-.6,1.2l-6,4.5A1.5,1.5,0,0,1,369.041,1039.114Zm-6-19.5h6a1.5,1.5,0,0,1,1.5,1.5v13.5l3-2.25v-3.749a1.5,1.5,0,0,1,.562-1.171l6.937-5.548v-5.279h-7.5a1.5,1.5,0,0,1-1.06-.439l-4.06-4.06h-5.378v7.5Z" transform="translate(-339.022 -959.562)" fill="#00c3c3"/>
      <path id="Path_200" data-name="Path 200" d="M273.143,908.634h-6v-3h4.5v-4.5a1.5,1.5,0,0,1,.439-1.06l3.671-3.671-3.46-5.767h-.651v-3h1.5a1.5,1.5,0,0,1,1.285.727l4.5,7.5a1.5,1.5,0,0,1-.225,1.833l-4.06,4.06v5.378A1.5,1.5,0,0,1,273.143,908.634Z" transform="translate(-265.621 -863.577)" fill="#00c3c3"/>
      <path id="Path_201" data-name="Path 201" d="M402.246,789.446a1.507,1.507,0,0,1-.67-.157l-9-4.5,1.342-2.683,8.22,4.111,3.775-2.517a1.522,1.522,0,0,1,.468-.207l4.864-1.216v-1.83h3v3a1.5,1.5,0,0,1-1.137,1.455l-5.749,1.437-4.283,2.855A1.5,1.5,0,0,1,402.246,789.446Z" transform="translate(-364.728 -778.884)" fill="#00c3c3"/>
    </g>
  </g>
</svg>
