<svg xmlns="http://www.w3.org/2000/svg" width="109.999" height="109.999" viewBox="0 0 109.999 109.999">
  <g id="Group_61" data-name="Group 61" transform="translate(-359.999 -780)">
    <path id="Path_212" data-name="Path 212" d="M387.667,877.833A1.833,1.833,0,1,1,385.833,876a1.834,1.834,0,0,1,1.833,1.833Zm0,0" transform="translate(-16.668 -66.667)" fill="#00c3c3"/>
    <path id="Path_213" data-name="Path 213" d="M411.667,877.833A1.833,1.833,0,1,1,409.833,876a1.834,1.834,0,0,1,1.833,1.833Zm0,0" transform="translate(-33.335 -66.667)" fill="#00c3c3"/>
    <path id="Path_214" data-name="Path 214" d="M435.667,877.833A1.833,1.833,0,1,1,433.833,876a1.834,1.834,0,0,1,1.833,1.833Zm0,0" transform="translate(-50.001 -66.667)" fill="#00c3c3"/>
    <path id="Path_215" data-name="Path 215" d="M661.833,879.667h7.333a1.833,1.833,0,1,0,0-3.667h-7.333a1.833,1.833,0,1,0,0,3.667Zm0,0" transform="translate(-208.336 -66.667)" fill="#00c3c3"/>
    <path id="Path_216" data-name="Path 216" d="M361.833,903.333a1.834,1.834,0,0,0,1.833-1.833V870.333H387.5a1.833,1.833,0,1,0,0-3.667H363.667v-11H387.5a1.833,1.833,0,1,0,0-3.667H361.833A1.834,1.834,0,0,0,360,853.833V901.5a1.834,1.834,0,0,0,1.833,1.833Zm0,0" transform="translate(-0.001 -50)" fill="#00c3c3"/>
    <path id="Path_217" data-name="Path 217" d="M551.5,852H536.833a1.833,1.833,0,0,0,0,3.667h12.833v11H536.833a1.833,1.833,0,1,0,0,3.667h12.833v66H481.833a1.833,1.833,0,1,0,0,3.667H551.5a1.834,1.834,0,0,0,1.833-1.833V853.833A1.834,1.834,0,0,0,551.5,852Zm0,0" transform="translate(-83.335 -50)" fill="#00c3c3"/>
    <path id="Path_218" data-name="Path 218" d="M492,861.167A1.834,1.834,0,0,0,493.833,863h7.333A1.834,1.834,0,0,0,503,861.167v-7.333A1.834,1.834,0,0,0,501.167,852h-7.333A1.834,1.834,0,0,0,492,853.833Zm3.667-5.5h3.667v3.667h-3.667Zm0,0" transform="translate(-91.668 -50)" fill="#00c3c3"/>
    <path id="Path_219" data-name="Path 219" d="M540,861.167A1.834,1.834,0,0,0,541.833,863h7.333A1.834,1.834,0,0,0,551,861.167v-7.333A1.834,1.834,0,0,0,549.167,852h-7.333A1.834,1.834,0,0,0,540,853.833Zm3.667-5.5h3.667v3.667h-3.667Zm0,0" transform="translate(-125.002 -50)" fill="#00c3c3"/>
    <path id="Path_220" data-name="Path 220" d="M588,861.167A1.834,1.834,0,0,0,589.833,863h7.333A1.834,1.834,0,0,0,599,861.167v-7.333A1.834,1.834,0,0,0,597.167,852h-7.333A1.834,1.834,0,0,0,588,853.833Zm3.667-5.5h3.667v3.667h-3.667Zm0,0" transform="translate(-158.335 -50)" fill="#00c3c3"/>
    <path id="Path_221" data-name="Path 221" d="M493.833,815h7.333A1.834,1.834,0,0,0,503,813.167v-7.333A1.834,1.834,0,0,0,501.167,804h-7.333A1.834,1.834,0,0,0,492,805.833v7.333A1.834,1.834,0,0,0,493.833,815Zm1.833-7.333h3.667v3.667h-3.667Zm0,0" transform="translate(-91.668 -16.667)" fill="#00c3c3"/>
    <path id="Path_222" data-name="Path 222" d="M541.833,815h7.333A1.834,1.834,0,0,0,551,813.167v-7.333A1.834,1.834,0,0,0,549.167,804h-7.333A1.834,1.834,0,0,0,540,805.833v7.333A1.834,1.834,0,0,0,541.833,815Zm1.833-7.333h3.667v3.667h-3.667Zm0,0" transform="translate(-125.002 -16.667)" fill="#00c3c3"/>
    <path id="Path_223" data-name="Path 223" d="M589.833,815h7.333A1.834,1.834,0,0,0,599,813.167v-7.333A1.834,1.834,0,0,0,597.167,804h-7.333A1.834,1.834,0,0,0,588,805.833v7.333A1.834,1.834,0,0,0,589.833,815Zm1.833-7.333h3.667v3.667h-3.667Zm0,0" transform="translate(-158.335 -16.667)" fill="#00c3c3"/>
    <path id="Path_224" data-name="Path 224" d="M492,957.167A1.834,1.834,0,0,0,493.833,959h7.333A1.834,1.834,0,0,0,503,957.167v-7.333A1.834,1.834,0,0,0,501.167,948h-7.333A1.834,1.834,0,0,0,492,949.833Zm3.667-5.5h3.667v3.667h-3.667Zm0,0" transform="translate(-91.668 -116.667)" fill="#00c3c3"/>
    <path id="Path_225" data-name="Path 225" d="M540,957.167A1.834,1.834,0,0,0,541.833,959h7.333A1.834,1.834,0,0,0,551,957.167v-7.333A1.834,1.834,0,0,0,549.167,948h-7.333A1.834,1.834,0,0,0,540,949.833Zm3.667-5.5h3.667v3.667h-3.667Zm0,0" transform="translate(-125.002 -116.667)" fill="#00c3c3"/>
    <path id="Path_226" data-name="Path 226" d="M588,957.167A1.834,1.834,0,0,0,589.833,959h7.333A1.834,1.834,0,0,0,599,957.167v-7.333A1.834,1.834,0,0,0,597.167,948h-7.333A1.834,1.834,0,0,0,588,949.833Zm3.667-5.5h3.667v3.667h-3.667Zm0,0" transform="translate(-158.335 -116.667)" fill="#00c3c3"/>
    <path id="Path_227" data-name="Path 227" d="M492,909.167A1.834,1.834,0,0,0,493.833,911h7.333A1.834,1.834,0,0,0,503,909.167v-7.333A1.834,1.834,0,0,0,501.167,900h-7.333A1.834,1.834,0,0,0,492,901.833Zm3.667-5.5h3.667v3.667h-3.667Zm0,0" transform="translate(-91.668 -83.334)" fill="#00c3c3"/>
    <path id="Path_228" data-name="Path 228" d="M540,909.167A1.834,1.834,0,0,0,541.833,911h7.333A1.834,1.834,0,0,0,551,909.167v-7.333A1.834,1.834,0,0,0,549.167,900h-7.333A1.834,1.834,0,0,0,540,901.833Zm3.667-5.5h3.667v3.667h-3.667Zm0,0" transform="translate(-125.002 -83.334)" fill="#00c3c3"/>
    <path id="Path_229" data-name="Path 229" d="M588,909.167A1.834,1.834,0,0,0,589.833,911h7.333A1.834,1.834,0,0,0,599,909.167v-7.333A1.834,1.834,0,0,0,597.167,900h-7.333A1.834,1.834,0,0,0,588,901.833Zm3.667-5.5h3.667v3.667h-3.667Zm0,0" transform="translate(-158.335 -83.334)" fill="#00c3c3"/>
    <path id="Path_230" data-name="Path 230" d="M516,1093.833a1.834,1.834,0,0,0,1.833,1.833h49.5a1.833,1.833,0,1,0,0-3.667h-49.5a1.834,1.834,0,0,0-1.833,1.833Zm0,0" transform="translate(-108.335 -216.668)" fill="#00c3c3"/>
    <g id="Group_60" data-name="Group 60" transform="translate(359.999 780)">
      <path id="Path_231" data-name="Path 231" d="M469.833,850.619a1.834,1.834,0,0,0,1.833-1.833V783.667h47.666v77H506.5V847.832A1.834,1.834,0,0,0,504.666,846H486.333a1.834,1.834,0,0,0-1.833,1.833v12.833h-4.748a1.833,1.833,0,1,0,0,3.667h45.081a1.834,1.834,0,0,1,1.833,1.833V868H480.833a1.833,1.833,0,0,0,0,3.667H528.5a1.834,1.834,0,0,0,1.833-1.833v-3.667a5.5,5.5,0,0,0-5.5-5.5H523V781.833A1.834,1.834,0,0,0,521.166,780H469.833A1.834,1.834,0,0,0,468,781.833v66.953a1.834,1.834,0,0,0,1.833,1.833Zm18.333-.954h5.5v11h-5.5Zm9.167,11v-11h5.5v11Zm0,0" transform="translate(-435 -780)" fill="#00c3c3"/>
      <path id="Path_232" data-name="Path 232" d="M380.165,1008a20.167,20.167,0,1,0,20.166,20.166A20.167,20.167,0,0,0,380.165,1008Zm0,36.666a16.5,16.5,0,1,1,16.5-16.5,16.5,16.5,0,0,1-16.5,16.5Zm0,0" transform="translate(-359.999 -938.334)" fill="#00c3c3"/>
    </g>
    <path id="Path_233" data-name="Path 233" d="M408.958,1050.441l-11.55,9.9-4.29-4.309a1.842,1.842,0,1,0-2.6,2.6l5.5,5.5a1.847,1.847,0,0,0,2.493.091l12.833-11a1.833,1.833,0,0,0-2.382-2.786Zm0,0" transform="translate(-20.817 -187.502)" fill="#00c3c3"/>
  </g>
</svg>
