<svg xmlns="http://www.w3.org/2000/svg" width="97.979" height="98" viewBox="0 0 97.979 98">
  <g id="Group_59" data-name="Group 59" transform="translate(-0.082)">
    <path id="Path_209" data-name="Path 209" d="M163.775,299.6l1.836,1.192-1.346,2.4a3.814,3.814,0,0,0,5.163,5.179l2.306-1.249,1.238,1.935a3.508,3.508,0,0,0,2.924,1.573,3.632,3.632,0,0,0,1.2-.207,3.469,3.469,0,0,0,2.359-3.533l-.121-6.582,3.507-3.234,7.306,10.749a2.6,2.6,0,0,0,2.907,1.269,2.929,2.929,0,0,0,2.269-2.669,1.6,1.6,0,0,0-.01-.305l-2.337-17.776,5.426-4.647a4.473,4.473,0,0,0,1.307-3.281v-3.569a3.835,3.835,0,0,0-3.809-3.757l-3.52-.025a4.6,4.6,0,0,0-3.4,1.382l-4.626,5.335L166.5,277.452a1.5,1.5,0,0,0-.283-.011,2.907,2.907,0,0,0-2.687,2.249,2.551,2.551,0,0,0,1.143,2.829l10.917,7.35-3.214,3.461-6.355-.2a3.43,3.43,0,0,0-3.66,2.257A3.552,3.552,0,0,0,163.775,299.6Zm1.655-3.1c.039-.114.1-.142.366-.121l7.219.229a1.606,1.606,0,0,0,1.248-.519l5.029-5.4a1.633,1.633,0,0,0-.284-2.468l-10.78-7.247,16.4,2.135a1.633,1.633,0,0,0,1.633-.515l5.12-5.922a1.307,1.307,0,0,1,.959-.34l3.553.018a.56.56,0,0,1,.55.537v3.561a1.27,1.27,0,0,1-.248.849l-6.043,5.161a1.647,1.647,0,0,0-.554,1.212,1.529,1.529,0,0,0,.052.448l2.146,16.333-7.321-10.78a1.634,1.634,0,0,0-2.46-.283l-5.432,5.016a1.632,1.632,0,0,0-.526,1.23l.137,7.42a.281.281,0,0,1-.49.211l-2.03-3.183a1.633,1.633,0,0,0-2.156-.557L167.87,305.5a.542.542,0,0,1-.64-.1.521.521,0,0,1-.163-.38.511.511,0,0,1,.056-.247l2.084-3.724a1.633,1.633,0,0,0-.531-2.167l-3.1-2.009a.3.3,0,0,1-.142-.373Z" transform="translate(-131.043 -220.795)" fill="#009b9b"/>
    <path id="Path_210" data-name="Path 210" d="M119.433,180.467H96.567v-4.9a4.9,4.9,0,0,0-4.9-4.9H75.333a4.9,4.9,0,0,0-4.9,4.9v4.9H47.567a4.9,4.9,0,0,0-4.9,4.9V231.1a4.9,4.9,0,0,0,4.9,4.9h71.866a4.9,4.9,0,0,0,4.9-4.9V185.367A4.9,4.9,0,0,0,119.433,180.467Zm-73.5,14.587a13.08,13.08,0,0,0,11.321-11.321h52.492a13.08,13.08,0,0,0,11.321,11.321v26.359a13.08,13.08,0,0,0-11.321,11.321H57.254a13.08,13.08,0,0,0-11.321-11.321Zm75.133-9.687v6.386a9.813,9.813,0,0,1-8.02-8.02h6.386A1.633,1.633,0,0,1,121.067,185.367Zm-47.367-9.8a1.633,1.633,0,0,1,1.633-1.633H91.667a1.633,1.633,0,0,1,1.633,1.633v4.9H73.7Zm-26.133,8.167h6.386a9.813,9.813,0,0,1-8.02,8.02v-6.386A1.634,1.634,0,0,1,47.567,183.734ZM45.934,231.1v-6.386a9.813,9.813,0,0,1,8.02,8.02H47.567A1.633,1.633,0,0,1,45.934,231.1Zm73.5,1.633h-6.386a9.813,9.813,0,0,1,8.02-8.02V231.1A1.633,1.633,0,0,1,119.433,232.733Z" transform="translate(-34.434 -138)" fill="#009b9b"/>
    <path id="Path_211" data-name="Path 211" d="M49.169,0C23.008,0,.528,13.983.082,30.53a1.633,1.633,0,0,0,1.53,1.676,1.656,1.656,0,0,0,1.728-1.47C3.64,27.726,8.956,24.5,16.4,24.5c7.7,0,13.067,3.443,13.067,6.533a1.614,1.614,0,0,0,1.442,1.594,1.509,1.509,0,0,0,.191.039,1.614,1.614,0,0,0,1.594-1.442,1.513,1.513,0,0,0,.039-.191c0-3.085,6.984-6.533,16.333-6.533S65.4,27.948,65.4,31.033a1.634,1.634,0,0,0,1.633,1.633c.018,0,.033-.01.051-.01s.033.01.052.01a1.634,1.634,0,0,0,1.633-1.633c0-.087,0-.327-.013-.673.7-2.9,5.831-5.86,12.977-5.86,7.443,0,12.761,3.226,13.058,6.236a1.637,1.637,0,1,0,3.267-.206C97.6,13.983,75.219,0,49.169,0ZM16.4,21.233a23.163,23.163,0,0,0-11.386,2.7C9.611,14.269,23.2,6.37,39.33,4c-6.483,5.485-8.707,15.25-9.473,21.436A20.793,20.793,0,0,0,16.4,21.233Zm32.667,0c-6.675,0-12.333,1.519-15.843,3.92,1.094-7.8,4.606-20.711,15.887-21.875,11.319,1.169,14.816,14.163,15.9,21.95C61.522,22.783,55.812,21.233,49.066,21.233Zm32.667,0a20.907,20.907,0,0,0-13.37,4.132c-.768-6.19-3-15.909-9.473-21.37C74.984,6.342,88.54,14.259,93.123,23.941A23.16,23.16,0,0,0,81.733,21.233Z" transform="translate(0)" fill="#009b9b"/>
  </g>
</svg>
