<svg xmlns="http://www.w3.org/2000/svg" width="109.821" height="113.61" viewBox="0 0 109.821 113.61">
  <g id="Group_58" data-name="Group 58" transform="translate(-308 -719.998)">
    <g id="Group_57" data-name="Group 57" transform="translate(308 719.998)">
      <path id="Path_202" data-name="Path 202" d="M417.633,734.942a1.9,1.9,0,0,0-1.077-.97l-39.277-13.866a1.894,1.894,0,0,0-2.416,1.155l-8.922,25.246h-3.9V740.07a5.679,5.679,0,0,0-7.131-5.491l-45.5,11.992v.034A1.866,1.866,0,0,0,308,748.4v79.527a5.681,5.681,0,0,0,5.68,5.68H366.7a5.681,5.681,0,0,0,5.68-5.68V810.746l15.186,5.361a1.894,1.894,0,0,0,2.416-1.156l27.734-78.562a1.889,1.889,0,0,0-.081-1.447Zm-61.759,3.289a1.894,1.894,0,0,1,2.378,1.832v6.445H324.494Zm12.718,89.7a1.894,1.894,0,0,1-1.893,1.893H313.68a1.894,1.894,0,0,1-1.893-1.893V750.294H366.7a1.894,1.894,0,0,1,1.893,1.894ZM384.157,757.5l2.423-1.149,1.155,2.416-9.2,26.037a1.9,1.9,0,0,0,.078,1.447l1.971,4.124-.609,1.729-3.756-3.888a1.892,1.892,0,0,0-1.6-.569l-2.244.284V785.4l1.615-.773a1.9,1.9,0,0,0,.97-1.077l3.787-10.709Zm3.571,12.639,3.844,6.177-.658,1.861-4.6-4.027Zm-15.349,9.348v-5.2l1.863-.078Zm3.219-9.126-3.219.132v-2.52l4.636-1.617Zm11.44,41.541-14.66-5.175V791.75l1.774-.222,5.232,5.412a1.892,1.892,0,0,0,1.363.568,1.773,1.773,0,0,0,.4-.043,1.892,1.892,0,0,0,1.382-1.219l1.894-5.357a1.887,1.887,0,0,0-.078-1.446l-1.98-4.119,2.591-7.337,5.563,4.876a1.894,1.894,0,0,0,1.248.469,1.862,1.862,0,0,0,.479-.063,1.9,1.9,0,0,0,1.307-1.2l1.893-5.357a1.892,1.892,0,0,0-.178-1.63l-5.926-9.521,2.219-6.284a1.894,1.894,0,0,0-.078-1.449l-2.31-4.83a1.894,1.894,0,0,0-2.526-.892l-4.833,2.311a1.889,1.889,0,0,0-.967,1.077l-2.222,6.292-6.248,2.18V752.188a5.663,5.663,0,0,0-2.715-4.823l3.095-8.775.694-1.969,4.356-12.308,35.709,12.6Zm0,0" transform="translate(-308 -719.998)" fill="#009b9b"/>
    </g>
    <path id="Path_203" data-name="Path 203" d="M705.055,830.619l1.26-3.572,3.247,1.146-1.26,3.572Zm0,0" transform="translate(-303.077 -81.712)" fill="#009b9b"/>
    <path id="Path_204" data-name="Path 204" d="M595.328,791.883l1.261-3.571,3.246,1.146-1.261,3.571Zm0,0" transform="translate(-219.321 -52.145)" fill="#009b9b"/>
    <path id="Path_205" data-name="Path 205" d="M677.621,820.935l1.261-3.572,3.246,1.146-1.261,3.571Zm0,0" transform="translate(-282.137 -74.32)" fill="#009b9b"/>
    <path id="Path_206" data-name="Path 206" d="M622.762,801.571,624.023,798l3.245,1.146-1.261,3.571Zm0,0" transform="translate(-240.262 -59.54)" fill="#009b9b"/>
    <path id="Path_207" data-name="Path 207" d="M650.191,811.247l1.261-3.571,3.246,1.146-1.261,3.57Zm0,0" transform="translate(-261.199 -66.926)" fill="#009b9b"/>
    <path id="Path_208" data-name="Path 208" d="M379.247,880a18.935,18.935,0,1,0,18.935,18.935A18.935,18.935,0,0,0,379.247,880Zm13.673,12.461-2.583-.568c-1.136-.251-2.273-.449-3.42-.621-.174-1.148-.378-2.289-.622-3.42l-.569-2.582a15.21,15.21,0,0,1,7.194,7.191ZM364.1,898.935a15.035,15.035,0,0,1,.19-2.312l4.682-1.042c.718-.159,1.441-.291,2.166-.416a51.78,51.78,0,0,0,0,7.54c-.725-.125-1.448-.258-2.166-.417l-4.682-1.041a15.04,15.04,0,0,1-.19-2.312Zm10.88-4.266a47.946,47.946,0,0,1,8.532,0,47.821,47.821,0,0,1,0,8.531,47.774,47.774,0,0,1-8.532,0,47.816,47.816,0,0,1,0-8.531Zm12.37.5c.726.125,1.449.257,2.166.416l4.683,1.042a13.661,13.661,0,0,1,0,4.624l-4.683,1.041c-.717.159-1.44.292-2.166.419a51.609,51.609,0,0,0,0-7.542Zm-5.791-11.189,1.041,4.685c.159.717.293,1.44.419,2.166a51.627,51.627,0,0,0-7.542,0c.126-.726.258-1.449.419-2.166l1.041-4.685a13.8,13.8,0,0,1,4.623,0Zm-8.786,1.279-.569,2.583c-.25,1.136-.449,2.273-.62,3.42q-1.721.258-3.42.62l-2.583.569a15.221,15.221,0,0,1,7.192-7.186Zm-7.2,20.147,2.583.568c1.136.25,2.271.449,3.42.621q.258,1.721.62,3.42l.569,2.582a15.216,15.216,0,0,1-7.2-7.186Zm11.361,8.479L375.9,909.2c-.161-.716-.293-1.441-.419-2.164,1.254.092,2.513.153,3.772.153s2.515-.062,3.77-.153c-.126.724-.26,1.449-.419,2.164l-1.041,4.685a13.8,13.8,0,0,1-4.623,0Zm8.786-1.28.569-2.583c.252-1.136.448-2.272.622-3.42,1.146-.172,2.289-.378,3.42-.62l2.582-.569a15.2,15.2,0,0,1-7.195,7.2Zm0,0" transform="translate(-39.93 -122.132)" fill="#009b9b"/>
    <rect id="Rectangle_42" data-name="Rectangle 42" width="30.296" height="3.787" transform="translate(324.169 810.886)" fill="#009b9b"/>
    <rect id="Rectangle_43" data-name="Rectangle 43" width="22.722" height="3.787" transform="translate(327.956 818.46)" fill="#009b9b"/>
    <rect id="Rectangle_44" data-name="Rectangle 44" width="3.787" height="3.787" transform="translate(337.423 803.312)" fill="#009b9b"/>
    <rect id="Rectangle_45" data-name="Rectangle 45" width="3.787" height="3.787" transform="translate(329.849 803.312)" fill="#009b9b"/>
    <rect id="Rectangle_46" data-name="Rectangle 46" width="3.787" height="3.787" transform="translate(344.997 803.312)" fill="#009b9b"/>
  </g>
</svg>
