<svg id="Layer_1" data-name="Layer 1" xmlns="http://www.w3.org/2000/svg" viewBox="0 0 15.78 11.87">
  <g>
    <path d="M380.7,267.92v1.87h.94V267H370.89v-3.83a.45.45,0,0,0-.14-.33.44.44,0,0,0-.66,0,.49.49,0,0,0-.14.33v6.64h.94v-1.87Z" transform="translate(-367.91 -257.92)" style="fill: #ffffff"/>
    <path d="M372.36,265.07a.9.9,0,0,0,.62-.25.83.83,0,0,0,.26-.61.79.79,0,0,0-.26-.6.87.87,0,0,0-.62-.26.83.83,0,0,0-.6.26.79.79,0,0,0-.25.6.82.82,0,0,0,.25.61.86.86,0,0,0,.6.25" transform="translate(-367.91 -257.92)" style="fill: #ffffff"/>
    <path d="M381.64,266.28v-1.15a.55.55,0,0,0-.19-.44,1,1,0,0,0-.49-.22l-6.78-.66h-.05a.42.42,0,0,0-.31.13.41.41,0,0,0-.12.3v1.33H372c-.29,0-.43.12-.43.35s.14.36.43.36Z" transform="translate(-367.91 -257.92)" style="fill: #ffffff"/>
    <path d="M383.36,262.68a.42.42,0,0,1-.15,0l-7.43-4-7.4,4a.32.32,0,0,1-.3-.57l7.7-4.13,7.74,4.15a.34.34,0,0,1,.13.44.34.34,0,0,1-.29.17" transform="translate(-367.91 -257.92)" style="fill: #ffffff"/>
  </g>
</svg>
