<svg id="Layer_1" data-name="Layer 1" xmlns="http://www.w3.org/2000/svg" viewBox="0 0 14.31 11.7">
  <g>
    <path d="M388.74,264.58a2.4,2.4,0,1,0,2.4-2.46,2.43,2.43,0,0,0-2.4,2.46m.89,0a1.51,1.51,0,1,1,1.51,1.55,1.54,1.54,0,0,1-1.51-1.55" transform="translate(-379.23 -255.34)" style="fill: #ffffff"/>
    <path d="M379.23,264.58a2.4,2.4,0,1,0,2.4-2.46,2.43,2.43,0,0,0-2.4,2.46m.89,0a1.51,1.51,0,1,1,1.51,1.55,1.54,1.54,0,0,1-1.51-1.55" transform="translate(-379.23 -255.34)" style="fill: #ffffff"/>
    <path d="M389.54,259.64l-2.88-2.24a.93.93,0,0,0-1.16.19c-.47.56-1.55,1.94-1.55,1.94l1.46,1.2,1.53-1.93,2.2,1.72Z" transform="translate(-379.23 -255.34)" style="fill: #ffffff"/>
    <path d="M385.25,260.82l-1.38-1.1s-.73.74-.73,1c0,1.07,2,.75,2,.75Z" transform="translate(-379.23 -255.34)" style="fill: #ffffff"/>
    <path d="M389.41,259.1s1.32.61,1.64.78a1.31,1.31,0,0,1,.65,1.2,3.54,3.54,0,0,1-.29.84,3.36,3.36,0,0,0-2,.68,3.19,3.19,0,0,0-.92,1.66,1.17,1.17,0,0,1-.79.75,32.11,32.11,0,0,1-3.55,0,2.89,2.89,0,0,0-1-2.49,3.86,3.86,0,0,0-2.27-.6c-.35,0-.34-1,0-1h2.18l4.41.09c.1,0,.1.08.18.26s.59.11,1.08-.34a3,3,0,0,0,.6-1.83" transform="translate(-379.23 -255.34)" style="fill: #ffffff"/>
    <path d="M385.62,255.83h0l.13-.14h0l.07-.06h0l.07,0h0l.08,0h0l.07,0h0l.07,0h0l.07,0h0l.09,0h0l.08,0H387a1.27,1.27,0,0,1,.92.95l-.92-.06v.62l.88.15v.72l-.43,0a2.85,2.85,0,0,1-.62-.43,1.06,1.06,0,0,0-.59-.18,1.1,1.1,0,0,0-.65.18,1.36,1.36,0,0,1-.21-.69,1.21,1.21,0,0,1,.26-.79" transform="translate(-379.23 -255.34)" style="fill: #ffffff"/>
  </g>
</svg>
