<svg id="Layer_1" data-name="Layer 1" xmlns="http://www.w3.org/2000/svg" viewBox="0 0 14.13 9.12">
  <g>
    <path d="M388.55,256.79a.43.43,0,0,0-.32-.16H385.4c-.1,0-.11.08-.06.16l5,8.7a.21.21,0,0,0,.26.06l2.74-.86a.15.15,0,0,0,.07-.23Zm0,0" transform="translate(-379.32 -256.63)"/>
    <path d="M381.76,265.49l2.42-5.16v5c0,.45.47.43.57.43h4.71c.1,0,.14-.17.09-.25l-4.87-8.63c-.05-.09-.13-.09-.18,0L383.29,259a.75.75,0,0,1-.25.25c-1.24.68-2.9,1.59-3.63,1.92-.11.05-.11.18,0,.27a7.83,7.83,0,0,1,.83,1,4.51,4.51,0,0,1,.48.82.38.38,0,0,1,0,.33l-1.05,1.93c-.05.08,0,.25.1.25h1.75c.1,0,.22-.17.27-.26Zm-1.41-4s0-.1,0-.12c.52-.28,3-1.56,3.65-2,.05,0,.07,0,0,0L381.74,264c0,.05-.06.05-.07,0a5.12,5.12,0,0,0-1.32-2.5Zm0,0" transform="translate(-379.32 -256.63)"/>
  </g>
</svg>
