<svg id="Layer_1" data-name="Layer 1" xmlns="http://www.w3.org/2000/svg" viewBox="0 0 11.6 11.89">
  <path d="M389.35,258.52a.25.25,0,0,1-.15.06.22.22,0,0,1-.15-.06.23.23,0,0,1,0-.31l2-2.06a.21.21,0,0,1,.2,0,.2.2,0,0,1,.14.15.21.21,0,0,1-.05.2Zm-4.16.47.32.33c1-.9,2.31-1.08,3-.39l.16.17c.69.71.51,2-.39,3l.32.33a17.18,17.18,0,0,0,3.6-7.17,16.28,16.28,0,0,0-7,3.68m2.24,1a1.44,1.44,0,0,0-1.55-.33l2,2.07a1.45,1.45,0,0,0-.31-1.57Zm.46-.13a1.9,1.9,0,0,1,.53,1.28,1.57,1.57,0,0,0-.05-1.78l-.17-.17a1.48,1.48,0,0,0-1.74-.06,1.89,1.89,0,0,1,1.26.55Zm.48-.5-.17-.17a1.48,1.48,0,0,0-1.74-.06,1.89,1.89,0,0,1,1.26.55l.17.18a1.9,1.9,0,0,1,.53,1.28,1.57,1.57,0,0,0-.05-1.78m-.78.8-.16-.17a1.44,1.44,0,0,0-1.55-.33l2,2.07a1.45,1.45,0,0,0-.31-1.57m-5.77-4.66a.6.6,0,0,0-.46-.29h-.07a.63.63,0,0,0-.44.19v0a.63.63,0,0,0,.1,1l1.5,1,.35-.36Zm1.4,7c-.3.41-.58.81-.81,1.2a.92.92,0,0,0,.28.64l.61.62a.87.87,0,0,0,.62.29,20.66,20.66,0,0,0,3.17-2.58l-2.17-2.22a26.21,26.21,0,0,0-1.7,2.05m-.16-5.18-.3.31,7.08,7.26.15-.15.15-.16Zm-.06,7.94-.6-.62a1.84,1.84,0,0,1-.3-.43c-.12.22-.24.45-.34.66a.48.48,0,0,0,.09.52l.43.42a.43.43,0,0,0,.5.1c.21-.1.42-.22.64-.35a1.79,1.79,0,0,1-.42-.3m1.92-4.81a26.21,26.21,0,0,0-1.7,2.05c-.3.41-.58.81-.81,1.2a.92.92,0,0,0,.28.64l.61.62a.87.87,0,0,0,.62.29,20.66,20.66,0,0,0,3.17-2.58Zm2.47,2.52a18.65,18.65,0,0,1-4.43,3.32.78.78,0,0,1-.37.09.84.84,0,0,1-.61-.27l-.42-.43a.88.88,0,0,1-.17-1,14.53,14.53,0,0,1,1.5-2.44c.36-.49.77-1,1.74-2.09l-.33-.34a17.49,17.49,0,0,0-3.64,5.43.24.24,0,0,0,.06.25l1.45,1.49a.22.22,0,0,0,.24.06,16.82,16.82,0,0,0,5.3-3.74Zm-5.29,1.24c-.12.22-.24.45-.34.66a.48.48,0,0,0,.09.52l.43.42a.43.43,0,0,0,.5.1c.21-.1.42-.22.64-.35a1.79,1.79,0,0,1-.42-.3l-.6-.62a1.84,1.84,0,0,1-.3-.43m9.86,1.64-1.5-1-.35.36,1,1.54a.65.65,0,0,0,.46.29.62.62,0,0,0,.51-.19h0a.68.68,0,0,0,.18-.53.65.65,0,0,0-.28-.47" transform="translate(-380.65 -255.24)" style="fill: #ffffff"/>
</svg>
