<svg id="Layer_1" data-name="Layer 1" xmlns="http://www.w3.org/2000/svg" viewBox="0 0 13.66 7.02">
  <path d="M379.83,261.63h.37a.28.28,0,0,0,.28-.28v-2a.29.29,0,0,0-.28-.28h-.37a.28.28,0,0,0-.27.28v2a.27.27,0,0,0,.27.28m3.19,1.25a.73.73,0,0,0,0,1.45.73.73,0,0,0,0-1.45m0-.75a1.48,1.48,0,1,1-1.44,1.47,1.46,1.46,0,0,1,1.44-1.47m7.94.75a.73.73,0,0,0,0,1.45.73.73,0,0,0,0-1.45m0-.75a1.48,1.48,0,1,1-1.44,1.47,1.46,1.46,0,0,1,1.44-1.47m-6-1.6v-1.89a.1.1,0,0,0-.1-.1h-2c-.89,0-.73.77-.74,2a.1.1,0,0,0,.1.1h2.64a.1.1,0,0,0,.1-.1m-4.37.76c.06-1.91-.23-3.23,1.38-3.23h4.42c2,.05,2.47,1,3.46,2.27a1,1,0,0,0,.65.24l1.87.17c.77.07.87.6.87,1.4V263c0,.51-.33.57-.48.58a1.78,1.78,0,1,0-3.55,0h-4.39a1.78,1.78,0,1,0-3.55,0h-.35a.8.8,0,0,1-.71-.78v-.41a.45.45,0,0,1,.37-.39v-.72m0,0h0m8.41-.7c.23,0,.18-.26.13-.32-1.37-1.94-2.33-1.75-3.25-1.75a.13.13,0,0,0-.12.12v1.83a.12.12,0,0,0,.12.12H389" transform="translate(-379.56 -258.06)" style="fill: #ffffff"/>
</svg>
