<svg id="Layer_1" data-name="Layer 1" xmlns="http://www.w3.org/2000/svg" viewBox="0 0 11.32 12.4">
  <path d="M392,256.92h-.88V260h.35v1.44h-.67v-4.74a1.73,1.73,0,0,0-1.71-1.75h-5.6a1.72,1.72,0,0,0-1.7,1.75v4.65h-.59v-1.53h.37v-3.12h-.88v3.12h.37v1.68h.73V265a1.78,1.78,0,0,0,.88,1.54v.9h1.49v-.69h4.22v.69h1.5v-.89a1.76,1.76,0,0,0,.92-1.55v-3.33h.81V260H392Zm-7.66-1.57h4v1h-4Zm.43,9.53h-2.2v-1h2.2Zm5.32,0h-2.2v-1h2.2Zm0-3.27S389.7,263,386.3,263s-3.76-1.38-3.76-1.38v-4.8h7.59Z" transform="translate(-380.73 -254.99)" style="fill: #ffffff"/>
</svg>
