<svg id="Layer_1" data-name="Layer 1" xmlns="http://www.w3.org/2000/svg" viewBox="0 0 10.65 13.01">
  <g>
    <polygon points="1.6 2.7 1.6 5.1 5.06 3.89 5.33 3.8 5.59 3.89 9.05 5.1 9.05 2.7 1.6 2.7" style="fill: #ffffff"/>
    <path d="M390.81,266.26a.63.63,0,0,1-.86,0,1.41,1.41,0,0,0-.9-.32,1.44,1.44,0,0,0-.91.32.57.57,0,0,1-.42.17.61.61,0,0,1-.43-.17,1.41,1.41,0,0,0-.9-.32,1.44,1.44,0,0,0-.91.32.57.57,0,0,1-.42.17.58.58,0,0,1-.43-.17,1.44,1.44,0,0,0-.91-.32,1.41,1.41,0,0,0-.9.32.61.61,0,0,1-.43.17.57.57,0,0,1-.42-.17,1.44,1.44,0,0,0-.91-.32v.85a.61.61,0,0,1,.43.17,1.41,1.41,0,0,0,.9.32,1.44,1.44,0,0,0,.91-.32.57.57,0,0,1,.42-.17.61.61,0,0,1,.43.17,1.44,1.44,0,0,0,1.81,0,.6.6,0,0,1,.43-.17.57.57,0,0,1,.42.17,1.44,1.44,0,0,0,.91.32,1.41,1.41,0,0,0,.9-.32.61.61,0,0,1,.43-.17.57.57,0,0,1,.42.17,1.44,1.44,0,0,0,.91.32,1.46,1.46,0,0,0,.91-.32.57.57,0,0,1,.42-.17v-.85a1.41,1.41,0,0,0-.9.32" transform="translate(-381.06 -254.27)" style="fill: #ffffff"/>
    <polygon points="5.74 0.65 5.74 0 4.91 0 4.91 0.65 2.95 0.65 2.95 1.85 7.73 1.85 7.73 0.65 5.74 0.65" style="fill: #ffffff"/>
    <path d="M381.23,260.76l1.75,4.46a2.23,2.23,0,0,1,2.08.31,2.16,2.16,0,0,1,.91-.4v-6Z" transform="translate(-381.06 -254.27)" style="fill: #ffffff"/>
    <path d="M386.8,259.11v6a2.28,2.28,0,0,1,.92.4,2.16,2.16,0,0,1,1.33-.44,2.12,2.12,0,0,1,.72.12l1.78-4.45Z" transform="translate(-381.06 -254.27)" style="fill: #ffffff"/>
  </g>
</svg>
