<svg id="Layer_1" data-name="Layer 1" xmlns="http://www.w3.org/2000/svg" viewBox="0 0 8.55 11.81">
  <g>
    <path d="M390.66,266.54v-3.65c0-.31,0-7.56,0-7.56h-.16s-1.35.77-1.35,6.41c1,.29.6,1.42.52,1.56s0,3.24,0,3.24h0a.49.49,0,0,0,1,0Z" transform="translate(-382.11 -255.28)" style="fill: #ffffff"/>
    <path d="M388.27,255.54H388l.09,3.07h-.35v-3.07h-.26v3.1h-.29v-3.1h-.28v3.1h-.35l.1-3.1h-.27l-.32,2.62s0,.1,0,.13a1.27,1.27,0,0,0,.48,1,2.39,2.39,0,0,1,.3,2.46v4.78h0a.5.5,0,0,0,.5.5.5.5,0,0,0,.5-.5h0v-4.77c0-.3-.56-1.58.37-2.53h0a1.39,1.39,0,0,0,.4-.85v-.08Z" transform="translate(-382.11 -255.28)" style="fill: #ffffff"/>
    <path d="M383.83,255.28h0c-1.08,0-1.69,1-1.69,2.18a2.19,2.19,0,0,0,1.27,2.12c.33.45.11,1.53-.12,2.15v4.85h0a.5.5,0,0,0,.51.5h.08a.5.5,0,0,0,.5-.5h0v-4.85c-.22-.62-.44-1.7-.11-2.15a2.19,2.19,0,0,0,1.27-2.12c0-1.13-.61-2.16-1.68-2.18m-.57,3.86a1.46,1.46,0,0,1-.24-.25,2.77,2.77,0,0,1-.28-.4l-.12-.25a1.5,1.5,0,0,1-.1-.86,2.76,2.76,0,0,1,.1-.47,1.48,1.48,0,0,1,.13-.32l.07-.11a.73.73,0,0,0,0,.13c0,.08,0,.19,0,.33a6.3,6.3,0,0,0,0,1,1.17,1.17,0,0,0,.07.25,2.09,2.09,0,0,0,.08.23,4.28,4.28,0,0,0,.19.42,2.2,2.2,0,0,0,.14.3c0,.07.07.1.08.1a.35.35,0,0,1-.12-.06" transform="translate(-382.11 -255.28)" style="fill: #ffffff"/>
  </g>
</svg>
