<svg id="Layer_1" data-name="Layer 1" xmlns="http://www.w3.org/2000/svg" viewBox="0 0 13.85 11.53">
  <g>
    <path d="M379.46,255.42l2.2,2.28.84-.76-.76-1.52Zm0,0" transform="translate(-379.46 -255.42)"/>
    <path d="M389.37,261.81a.81.81,0,0,0,1-.56.77.77,0,0,0-.08-.61.79.79,0,0,0-.48-.38l-.31-.08-.42,1.52Zm0,0" transform="translate(-379.46 -255.42)"/>
    <path d="M389.12,260.07l-2.65-.74a.28.28,0,0,0-.39.23l-.23.9c-.06.21,0,.34.2.39l2.64.76Zm0,0" transform="translate(-379.46 -255.42)"/>
    <path d="M389.51,262.6a1.54,1.54,0,0,0-.73-.42l-3.18-.9-1.94-3.52a.9.9,0,0,0-.51-.4.82.82,0,0,0-.61.09.79.79,0,0,0-.38.48,1,1,0,0,0,.06.62l2.45,4.33a1.17,1.17,0,0,0,.7.51l4.45,1.26,2.08,2.12a.71.71,0,0,0,.26.16.65.65,0,0,0,.45-.05.53.53,0,0,0,.28-.37.6.6,0,0,0-.17-.59Zm0,0" transform="translate(-379.46 -255.42)"/>
    <path d="M391.9,263.5l.45.59,1-1-.79-.45a1,1,0,0,0-.18-.77,1.28,1.28,0,0,0-.66-.5,1.13,1.13,0,0,0-.86.13,1.16,1.16,0,0,0-.54.69,1.15,1.15,0,0,0,.1.87,1.16,1.16,0,0,0,.68.57,1.23,1.23,0,0,0,.84-.09Zm0,0" transform="translate(-379.46 -255.42)"/>
  </g>
</svg>
