<svg id="Layer_1" data-name="Layer 1" xmlns="http://www.w3.org/2000/svg" viewBox="0 0 15.15 11.37">
  <g>
    <path d="M388.86,258.06a9.84,9.84,0,0,0,2.87.71c1.41.08,2.22-.22,2.16.83s-1.19,6.34-4,6.11c0,0-1.59,0-2.08-3.16a19.2,19.2,0,0,1,.15-3.65c.26-1.37.93-.84.93-.84m0,5.3s-.08.69.19.72.47-.41,1.16-.26.67.82,1,.72a.86.86,0,0,0,.38-.91c-.12-.2-.75-.25-1.24-.37a9.56,9.56,0,0,0-1-.26c-.3,0-.37.21-.41.36m1.38-3.42c-.12-.23-1.39.07-1.52.19s.27.51.78.53a.8.8,0,0,0,.74-.72m1.06.2a.8.8,0,0,0,.48.92c.48.15,1-.08.9-.24s-1.19-.86-1.38-.68" transform="translate(-378.81 -256.33)" style="fill: #ffffff"/>
    <path d="M388.92,258.14a9.61,9.61,0,0,0,2.88.71c1.41.08,2.22-.21,2.16.84s-1.19,6.34-4,6.11c0,0-1.59,0-2.09-3.16A20.25,20.25,0,0,1,388,259c.26-1.37.93-.84.93-.84m0,5.3c0,.05-.09.69.19.72s.46-.4,1.16-.26.67.82,1,.73a.86.86,0,0,0,.37-.92c-.11-.2-.74-.25-1.23-.36s-.86-.26-1-.27A.38.38,0,0,0,388.93,263.44Zm1.38-3.41c-.12-.24-1.39.07-1.53.18s.28.51.78.53a.8.8,0,0,0,.75-.71m1.05.2a.83.83,0,0,0,.48.92c.49.14,1-.09.91-.24s-1.2-.87-1.39-.68" transform="translate(-378.81 -256.33)" style="fill: #ffffff"/>
    <path d="M385.4,256.58a14.1,14.1,0,0,1-3.77,1.91c-1.93.56-3.15.42-2.74,1.85s3.59,8.42,7.46,7.18c0,0,2.2-.51,1.92-5a27.88,27.88,0,0,0-1.33-5c-.78-1.81-1.54-.86-1.54-.86m-.34,7.8a3.59,3.59,0,0,0,1.41-1.13c.25-.38.45-.78.59-.94s.15-.09.18.06c.09.39.42,3.31-1.28,4s-3.77-1.92-3.77-2.09.76.26,1.51.3a3.43,3.43,0,0,0,1.36-.22m-.29-3.35a1.17,1.17,0,0,1,.21-1.47c.57-.44,1.38-.38,1.32-.13s-1.19,1.75-1.53,1.6m-1.58.57c-.1.37-1.95.34-2.18.22s.23-.79.93-1a1.14,1.14,0,0,1,1.25.76" transform="translate(-378.81 -256.33)" style="fill: #ffffff"/>
    <path d="M385.55,256.62a14.1,14.1,0,0,1-3.77,1.91c-1.93.56-3.14.41-2.74,1.85s3.59,8.41,7.47,7.17c0,0,2.19-.51,1.92-5.05a28.56,28.56,0,0,0-1.33-5c-.79-1.82-1.55-.86-1.55-.86m-.34,7.8a3.77,3.77,0,0,0,1.42-1.13c.24-.38.44-.79.58-.94s.15-.1.18,0c.09.39.43,3.31-1.27,4s-3.77-1.92-3.77-2.09.75.25,1.5.29A3.53,3.53,0,0,0,385.21,264.42Zm-.29-3.35a1.19,1.19,0,0,1,.21-1.47c.58-.44,1.38-.38,1.33-.13s-1.19,1.75-1.54,1.6m-1.58.56c-.1.37-1.95.35-2.18.23s.24-.79.93-1a1.12,1.12,0,0,1,1.25.75" transform="translate(-378.81 -256.33)" style="fill: #ffffff"/>
  </g>
</svg>
