<svg id="Layer_1" data-name="Layer 1" xmlns="http://www.w3.org/2000/svg" viewBox="0 0 11.36 11.35">
  <g>
    <path d="M391.82,259.28l-.85-.85a1.24,1.24,0,0,1-.92.38,1.28,1.28,0,0,1-1.29-1.29,1.25,1.25,0,0,1,.37-.92l-.84-.84a.87.87,0,0,0-1.22,0l-6.11,6.1a.82.82,0,0,0-.25.61.79.79,0,0,0,.25.61l.84.85a1.25,1.25,0,0,1,.92-.37,1.23,1.23,0,0,1,.91.37,1.3,1.3,0,0,1,0,1.84l.85.85a.85.85,0,0,0,.61.24.84.84,0,0,0,.61-.24l6.12-6.12a.85.85,0,0,0,.24-.61.84.84,0,0,0-.24-.61M390,260.62l-4.17,4.17a.44.44,0,0,1-.6,0l-2.44-2.44a.41.41,0,0,1-.13-.3.42.42,0,0,1,.13-.31l4.16-4.16a.41.41,0,0,1,.31-.12.41.41,0,0,1,.3.12L390,260a.41.41,0,0,1,0,.6" transform="translate(-380.71 -255.51)" style="fill: #ffffff"/>
    <rect x="383.66" y="259.68" width="5.45" height="3.01" transform="translate(-452.22 94.25) rotate(-45.01)" style="fill: #ffffff"/>
  </g>
</svg>
