<svg id="Layer_1" data-name="Layer 1" xmlns="http://www.w3.org/2000/svg" viewBox="0 0 10.67 10.96">
  <path d="M391,256.12a1.27,1.27,0,0,0-1.82.05l-1.77,1.94-5.62-1.72-.95,1a.29.29,0,0,0,0,.39l4.56,2.57-1.79,2a1.7,1.7,0,0,0-.37.53l-1.91-.51-.59.61a.23.23,0,0,0,0,.29l2.1,1.09.19.19,1.06,2.15a.19.19,0,0,0,.28,0l.59-.61-.5-2a2,2,0,0,0,.51-.37l1.94-1.84,2.53,4.7a.26.26,0,0,0,.38,0l.94-1-1.69-5.8,1.88-1.8a1.34,1.34,0,0,0,.05-1.87Zm0,0" transform="translate(-380.63 -255.76)" style="fill: #ffffff"/>
</svg>
