<svg id="Layer_1" data-name="Layer 1" xmlns="http://www.w3.org/2000/svg" viewBox="0 0 14.31 12.09">
  <g>
    <path d="M384.35,256.85a1,1,0,0,0-.38-1.92,1,1,0,0,0-.77,1.14,1,1,0,0,0,1.15.78Zm0,0" transform="translate(-379.78 -254.91)"/>
    <path d="M393.27,263.05c-.15-.29-.4-.29-.56,0l-.19.36a1.05,1.05,0,0,1-.87.53h-.45a1.71,1.71,0,0,0-1,.41l-.87.81a.87.87,0,0,1-.39.21.22.22,0,0,0,0-.14l-1.38-9h0a.23.23,0,0,0-.29-.14.24.24,0,0,0-.14.26l.42,2.75-1.38-.07-.72-1.53a.8.8,0,0,0-.73-.44l-.9.08a.47.47,0,0,0-.22.07,1.06,1.06,0,0,0-.6.14v0a.74.74,0,0,0,.13-.56.73.73,0,1,0-1.43.27.72.72,0,0,0,.22.4.34.34,0,0,0-.07.27A3.75,3.75,0,0,1,382,259c-.08.47-.42,1.63.2,1.65a3.62,3.62,0,0,0,1-.15l-.21,4.88a.59.59,0,0,0,0,.14.75.75,0,0,0,0,.16l-.31.26a1.15,1.15,0,0,1-1,.17l-.82-.3a.71.71,0,0,0-.84.32l-.19.37a.33.33,0,0,0,.32.53h13a.75.75,0,0,0,.71-.59l.22-1.06a1.92,1.92,0,0,0-.17-1.11Zm-10.78-5.6a.52.52,0,0,1-.45-.13v0h0l-.06-.08a.46.46,0,0,1,0-.36.49.49,0,0,1,.22-.29.45.45,0,0,1,.3-.05.38.38,0,0,1,.24.17.28.28,0,0,1,0,.25.33.33,0,0,1-.15.2.28.28,0,0,1-.38-.09.23.23,0,0,1,.09-.31.19.19,0,0,1,.27.06.17.17,0,0,1-.06.23h0a.21.21,0,0,0,.1-.13.17.17,0,0,0,0-.14.21.21,0,0,0-.16-.11.24.24,0,0,0-.2,0,.41.41,0,0,0-.17.22.32.32,0,0,0,0,.25.38.38,0,0,0,.27.19.42.42,0,0,0,.34-.06.48.48,0,0,0,.2-.2.51.51,0,0,1-.39.37Zm.58.18v0a1.19,1.19,0,0,1,.29-.12.61.61,0,0,0-.07.24l0,1Zm1.82,7.75-.51-.18h0l.16-3.73,1.84,3.54a.65.65,0,0,0,.19.24l-.5.16a2.2,2.2,0,0,1-1.14,0Zm3-.17a1.64,1.64,0,0,0-.35-.08.71.71,0,0,0,.13-.55c0-.05,0-.1,0-.15l-2.31-4.52,0-.58.19.42a.45.45,0,0,0,.41.24l1.64.09h.14l.81,5.27v0l0,.06a.85.85,0,0,1-.23,0Zm0,0" transform="translate(-379.78 -254.91)"/>
  </g>
</svg>
