<svg id="Layer_1" data-name="Layer 1" xmlns="http://www.w3.org/2000/svg" viewBox="0 0 12 12.38">
  <path d="M392.31,258.64s0-1.1-.23-1.37l.17-.83-.47.49.06-.58-.43.56s-1.2-.88-2.43,1.2a5.28,5.28,0,0,1-.33.51.4.4,0,0,1-.11-.12.77.77,0,0,1,0-.56,5.08,5.08,0,0,0,.18-1.08.85.85,0,0,0,.8-.44l.26.18a1.32,1.32,0,0,0,.1-.89,1,1,0,0,0-1.34-.64c-.71.34-.27.75-.27.75a6.07,6.07,0,0,0-1.52,0A8.38,8.38,0,0,0,384.6,257a1,1,0,0,0-.48,1.12c.11.45,1.6,1.62,1.6,1.62v0a2.71,2.71,0,0,1-.73-.17s-1.71-.27-2.3.59c0,0-1.82-.51-1.88,1.86,0,0,.29,1.4-.43,1.67,0,0,1,.39,1.39-2,0,0,0-1,.66-1.12a2.71,2.71,0,0,0,0,2,1.12,1.12,0,0,1-.33,1.12s-.39,0-.47,1.12c0,0-.61,1.06-.37,1.53,0,0,.16.26.08.37s-.38.18.09.51c0,0,.56.24.44-.21a2.74,2.74,0,0,1,.12-2,15.06,15.06,0,0,0,1.54-1.87s.55,0,.65.77c0,0-.23,1,.26,1.49,0,0,.33,1.41.72,1.41,0,0,0,.45.55.45,0,0,.57,0,.26-.35,0,0-1.18-.18-1.1-2.36a9.69,9.69,0,0,0,.33-1.74s2.28.78,3.12.27a11.45,11.45,0,0,1-.25,2.83s-.3.59.13.72c0,0-.31.69.14.69,0,0,.59.14.55-.22a1.51,1.51,0,0,0-.33-.51,1.64,1.64,0,0,1,.12-1.33,9.48,9.48,0,0,0,.54-2,5.46,5.46,0,0,1,1.34.9,1.4,1.4,0,0,1-.2,1.26s-.27.24-.25.41c0,0-.49-.21-.51.47,0,0,.06.69.45,0a3,3,0,0,0,1.1-1.65,1,1,0,0,0-.36-1.06,4.18,4.18,0,0,0-.68-.84,1.91,1.91,0,0,0,.33-1.76.62.62,0,0,1-.1-.77,5.08,5.08,0,0,0,.39-.95l.49-.05a.93.93,0,0,0,.22.14s0,.66.55.64c0,0,.59,0,.31-1.39Zm-4.77-.89.29,0s0,.64.09.74-.36-.08-.4-.2a2.45,2.45,0,0,1,0-.5Zm-.18,2a6,6,0,0,0-.87-1.22c-.39-.52.35-.56.35-.56l.06.71c.14.4.83.51,1.23.53a2.61,2.61,0,0,1-.77.54Zm3.48-1.1a1.43,1.43,0,0,0,.21.4l-.27,0a1.59,1.59,0,0,0,.06-.43Zm0,0" transform="translate(-380.39 -255)"/>
</svg>
