<svg id="Layer_1" data-name="Layer 1" xmlns="http://www.w3.org/2000/svg" viewBox="0 0 10.11 15.41">
  <g>
    <path d="M382.82,258.38a1.23,1.23,0,0,1,1.18.87,1.25,1.25,0,0,1,1.19-.87,1.23,1.23,0,0,1,1.18.87,3.1,3.1,0,0,0,3.56-.87,1.25,1.25,0,0,1,1.21.95,4,4,0,0,0,.09-.79,4.87,4.87,0,1,0-9.74,0,4,4,0,0,0,.1.78,1.29,1.29,0,0,1,1.23-.94Z" transform="translate(-381.33 -253.48)" style="fill: #ffffff"/>
    <polygon points="2.61 6.14 2.61 6.14 2.61 6.14 2.61 6.14 2.61 6.14" style="fill: #ffffff"/>
    <polygon points="7.24 6.14 7.24 6.14 7.24 6.14 7.24 6.14 7.24 6.14" style="fill: #ffffff"/>
    <path d="M386.39,253.73a4.83,4.83,0,0,0-4.82,4.81c0,2.44,4.11,8.91,4.82,10,.7-1.09,4.81-7.56,4.81-10a4.82,4.82,0,0,0-4.81-4.81Zm0,15.16a.1.1,0,0,1-.1-.06c-.21-.3-5-7.57-5-10.29a5.06,5.06,0,1,1,10.11,0c0,2.73-4.75,10-5,10.29a.1.1,0,0,1-.09.06Z" transform="translate(-381.33 -253.48)" style="fill: #ffffff"/>
    <path d="M386.32,268.78h0a.12.12,0,0,1-.12-.12l.06-9a.12.12,0,0,1,.13-.12h0a.12.12,0,0,1,.12.12l-.06,9a.12.12,0,0,1-.13.12Z" transform="translate(-381.33 -253.48)" style="fill: #ffffff"/>
    <path d="M386.35,268.83a.12.12,0,0,1-.12-.1l-2.35-9.07a.14.14,0,0,1,.09-.15.12.12,0,0,1,.14.09l2.35,9.07a.13.13,0,0,1-.09.15Z" transform="translate(-381.33 -253.48)" style="fill: #ffffff"/>
    <path d="M386.45,268.75h0a.13.13,0,0,1-.09-.15l2.33-9a.1.1,0,0,1,.14-.08.12.12,0,0,1,.09.14l-2.32,9a.13.13,0,0,1-.11.09Z" transform="translate(-381.33 -253.48)" style="fill: #ffffff"/>
    <path d="M386.39,259.75a.12.12,0,0,1-.13-.13,1.06,1.06,0,0,0-2.12,0,.12.12,0,0,1-.12.13.12.12,0,0,1-.13-.13,1.31,1.31,0,0,1,2.62,0,.12.12,0,0,1-.12.13Z" transform="translate(-381.33 -253.48)" style="fill: #ffffff"/>
    <path d="M388.76,259.75a.12.12,0,0,1-.13-.13,1.06,1.06,0,0,0-2.12,0,.12.12,0,0,1-.12.13.12.12,0,0,1-.13-.13,1.31,1.31,0,0,1,2.62,0,.12.12,0,0,1-.12.13Z" transform="translate(-381.33 -253.48)" style="fill: #ffffff"/>
    <path d="M391.14,259.75a.12.12,0,0,1-.13-.13,1.06,1.06,0,0,0-1.06-1.06,1,1,0,0,0-1.06,1.05.11.11,0,0,1-.12.12.11.11,0,0,1-.12-.12,1.29,1.29,0,0,1,1.3-1.29,1.31,1.31,0,0,1,1.31,1.3.12.12,0,0,1-.12.13Z" transform="translate(-381.33 -253.48)" style="fill: #ffffff"/>
    <path d="M384,259.75a.12.12,0,0,1-.12-.13,1.06,1.06,0,0,0-2.12,0,.12.12,0,0,1-.12.13.12.12,0,0,1-.13-.13,1.31,1.31,0,0,1,2.62,0,.12.12,0,0,1-.13.13Z" transform="translate(-381.33 -253.48)" style="fill: #ffffff"/>
    <path d="M382,258.81c-.08,0-.12-.05-.12-.13v-.14a4.46,4.46,0,0,1,4.45-4.47l.06,0h0a4.41,4.41,0,0,1,2.19.59.12.12,0,0,1,.05.17.14.14,0,0,1-.17.05,4.09,4.09,0,0,0-2.07-.55.09.09,0,0,1-.07,0h0a4.23,4.23,0,0,0-4.21,4.23v.15a.14.14,0,0,1-.12.11Zm8.7,0a.12.12,0,0,1-.12-.13v-.14a4.23,4.23,0,0,0-.89-2.62.11.11,0,0,1,0-.17.13.13,0,0,1,.17,0,4.51,4.51,0,0,1,.95,2.77v.15a.17.17,0,0,1-.14.11Z" transform="translate(-381.33 -253.48)" style="fill: #fff"/>
  </g>
</svg>
