<svg id="Layer_1" data-name="Layer 1" xmlns="http://www.w3.org/2000/svg" viewBox="0 0 8.71 12.31">
  <path d="M388.9,264.48l0-.05s0,0,0,0,0,0,0,0a2.76,2.76,0,0,0,.71-.4,1.37,1.37,0,0,0,.44-.73v-.08l0-.17v-6.54a1,1,0,0,0-.13-.5,1.89,1.89,0,0,0-.34-.46,2.21,2.21,0,0,0-.47-.33.93.93,0,0,0-.47-.14H384.1a1.13,1.13,0,0,0-.47.12,2,2,0,0,0-.47.33,1.67,1.67,0,0,0-.34.45,1,1,0,0,0-.14.48v6.64a.85.85,0,0,0,.08.35,1.63,1.63,0,0,0,.19.34,1.93,1.93,0,0,0,.27.3,1.15,1.15,0,0,0,.3.22l.23.08.16.09L382,267.34h1.1l1.37-2h3.77l1.37,2h1.1Zm-3.6-8.88a.24.24,0,0,1,.06-.15.21.21,0,0,1,.14-.07h1.76l.09.05a.14.14,0,0,1,.08.1v.7a.18.18,0,0,1-.06.13.21.21,0,0,1-.11.05H385.5l-.08-.05a.27.27,0,0,1-.07-.08.14.14,0,0,1-.05-.1Zm-1.76,1.91a.91.91,0,0,1,0-.27,1.92,1.92,0,0,1,.17-.26.74.74,0,0,1,.21-.17.57.57,0,0,1,.28-.08h4.26a.6.6,0,0,1,.24.08,1.08,1.08,0,0,1,.22.15.62.62,0,0,1,.15.2.49.49,0,0,1,.07.25v1.48a.55.55,0,0,1-.07.24,1.68,1.68,0,0,1-.18.21.79.79,0,0,1-.24.15.47.47,0,0,1-.24.05H384.2s-.06,0-.07,0a.57.57,0,0,1-.42-.24.73.73,0,0,1-.17-.46Zm1.26,5.79a.69.69,0,0,1-.53.23.65.65,0,0,1-.51-.23.81.81,0,0,1-.2-.55.73.73,0,0,1,.71-.73.71.71,0,0,1,.53.21.67.67,0,0,1,.21.52.77.77,0,0,1-.21.55m3.13,0a.77.77,0,0,1-.21-.55.68.68,0,0,1,.22-.52.73.73,0,0,1,.52-.21.67.67,0,0,1,.51.22.72.72,0,0,1,.19.51.8.8,0,0,1-.19.55.65.65,0,0,1-.51.23.69.69,0,0,1-.53-.23" transform="translate(-382.02 -255.03)" style="fill: #ffffff"/>
</svg>
