<svg id="Layer_1" data-name="Layer 1" xmlns="http://www.w3.org/2000/svg" viewBox="0 0 10.72 12.82">
  <path d="M391.74,264l-.4-2.16a.26.26,0,0,0-.15-.2.25.25,0,0,0-.25,0l-1.84,1.13a.28.28,0,0,0-.12.32.27.27,0,0,0,.28.2l.71-.05a3.74,3.74,0,0,1-2.9,1.43v-6.19h.59a.61.61,0,0,0,.34.12.59.59,0,0,0,0-1.17.6.6,0,0,0-.34.11h-.59v-.85a1.28,1.28,0,0,0,.56-1.06,1.25,1.25,0,1,0-2.49,0,1.28,1.28,0,0,0,.56,1.06v.85h-.59a.6.6,0,0,0-.34-.11.59.59,0,0,0,0,1.17.61.61,0,0,0,.34-.12h.59v6.19a3.74,3.74,0,0,1-2.9-1.43l.71.05a.27.27,0,0,0,.28-.2.28.28,0,0,0-.12-.32l-1.84-1.13a.25.25,0,0,0-.25,0,.26.26,0,0,0-.15.2L381,264a.28.28,0,0,0,.16.31.26.26,0,0,0,.32-.08l.43-.57a5.9,5.9,0,0,0,3.68,2.86l.57.59a.27.27,0,0,0,.39,0l.57-.59a5.9,5.9,0,0,0,3.68-2.86l.43.57a.28.28,0,0,0,.33.08.29.29,0,0,0,.15-.31m-5.35-8.69a.33.33,0,0,1,.32.34.33.33,0,1,1-.65,0,.33.33,0,0,1,.33-.34" transform="translate(-381.02 -254.35)" style="fill: #ffffff"/>
</svg>
