<svg id="Layer_1" data-name="Layer 1" xmlns="http://www.w3.org/2000/svg" viewBox="0 0 12 12.06">
  <g>
    <path d="M386.28,256.25a1.09,1.09,0,1,1-1.09-1.09,1.09,1.09,0,0,1,1.09,1.09Zm0,0" transform="translate(-380.39 -255.16)"/>
    <path d="M383.18,263.91a1.66,1.66,0,0,0,0,3.31,1.66,1.66,0,1,0,0-3.31Zm0,2.12a.47.47,0,1,1,.47-.47.47.47,0,0,1-.47.47Zm0,0" transform="translate(-380.39 -255.16)"/>
    <path d="M392.31,263.93a2.45,2.45,0,0,0-1.83-.82h-.08a3,3,0,0,0-1.61-1.76l-.1-.3H389a.7.7,0,0,0,.64.41h.33a.17.17,0,0,0,.17-.17v-1a.18.18,0,0,0-.17-.17h-.33a.7.7,0,0,0-.52.23.94.94,0,0,0-.12.18h-.44a.5.5,0,0,0,.07-.27.51.51,0,0,0-.52-.47l-1.71.09-.17-.22v-.42l0-.48a.74.74,0,0,0-.67-.8l-1.31-.11a.74.74,0,0,0-.8.67l-.22,2.5a1.3,1.3,0,0,0,.44,1.08.27.27,0,0,0,.07.08h-2.08a.38.38,0,0,0-.37.38v1a2.82,2.82,0,0,0-.91,1.79.28.28,0,0,0,.07.21.27.27,0,0,0,.2.09h.52a2,2,0,0,1,4,0h0a.26.26,0,0,0,.26.26h2.77c.24,0,.36-.11.36-.3a1.87,1.87,0,0,1,1.9-1.86,1.93,1.93,0,0,1,1.42.64.27.27,0,0,0,.39,0,.28.28,0,0,0,0-.4ZM386,265.27a2.81,2.81,0,0,0-.26-.91h0a2.85,2.85,0,0,0-.74-1v-1l1.24.11,0,2.48a.6.6,0,0,0,.06.27Zm2.07,0h-.73a1,1,0,0,0,.06-.25l0-3a.59.59,0,0,0-.54-.6l-.91,0a.66.66,0,0,1-.64-.41l.23-.17.17-.12a.53.53,0,0,0,.42.2l1.87-.1.16.48.78,2.42a2.41,2.41,0,0,0-.9,1.62Zm0,0" transform="translate(-380.39 -255.16)"/>
    <path d="M390.48,263.91a1.66,1.66,0,1,0,1.65,1.65,1.65,1.65,0,0,0-1.65-1.65Zm0,2.12a.47.47,0,1,1,.47-.47.47.47,0,0,1-.47.47Zm0,0" transform="translate(-380.39 -255.16)"/>
  </g>
</svg>
