<svg id="Layer_1" data-name="Layer 1" xmlns="http://www.w3.org/2000/svg" xmlns:xlink="http://www.w3.org/1999/xlink" viewBox="0 0 9.55 11.12">
  <defs>
    <clipPath id="clip-path" transform="translate(-381.61 -255.63)">
      <rect x="381.61" y="255.63" width="9.55" height="11.12" style="fill: none"/>
    </clipPath>
  </defs>
  <g style="clip-path: url(#clip-path)">
    <path d="M388.56,261a.87.87,0,0,1-.87-.86.82.82,0,0,1,.52-.8v.8a.35.35,0,0,0,.35.34.34.34,0,0,0,.34-.34v-.8a.83.83,0,0,1,.53.8.87.87,0,0,1-.87.86Zm-4.35,0a.87.87,0,0,1-.86-.86.82.82,0,0,1,.52-.8v.8a.35.35,0,0,0,.69,0v-.8a.82.82,0,0,1,.52.8.87.87,0,0,1-.87.86Zm2.18-4.69a1.83,1.83,0,0,1,1.82,1.83v.43h-3.65v-.43a1.83,1.83,0,0,1,1.83-1.83Zm4.16,2.34a.09.09,0,0,0-.08-.08H388.9v-.43a2.52,2.52,0,1,0-5,0v.43H382.3a.09.09,0,0,0-.08.08l-.61,8a.14.14,0,0,0,0,.07.09.09,0,0,0,.07,0h9.38l.06,0a.08.08,0,0,0,0-.07l-.61-8Z" transform="translate(-381.61 -255.63)" style="fill: #ffffff"/>
  </g>
</svg>
