<svg id="Layer_1" data-name="Layer 1" xmlns="http://www.w3.org/2000/svg" viewBox="0 0 9.17 11.72">
  <g>
    <path d="M388.38,260.33v-2.87l.81.06v-1.37l-2.29.19v1h.24v1.91h-3.32a1.19,1.19,0,0,0-1.05,1.16v6.66l3,0v-6.39H388s.34,0,.34-.31" transform="translate(-382.6 -255.33)" style="fill: #ffffff"/>
    <path d="M387.23,264.08a.72.72,0,0,0-.66.78V267l2.21,0v-1.88h2.09a1,1,0,0,0,.9-1.05Z" transform="translate(-382.6 -255.33)" style="fill: #ffffff"/>
    <path d="M390.17,256s-.78,0-.78,0v1.56h.78Z" transform="translate(-382.6 -255.33)" style="fill: #ffffff"/>
    <rect x="3.6" y="1.12" width="0.49" height="0.74" style="fill: #ffffff"/>
    <path d="M384.21,258.64A1.66,1.66,0,1,0,382.6,257a1.63,1.63,0,0,0,1.61,1.66" transform="translate(-382.6 -255.33)" style="fill: #ffffff"/>
    <path d="M387.65,263.69a1.31,1.31,0,1,0-1.27-1.3,1.28,1.28,0,0,0,1.27,1.3" transform="translate(-382.6 -255.33)" style="fill: #ffffff"/>
  </g>
</svg>
