<svg id="Layer_1" data-name="Layer 1" xmlns="http://www.w3.org/2000/svg" viewBox="0 0 14.62 7.71">
  <g>
    <path d="M383.64,263.81h0a12.26,12.26,0,0,0,2.1.44l-.21-.07a10.16,10.16,0,0,0-2.18-.44l.29.07Z" transform="translate(-379.34 -257.27)" style="fill: #ffffff"/>
    <path d="M386.47,264.5a10.85,10.85,0,0,1-2.89-.48,4.82,4.82,0,0,0-1.31-.18,4.65,4.65,0,0,0-2.85,1,5.85,5.85,0,0,1,2.38-.5,7.08,7.08,0,0,1,2.09.34A6.42,6.42,0,0,0,386,265a5.2,5.2,0,0,0,1.84-.32,10,10,0,0,1-1.1-.16h-.23" transform="translate(-379.34 -257.27)" style="fill: #ffffff"/>
    <path d="M381.16,262.83a7,7,0,0,1,2.19-.35,7.34,7.34,0,0,1,1.92.26h0a15,15,0,0,0,4,.68,7.38,7.38,0,0,0,2.19-.32l2.52-5s-5.29-.54-14.54,4.11v1.36h.14a6.56,6.56,0,0,1,1.6-.77m6-2.77a.39.39,0,0,1,.39.4.4.4,0,0,1-.39.4.39.39,0,0,1-.39-.4.39.39,0,0,1,.39-.4m-1.24.4a.4.4,0,1,1-.39.4.39.39,0,0,1,.39-.4m-1.19.4a.4.4,0,0,1,0,.8.4.4,0,0,1,0-.8" transform="translate(-379.34 -257.27)" style="fill: #ffffff"/>
    <path d="M385.19,263a7.16,7.16,0,0,0-1.84-.25,6.54,6.54,0,0,0-4,1.34,8.26,8.26,0,0,1,3.34-.71,9.93,9.93,0,0,1,2.94.48,8.74,8.74,0,0,0,2.9.49,6.24,6.24,0,0,0,4.5-1.67,7.18,7.18,0,0,1-3.77,1,14.77,14.77,0,0,1-4.06-.69" transform="translate(-379.34 -257.27)" style="fill: #ffffff"/>
    <path d="M382.49,258.07l.12.4a10.06,10.06,0,0,1,1.5-.5.25.25,0,0,1,.3.19.26.26,0,0,1-.19.3,8.71,8.71,0,0,0-1.47.5l.35,1.17a26,26,0,0,1,6.64-2l-3.46-.79a9.84,9.84,0,0,0-4.87.76,2.12,2.12,0,0,0,1.08,0" transform="translate(-379.34 -257.27)" style="fill: #ffffff"/>
  </g>
</svg>
