<svg id="Layer_1" data-name="Layer 1" xmlns="http://www.w3.org/2000/svg" viewBox="0 0 13.44 10.27">
  <g>
    <path d="M378.56,259.75a.46.46,0,0,0,.07.63l1.95,1.58.09-.18a1.71,1.71,0,0,1,.49-.51l-2-1.6a.43.43,0,0,0-.62.08" transform="translate(-378.46 -255.31)" style="fill: #ffffff"/>
    <path d="M387.85,255.31a1.7,1.7,0,1,1-1.66,1.7,1.68,1.68,0,0,1,1.66-1.7" transform="translate(-378.46 -255.31)" style="fill: #ffffff"/>
    <path d="M381.35,263.06l2.82,1.8a.8.8,0,0,0,1.22-.69c0-.32,0-2.61,0-3a.16.16,0,0,1,.17-.17.16.16,0,0,1,.16.17c0,1.72,0,2.9,0,4.4H390v-4.4a.16.16,0,0,1,.32,0l0,4.4h1.6l0-4.41a1.92,1.92,0,0,0-1.89-1.93h-.8c-.78,2.09-.5,1.33-1,2.64l.21-1.07a.37.37,0,0,0,0-.23l-.32-.61.29-.54a.13.13,0,0,0,0-.12.14.14,0,0,0-.11-.06h-.79a.13.13,0,0,0-.1.06.13.13,0,0,0,0,.12l.29.54-.33.6a.39.39,0,0,0,0,.24l.24,1.07c-.14-.37-.93-2.38-1-2.64h-.79a1.92,1.92,0,0,0-1.89,1.93c0,.88,0,.14,0,1.53l-1.61-1a.79.79,0,0,0-1.1.26.83.83,0,0,0,.26,1.13" transform="translate(-378.46 -255.31)" style="fill: #ffffff"/>
  </g>
</svg>
