<svg id="Layer_1" data-name="Layer 1" xmlns="http://www.w3.org/2000/svg" viewBox="0 0 8.65 13.86">
  <path d="M389.22,265.19l-.3,0a3.88,3.88,0,0,1-.58-.13,1.55,1.55,0,0,1-.53-1.31,8.54,8.54,0,0,1,.37-2.39l0-.08.15-.47a6.17,6.17,0,0,0,.2-.65h0a15.79,15.79,0,0,0,.33-3.1.57.57,0,0,0-.22-.39l0,0-.3-.34-.26-.28c-.15-.16-.32-.31-.48-.46a5,5,0,0,1-.56-.57,2,2,0,0,1-.44-1.3.22.22,0,0,0,0-.16.39.39,0,0,0-.3,0,.22.22,0,0,0,0,.16,2,2,0,0,1-.44,1.3,5.11,5.11,0,0,1-.57.57c-.16.15-.33.3-.48.46l-.25.28c-.12.13-.23.25-.3.34l0,0a.61.61,0,0,0-.22.39,15.79,15.79,0,0,0,.33,3.1h0a6.17,6.17,0,0,0,.19.65l.16.47a.13.13,0,0,0,0,.08,8.64,8.64,0,0,1,.36,2.39,1.53,1.53,0,0,1-.53,1.31,3.88,3.88,0,0,1-.58.13l-.29,0c-1.36.14-1.5.82-1.5,1.1a1.08,1.08,0,0,0,.21.55,1.32,1.32,0,0,0,1.1.44h.29c.4,0,.81-.11,1.21-.18l.43-.06a9.22,9.22,0,0,1,1-.06h.1a9,9,0,0,1,1,.06l.43.06c.4.07.81.13,1.22.18h.29a1.31,1.31,0,0,0,1.09-.44,1,1,0,0,0,.22-.55c0-.28-.15-1-1.5-1.1Zm-2.11-5.51h-.06a.44.44,0,0,1-.15-.19,1.36,1.36,0,0,0,.52-1.11c0-.71-.07-1.28-1-1.28s-1,.57-1,1.28a1.36,1.36,0,0,0,.52,1.11.37.37,0,0,1-.15.19h-.06c-.2,0-.45-.44-.52-.61a5.19,5.19,0,0,1-.28-1.57v0a2.3,2.3,0,0,1,.26-.63,13.54,13.54,0,0,1,.77-1.15l.49-.64.49.64a13.54,13.54,0,0,1,.77,1.15,2.3,2.3,0,0,1,.26.63v0a5.19,5.19,0,0,1-.28,1.57c-.07.17-.32.61-.52.61Zm0,0" transform="translate(-382.07 -253.43)"/>
</svg>
