<svg id="Layer_1" data-name="Layer 1" xmlns="http://www.w3.org/2000/svg" viewBox="0 0 15.91 13.52">
  <g>
    <path d="M386,257.32l0,0a0,0,0,0,0,0,0s0,0,0,0l0,0a.15.15,0,0,1,0-.07v-.05a.05.05,0,0,0,0,0l0-.05s0,0,0-.06l0,0h0s0,0,0,0a.07.07,0,0,0,0,0V257l0,.05,0,0,0,0,0,0v0h0a.08.08,0,0,0,0,0l0,0a13736142444.82,13736142444.82,0,0,0,0,.06h.07l0,0h0l0,0,0,0Zm.47,2.89-.07.09,0,.05s0,0,0,0l0,0,0,0,0,0,0,0,0,0,0,0,0,0H386l0,0a0,0,0,0,1,0,0l0,0,.07-.07a.18.18,0,0,0,.06-.09.4.4,0,0,0,0-.13s0-.1,0-.14a.41.41,0,0,1,0-.1s0,0,0-.05l0-.09s0,0,0,0,0,0,0,0l0,0s0,0,0,0,0,0,0,0a.05.05,0,0,0,0,0l0,0s0,0,0,0a.64.64,0,0,0,0-.09V259a.54.54,0,0,0,0-.15.28.28,0,0,0,0-.11s0,0,0-.07,0,0,0,0a0,0,0,0,1,0,0s0,0,0,.06,0,0,0,0h0l0,0,.05,0,.06.06.12.16a1.1,1.1,0,0,1,.14.21c0,.08.09.17.13.23l.06.13.06.14a.73.73,0,0,1,0,.16s0,0,0,0H387a.21.21,0,0,0-.08.06s0,0,0,.07l-.06,0-.07,0,0,0-.06.06-.07,0a.1.1,0,0,0-.06,0Zm-.64-2.46.05,0s0,0,0,.06,0,0,0,.06,0,.05,0,.07,0,0,0,0v0s0,0,0,0h0s0,0,0-.05a.34.34,0,0,1,0-.1.19.19,0,0,1,0-.07s0,0,0-.06,0,0,0-.06l0,0a0,0,0,0,0,0,0,.05.05,0,0,1,0,0,.13.13,0,0,1,0-.06.05.05,0,0,0,0,0s0,0,0,0l0,.05a.16.16,0,0,1-.05.06s0,0,0,0v0l0,0Zm.34-.09,0,0,0,0,0,0,0,0h0l.05,0a.44.44,0,0,1,.08.07.4.4,0,0,1,0,.13.75.75,0,0,0,0,.11.05.05,0,0,0,0,0l0,0,0,.05v.07l0,0s0,0,.05,0a.14.14,0,0,1,0,.06.09.09,0,0,1,0,.05l0,0,.07.07.16.17.2.21c.06.08.12.14.18.21a1.53,1.53,0,0,1,.16.22l.13.19.08.12a.27.27,0,0,1,0,.13.35.35,0,0,1,0,.13,1,1,0,0,1-.09.17.83.83,0,0,1-.11.15l-.09.09a.06.06,0,0,0,0,.05s0,0,0,.07l0,.15a.22.22,0,0,1,0,.06,0,0,0,0,1,0,0l0,0a1.06,1.06,0,0,0-.14.15l-.16.18-.16.15,0,0s0,0,0,0v.06a.11.11,0,0,1,0,.08v.07a.18.18,0,0,0,0,.06l0,0a.43.43,0,0,1,0,.05v.08s0,.06,0,.07v0l0,0,0,0a.08.08,0,0,0,0,0,.05.05,0,0,0,0,0l0,.05.08.06.06.07.06,0a.11.11,0,0,1,0,.05.13.13,0,0,1,0,.06l0,.05,0,0,0,0,0,.05.1.1,0,0h-.06l-.06,0s0,0,0,0,0,.05,0,.07l.06.06.08.08.12.06.1.05.16.07.26.14a1,1,0,0,1,.21.16.58.58,0,0,1,.14.12c0,.05.06.1.09.13a.42.42,0,0,0,.12.1l.2.14a.33.33,0,0,1,.1.11l.08.1,0,0,0,0,.06,0,.1.07.06.08.08.08.09.11a.61.61,0,0,1,.07.1l.1.12s0,.08.06.11l.09.09.17.19.18.22a2.62,2.62,0,0,1,.17.21l.11.15.12.16.16.19.16.17.15.12.14.11.09.06s0,0,0,0,0,0,0,0,0,0,0,0l.07,0h.07l.08,0,.08.05.08,0,.05,0h.5l.05,0,.08,0,.06,0,.05,0,.07,0h.06l.06,0h.05l.05,0a.41.41,0,0,1,0,.09.43.43,0,0,1,0,.11.41.41,0,0,1,0,.11.43.43,0,0,1,0,.07,0,0,0,0,0,0,0v0l0,0,0,0a.06.06,0,0,1,0,0l0,.05a.09.09,0,0,1-.06,0l0,0v0s0,0,0,0l-.07,0,0,0s0,0,0,0a.61.61,0,0,1,0,.06l-.09,0,0,0s0,0,0,0l-.06,0-.08,0-.07,0-.08.08-.11.07s0,0-.07.05l-.15.06-.19.06-.13,0-.11,0H391s0,0,0,0v-.09l0-.1s0,0,0-.08l-.06-.14a1.3,1.3,0,0,0,0-.13s0-.07,0-.08h0l0,0h-.08s0,0,0,0l0,0s0,0,0,0h.1v0a.07.07,0,0,1,0-.05.07.07,0,0,0,0-.06l-.11-.12-.13-.14-.21-.19-.22-.18-.26-.21-.24-.16-.2-.16-.18-.2-.13-.16-.14-.19a.74.74,0,0,0-.11-.16.38.38,0,0,0-.12-.09l-.14-.09-.1-.07s0,0-.06,0h-.54l-.16,0h-.08s0,0,0,0,0-.09-.07-.15-.06-.11-.08-.16l-.07-.12,0-.06,0,0-.07,0-.23-.08a.19.19,0,0,0-.13,0l-.25.07a.88.88,0,0,1-.32,0,1,1,0,0,1-.24,0c-.05,0-.07,0-.07,0l0,.11a.19.19,0,0,1,0,.13,1.59,1.59,0,0,1-.07.2.42.42,0,0,0,0,.14.15.15,0,0,0,0,.07s0,.05,0,.06h-.1l-.12,0h-.17s0,0,0,0l-.05.12a.93.93,0,0,0-.06.18c0,.08,0,.22-.06.35s-.05.27-.07.4,0,.24-.06.34-.07.17-.1.27a2.9,2.9,0,0,0-.07.34,1.86,1.86,0,0,0,0,.28,1.28,1.28,0,0,0,0,.18.92.92,0,0,1,0,.16.64.64,0,0,0,0,.09l0,0a.1.1,0,0,1,0,.09,1.15,1.15,0,0,1,0,.19.66.66,0,0,1,0,.15.69.69,0,0,1-.05.13s0,.05,0,.06,0,0,0,.05a.13.13,0,0,1,0,.06.29.29,0,0,0,0,.1.15.15,0,0,0,0,.1.08.08,0,0,1,0,0s0,0,0,0a.1.1,0,0,1-.07.05.4.4,0,0,1-.17,0h-.24l-.17,0h-.08s-.05,0-.06,0,0-.06,0-.1-.06-.05-.08-.1a.5.5,0,0,1,0-.17.61.61,0,0,1,0-.15c0-.05.05-.09.06-.13s0-.06,0-.1,0-.06,0-.1a.22.22,0,0,1,0-.09s0,0,0,0a.16.16,0,0,0,0-.07l0-.08.06-.05s0,0,0-.1,0-.28,0-.45,0-.33,0-.48,0-.3,0-.42a2.22,2.22,0,0,1,0-.37,3.82,3.82,0,0,1,.08-.39c0-.11.05-.19.07-.29a2.33,2.33,0,0,1,.05-.28.92.92,0,0,0,0-.18s0-.05,0-.07a.17.17,0,0,1,0-.1.11.11,0,0,1,0-.08.22.22,0,0,1,.05-.08s0,0,.05-.14,0-.31,0-.46a1,1,0,0,0,0-.3.27.27,0,0,0-.08-.15.3.3,0,0,1,0-.1s0-.08,0-.12,0-.07,0-.09a.15.15,0,0,1,.06-.05h.08a.12.12,0,0,0,.06-.1.61.61,0,0,0,0-.13.11.11,0,0,1,0-.08.54.54,0,0,1,0-.1.57.57,0,0,0,0-.13l0-.12s0-.12,0-.19a1.05,1.05,0,0,0-.06-.24c0-.08-.06-.15-.08-.21s0-.09-.07-.18a2.71,2.71,0,0,1-.13-.3c0-.1,0-.17-.07-.22s-.06-.06-.1-.11a.52.52,0,0,1-.08-.24,1,1,0,0,1,0-.3.42.42,0,0,1,0-.18.57.57,0,0,1,.08-.13.81.81,0,0,0,.06-.13,1.19,1.19,0,0,1,.08-.22.55.55,0,0,1,.15-.13l.07,0h.06s0,0,0-.05.05-.15.09-.24a1.67,1.67,0,0,1,.18-.28c.07-.1.15-.19.2-.25a.61.61,0,0,0,.09-.13.67.67,0,0,0,.06-.15.32.32,0,0,0,0-.13.54.54,0,0,1,.05-.11l.05-.1,0-.09,0-.05,0,0,.06,0a.15.15,0,0,1,.06-.05l0,0,0,0a.11.11,0,0,1,0-.05s0,0,0,0a.08.08,0,0,1,0,0v-.06l0,0a.14.14,0,0,1,0-.06.15.15,0,0,0,0-.06.19.19,0,0,0,0-.09,1,1,0,0,0,0-.1.11.11,0,0,1,0,0s0,0,0,0l0,0a.19.19,0,0,1,0-.08.64.64,0,0,1,0-.07l0,0s0,0,0-.07a.36.36,0,0,0,0-.11s0-.07,0-.1a.25.25,0,0,1,0-.08s0-.05,0-.07,0,0,0,0l.1,0,.11,0s0,0,.05,0l0,.09.05.12,0,.07,0,0,.07.05a.25.25,0,0,1,0,.07s0,.06,0,.1a.3.3,0,0,1,0,.12.39.39,0,0,1,0,.09s0,0,0,0l0,0,0,0v0a.14.14,0,0,1,0,.06.14.14,0,0,0,0,.06s0,0,0,0a0,0,0,0,1,0,0v0a0,0,0,0,0,0,0l0,0v0s0,0,0,0l0,0Zm-.08,1,.07,0s0,0,0,0,0,0,0,0l0,0,0,0,0-.05,0,0,0-.05a0,0,0,0,1,0-.05.41.41,0,0,1,0-.08v-.08h0l-.05,0h0s0,0,0,0,0,.06,0,.08,0,.05,0,.08l-.05.08a.56.56,0,0,1,0,.08s0,0,0,0h.15l.1,0,.11.05Zm-.88,1.61a.26.26,0,0,0,.13,0s0,0-.07,0a.22.22,0,0,1-.1-.11.94.94,0,0,1,0-.25,1,1,0,0,0,0-.2s-.05.06-.08.14a1.17,1.17,0,0,0-.08.25.18.18,0,0,0,0,.13l.07.06.13,0Z" transform="translate(-378.23 -255.37)" style="fill: #ffffff;fill-rule: evenodd"/>
    <path d="M392.71,255.7l-5.49,1.08-1.37.28-1.27-.17-5.08-.68-1.27-.17h0v0h0l1,.13,4.32.57,2.05.27.26,0,.33-.07,2.38-.49,4.51-.89,1-.19v0h0l-1.42.28Z" transform="translate(-378.23 -255.37)" style="fill: #ffffff;fill-rule: evenodd"/>
  </g>
</svg>
