<svg xmlns="http://www.w3.org/2000/svg" width="25.079" height="25.077" viewBox="0 0 25.079 25.077">
  <g id="Group_262" data-name="Group 262" transform="translate(0 0)">
    <path id="Path_353" data-name="Path 353" d="M745.982,1422.355l-1.876-1.86a2.861,2.861,0,0,1-4.046-4.045l-1.859-1.863a1.849,1.849,0,0,0-1.351-.55,1.83,1.83,0,0,0-1.344.55l-13.5,13.483a1.917,1.917,0,0,0,0,2.694l1.859,1.873a2.862,2.862,0,0,1,4.046,4.05l1.876,1.877a1.928,1.928,0,0,0,2.7,0l13.5-13.515a1.921,1.921,0,0,0,0-2.694m-4.032,2.975-9.2,9.2a.975.975,0,0,1-1.337,0l-5.388-5.386a.936.936,0,0,1,0-1.343l9.2-9.2a.979.979,0,0,1,1.339,0l5.389,5.39a.929.929,0,0,1,0,1.337" transform="translate(-721.455 -1414.037)" fill="#706f6f"/>
    <rect id="Rectangle_136" data-name="Rectangle 136" width="12.04" height="6.653" transform="translate(5.929 14.443) rotate(-45.007)" fill="#706f6f"/>
  </g>
</svg>
