<svg xmlns="http://www.w3.org/2000/svg" width="33.793" height="25.425" viewBox="0 0 33.793 25.425">
  <g id="Group_258" data-name="Group 258" transform="translate(0)">
    <path id="Path_340" data-name="Path 340" d="M535.23,1432v4.01h2.009V1430H514.211v-8.219a1.02,1.02,0,0,0-.3-.708.953.953,0,0,0-1.42,0,1.029,1.029,0,0,0-.292.708v14.229h2.008V1432Z" transform="translate(-507.822 -1410.583)" fill="#706f6f"/>
    <path id="Path_341" data-name="Path 341" d="M516.312,1425.424a1.864,1.864,0,0,0,1.319-.538,1.771,1.771,0,0,0,0-2.59,1.846,1.846,0,0,0-1.319-.538,1.762,1.762,0,0,0-1.3.538,1.82,1.82,0,0,0,0,2.59,1.779,1.779,0,0,0,1.3.538" transform="translate(-506.772 -1410.119)" fill="#706f6f"/>
    <path id="Path_342" data-name="Path 342" d="M536.173,1427.707v-2.447a1.226,1.226,0,0,0-.414-.95,2.027,2.027,0,0,0-1.057-.465l-14.519-1.42h-.1a.9.9,0,0,0-.664.271.913.913,0,0,0-.271.658v2.837h-3.716c-.62,0-.929.253-.929.759s.309.757.929.757Z" transform="translate(-506.756 -1409.81)" fill="#706f6f"/>
    <path id="Path_343" data-name="Path 343" d="M542.314,1423.986a.692.692,0,0,1-.328-.083l-15.927-8.54-15.838,8.5a.688.688,0,1,1-.648-1.214l16.486-8.854,16.579,8.891a.69.69,0,0,1-.325,1.3" transform="translate(-509.207 -1413.799)" fill="#706f6f"/>
  </g>
</svg>
