<svg xmlns="http://www.w3.org/2000/svg" width="23.722" height="23.778" viewBox="0 0 23.722 23.778">
  <path id="Path_355" data-name="Path 355" d="M494.972,1415.829a2.869,2.869,0,0,0-4.052.114l-3.937,4.209-12.493-3.74-2.109,2.109a.591.591,0,0,0,0,.836l10.13,5.576-3.979,4.316a4.229,4.229,0,0,0-.825,1.156l-4.229-1.094-1.315,1.315a.446.446,0,0,0,0,.63l4.653,2.362.421.421,2.36,4.653a.447.447,0,0,0,.632,0l1.315-1.314-1.113-4.3a4.244,4.244,0,0,0,1.12-.807l4.332-3.994,5.614,10.2a.593.593,0,0,0,.838,0l2.107-2.109-3.764-12.578,4.18-3.909a2.868,2.868,0,0,0,.114-4.051Zm0,0" transform="translate(-472.033 -1415.045)" fill="#706f6f"/>
</svg>
