<svg id="Group_2984" data-name="Group 2984" xmlns="http://www.w3.org/2000/svg" xmlns:xlink="http://www.w3.org/1999/xlink" width="18" height="18.009" viewBox="0 0 18 18.009">
  <defs>
    <clipPath id="clip-path">
      <rect id="Rectangle_1131" data-name="Rectangle 1131" width="18" height="18.009" fill="#00c3c3"/>
    </clipPath>
  </defs>
  <g id="Group_2981" data-name="Group 2981" clip-path="url(#clip-path)">
    <path id="Path_4235" data-name="Path 4235" d="M9.524,18.008H8.469c-.3-.038-.6-.065-.9-.115A8.765,8.765,0,0,1,2.7,15.422,8.8,8.8,0,0,1,.044,8.1a8.591,8.591,0,0,1,2.2-5.032A8.815,8.815,0,0,1,8.618.011a8.561,8.561,0,0,1,4.966,1.255A8.875,8.875,0,0,1,17.86,7.454c.063.338.094.681.14,1.022V9.531c-.014.127-.029.253-.043.38a8.9,8.9,0,0,1-2.261,5.1,8.828,8.828,0,0,1-5.148,2.861c-.339.06-.682.094-1.023.14M9,16.61a7.606,7.606,0,1,0-7.6-7.6A7.609,7.609,0,0,0,9,16.61" transform="translate(0 0.001)" fill="#00c3c3"/>
    <path id="Path_4236" data-name="Path 4236" d="M35.619,35.273v-.657c0-.7,0-1.406,0-2.11a.688.688,0,0,1,.588-.7.676.676,0,0,1,.748.421,1.07,1.07,0,0,1,.059.36c0,.826,0,1.652,0,2.479v.21h.222c.82,0,1.641,0,2.461,0a.743.743,0,0,1,.683.319.66.66,0,0,1,.036.7.668.668,0,0,1-.628.377c-.855,0-1.711,0-2.566,0h-.207v.2c0,.844,0,1.688,0,2.532a.7.7,0,0,1-.935.708.711.711,0,0,1-.463-.716c0-.838,0-1.676,0-2.514v-.215h-.2c-.861,0-1.723,0-2.584,0a.7.7,0,0,1-.59-1.069.734.734,0,0,1,.679-.328q1.231,0,2.461,0Z" transform="translate(-27.323 -27.033)" fill="#00c3c3"/>
  </g>
</svg>
