<svg xmlns="http://www.w3.org/2000/svg" xmlns:xlink="http://www.w3.org/1999/xlink" width="125.863" height="114.963" viewBox="0 0 125.863 114.963">
  <defs>
    <clipPath id="clip-path">
      <rect id="Rectangle_447" data-name="Rectangle 447" width="125.863" height="114.963" fill="none"/>
    </clipPath>
  </defs>
  <g id="Group_907" data-name="Group 907" style="isolation: isolate">
    <g id="Group_906" data-name="Group 906" clip-path="url(#clip-path)">
      <path id="Path_3416" data-name="Path 3416" d="M184.862,264.851c.87-.894,1.722-1.806,2.615-2.677a1.6,1.6,0,0,1,2.382-.1,1.633,1.633,0,0,1-.142,2.386c-.547.577-1.121,1.129-1.685,1.691-1.266,1.26-2.071,1.234-3.171-.1Z" transform="translate(-132.863 -188.01)" fill="#030404"/>
      <path id="Path_3417" data-name="Path 3417" d="M307.26,25.892c1.236.489,2.327,1.326,3.246,1.167.868-.15,1.566-1.335,2.321-2.084,1.634-1.621,3.364-3.161,4.855-4.905,1.775-2.076,3.928-2.2,6.263-1.574,4.488,1.2,5.317,5.905,4.4,8.782a2.871,2.871,0,0,1-.807,1.124c-2.451,2.453-4.889,4.921-7.363,7.352a.942.942,0,0,0-.264,1.274c.377.768.674,1.575,1.1,2.594.616-.68,1.129-1.29,1.689-1.854.887-.894,1.826-.964,2.53-.233A1.663,1.663,0,0,1,324.987,40c-.722.74-1.436,1.489-2.2,2.187a.863.863,0,0,0-.265,1.189c.381.773.671,1.591,1.022,2.444a7.972,7.972,0,0,0,1.539-1.39,1.609,1.609,0,1,1,2.238,2.284c-.622.651-1.246,1.3-1.916,1.9a.891.891,0,0,0-.219,1.21c.63,1.43,1.176,2.9,1.8,4.327a1.947,1.947,0,0,1-.456,2.435c-1.7,1.651-3.348,3.349-5.029,5.017-1.228,1.217-2.1,1.144-3.1-.25q-4.707-6.587-9.394-13.187c-.4-.563-.616-.666-1.145-.12-2.019,2.083-4.081,4.125-6.149,6.16a1.3,1.3,0,0,0-.49,1.22,6.259,6.259,0,0,1-2.721,6.563,24.842,24.842,0,0,0-2.141,2.1,1.6,1.6,0,0,1-2.8-.538c-.726-1.6-1.41-3.229-2.1-4.851-.173-.407-.221-.7-.867-.473a1.482,1.482,0,0,1-1.946-1.946c.226-.647-.07-.7-.471-.87q-2.341-.99-4.674-2c-1.53-.667-1.753-1.847-.572-3.046,1.334-1.354,2.693-2.684,4.025-4.04a1.861,1.861,0,0,1,1.691-.671c2.582.458,4.48-.511,6.1-2.533A41.952,41.952,0,0,1,298.834,39c.554-.523.442-.748-.119-1.145q-6.568-4.643-13.1-9.336c-1.512-1.081-1.579-1.909-.266-3.227,1.624-1.63,3.278-3.232,4.87-4.894a2.021,2.021,0,0,1,2.595-.493c1.327.61,2.714,1.09,4.04,1.7a1.173,1.173,0,0,0,1.618-.36,22.154,22.154,0,0,1,1.76-1.775,1.6,1.6,0,1,1,2.289,2.222c-.022.025-.049.046-.069.072-.423.533-1.1.851-1.321,1.556.98.406,1.954.831,2.95,1.195.117.043.375-.227.535-.384.784-.771,1.548-1.564,2.339-2.328a1.618,1.618,0,0,1,2.389-.157,1.592,1.592,0,0,1-.111,2.391c-.577.6-1.212,1.139-1.974,1.848m11.716-2.476c-.266.249-.509.465-.738.694q-2.867,2.864-5.73,5.732c-1.012,1.012-1.412,1.089-2.754.535s-2.706-1.114-4.052-1.688a1.244,1.244,0,0,0-1.283.018,1.419,1.419,0,0,1-2.091-.685,1.748,1.748,0,0,0-1.344-1.264,15.081,15.081,0,0,1-1.654-.7,1.108,1.108,0,0,0-1.41.183,1.471,1.471,0,0,1-2.5-.889c-.038-.91-.459-1.16-1.158-1.372a7.13,7.13,0,0,1-1.287-.538,1.087,1.087,0,0,0-1.551.275,23.754,23.754,0,0,1-2.257,2.267c-.575.509-.577.754.086,1.221,4.414,3.106,8.8,6.258,13.183,9.4,1.348.966,1.428,1.875.268,3.042-2.163,2.176-4.472,4.226-6.466,6.546-1.785,2.078-3.776,3.133-6.5,2.658-.1-.017-.2.007-.3,0a.926.926,0,0,0-.793.318c-.664.652-1.352,1.278-2.13,2.007.741.333,1.31.6,1.884.845.915.4,1.84,1.11,2.749,1.092,1-.02,1.5-1.266,2.269-1.922a1.65,1.65,0,0,1,2.331-.121,1.612,1.612,0,0,1-.062,2.4c-.546.585-1.131,1.133-1.69,1.705-.174.178-.424.306-.266.663.645,1.453,1.262,2.919,1.874,4.343,1.846-1.182,2.869-2.705,2.434-4.927-.038-.193.015-.4-.008-.6a2.526,2.526,0,0,1,.914-2.2c2.757-2.714,5.478-5.464,8.216-8.2,1.263-1.261,2.121-1.188,3.168.275q4.3,6.018,8.6,12.043c1.289,1.806,1.289,1.806,2.868.226,2.014-2.016,2.008-2.013.9-4.628-.176-.416-.293-.656-.885-.641a1.487,1.487,0,0,1-1.292-2.382,1.512,1.512,0,0,0,.138-1.946c-.235-.514-.435-1.044-.64-1.571a1.364,1.364,0,0,0-.978-.992,1.455,1.455,0,0,1-.871-2.17,1.262,1.262,0,0,0,.022-1.284c-.559-1.316-1.1-2.642-1.644-3.964-.617-1.5-.558-1.8.556-2.914q2.793-2.8,5.582-5.6c.249-.251.583-.442.695-.82a6.763,6.763,0,0,1-4.4-4.471m5.566,3.3a3,3,0,0,0,.057-4.273A3.161,3.161,0,0,0,320,22.376c1.844-.119,4.536,2.455,4.537,4.337" transform="translate(-202.812 -13.056)" fill="#030404"/>
      <path id="Path_3418" data-name="Path 3418" d="M234.874,218.615a1.545,1.545,0,0,1-1.547-2.27,10.589,10.589,0,0,1,3-3,1.366,1.366,0,0,1,1.805.332,1.348,1.348,0,0,1,.268,1.736,12.579,12.579,0,0,1-3.07,3.073,1.153,1.153,0,0,1-.458.127" transform="translate(-167.535 -153.181)" fill="#030404"/>
      <path id="Path_3419" data-name="Path 3419" d="M262.705,190.459c0,1.209-2.829,4.041-3.84,4.04a1.494,1.494,0,0,1-1.386-.82,1.4,1.4,0,0,1,.108-1.686,35.786,35.786,0,0,1,2.612-2.615,1.4,1.4,0,0,1,1.685-.107,1.466,1.466,0,0,1,.821,1.188" transform="translate(-184.889 -135.866)" fill="#030404"/>
      <path id="Path_3420" data-name="Path 3420" d="M285.114,164.946a1.582,1.582,0,0,1,1.487.794,1.379,1.379,0,0,1-.069,1.681,28.438,28.438,0,0,1-2.67,2.67,1.408,1.408,0,0,1-1.989-.143,1.384,1.384,0,0,1-.277-1.9,15.841,15.841,0,0,1,2.853-2.89.97.97,0,0,1,.665-.216" transform="translate(-202.198 -118.546)" fill="#030404"/>
      <path id="Path_3421" data-name="Path 3421" d="M214.4,238.984c0,1.014-2.823,3.86-3.832,3.851a1.522,1.522,0,0,1-1.388-.823,1.385,1.385,0,0,1,.1-1.685,36.45,36.45,0,0,1,2.609-2.617,1.4,1.4,0,0,1,1.686-.111,1.476,1.476,0,0,1,.82,1.384" transform="translate(-150.172 -170.603)" fill="#030404"/>
      <path id="Path_3422" data-name="Path 3422" d="M330.021,36.375a6.764,6.764,0,0,0,4.4,4.471c-.112.378-.446.569-.694.82q-2.782,2.808-5.582,5.6c-1.114,1.115-1.173,1.419-.556,2.914.545,1.322,1.085,2.647,1.644,3.964a1.262,1.262,0,0,1-.022,1.284,1.456,1.456,0,0,0,.871,2.17,1.365,1.365,0,0,1,.978.991c.2.527.4,1.058.639,1.571a1.512,1.512,0,0,1-.138,1.946,1.487,1.487,0,0,0,1.292,2.382c.592-.015.709.225.885.641,1.107,2.615,1.113,2.612-.9,4.628-1.579,1.58-1.579,1.58-2.868-.226q-4.3-6.022-8.6-12.043c-1.047-1.464-1.9-1.536-3.168-.275-2.738,2.734-5.459,5.484-8.216,8.2a2.525,2.525,0,0,0-.913,2.2c.023.2-.029.406.008.6.434,2.221-.589,3.745-2.434,4.927-.611-1.424-1.228-2.89-1.874-4.343-.158-.357.092-.485.266-.663.559-.573,1.144-1.121,1.69-1.705a1.612,1.612,0,0,0,.062-2.4,1.649,1.649,0,0,0-2.33.121c-.768.656-1.269,1.9-2.269,1.922-.909.018-1.834-.694-2.749-1.092-.574-.25-1.143-.512-1.884-.845.778-.729,1.467-1.355,2.13-2.007a.926.926,0,0,1,.793-.318c.1.011.2-.013.3,0,2.726.476,4.717-.58,6.5-2.657,1.994-2.321,4.3-4.37,6.466-6.547,1.16-1.167,1.08-2.076-.268-3.042-4.387-3.144-8.769-6.3-13.182-9.4-.664-.467-.661-.712-.086-1.221a23.719,23.719,0,0,0,2.257-2.267,1.087,1.087,0,0,1,1.552-.276,7.1,7.1,0,0,0,1.287.538c.7.212,1.12.462,1.158,1.372a1.471,1.471,0,0,0,2.5.889,1.108,1.108,0,0,1,1.41-.183,15.064,15.064,0,0,0,1.654.7,1.748,1.748,0,0,1,1.344,1.264,1.419,1.419,0,0,0,2.09.685,1.245,1.245,0,0,1,1.283-.018c1.346.574,2.7,1.13,4.052,1.688s1.741.477,2.754-.535q2.867-2.864,5.73-5.732c.229-.229.472-.445.738-.694" transform="translate(-213.858 -26.015)" fill="#6ddfec"/>
      <path id="Path_3423" data-name="Path 3423" d="M421.166,35.023c0-1.882-2.693-4.456-4.537-4.337a3.161,3.161,0,0,1,4.594.064,3,3,0,0,1-.057,4.273" transform="translate(-299.437 -21.366)" fill="#6ddfec"/>
      <path id="Path_3424" data-name="Path 3424" d="M1.706,73.121C.353,72.714.021,72.315.016,70.885c-.014-4.49-.03-8.98,0-13.47.021-2.755,1.579-4.289,4.337-4.332,1.945-.031,3.892-.047,5.836.013.859.026,1.134-.186,1.128-1.1-.028-4.227-.067-8.457.083-12.68.144-4.034,3.808-7.693,7.811-8.149,2.093-.239,4.185-.106,6.277-.138.533-.008.774-.073.8-.711.154-4.293,2.445-6.932,6.51-8.027a1.577,1.577,0,0,0,1.392-1.926c-.1-2.053-.047-4.115-.017-6.172.008-.571-.134-.811-.741-.764a13.783,13.783,0,0,1-1.907,0c-1.179-.073-1.845-.648-1.863-1.815q-.076-4.882,0-9.765A1.693,1.693,0,0,1,31.591.01Q44.5-.01,57.406.01a1.728,1.728,0,0,1,1.961,1.937q.055,4.77,0,9.541c-.017,1.357-.719,1.92-2.2,1.954-1.975.045-1.975.045-1.965,1.99.006,1.16,0,2.32.021,3.48a1.77,1.77,0,0,1-1.639,2.022,1.828,1.828,0,0,1-1.732-2.074c-.024-1.5-.066-2.993-.023-4.487.021-.723-.179-.941-.924-.935q-6.226.055-12.452,0c-.765-.007-.921.247-.913.953.031,2.73-.015,5.46,0,8.189a2.018,2.018,0,0,1-1.619,2.22c-.969.267-1.919.61-2.869.942a4.613,4.613,0,0,0-3.4,4.6c-.047,4.6-.036,9.2,0,13.8.012,1.742.92,2.46,2.663,2.34.642-.044.928-.229.9-.932a27.25,27.25,0,0,1,.027-3.362,1.583,1.583,0,0,1,1.79-1.588,1.565,1.565,0,0,1,1.529,1.726c.02.9-.014,1.8.022,2.692.013.339-.227,1.02.475.845,1.02-.255,2.3.379,3.042-.83.067-.109.01-.294.01-.443,0-1.01-.021-2.02.006-3.029a1.687,1.687,0,1,1,3.358,0c.026.559.005,1.121.005,1.682,0,1.865,0,1.865,1.8,1.691.3-.029.6-.06.894-.072.509-.021.7-.253.681-.779-.039-1.008-.021-2.019-.008-3.029.016-1.305.651-2.066,1.693-2.056s1.651.776,1.672,2.094c.013.822-.011,1.646.012,2.468.006.229-.168.558.179.677.27.092.5-.089.713-.24a2.482,2.482,0,0,0,.879-2.3q-.05-8.021-.083-16.043C51.9,24,52.16,23.632,53.6,23.21a1.946,1.946,0,0,1,1.682,2.25c-.019,1.57.048,3.141,0,4.71-.02.7.183.86.871.868,3.137.038,6.277-.189,9.41.145,3.918.417,7.6,4.121,7.745,8.076.152,4.219.113,8.446.087,12.669-.006.93.23,1.212,1.17,1.171,1.791-.078,3.588-.026,5.382-.022,3.249.006,4.755,1.487,4.756,4.7q.008,12.73.005,25.459a2.3,2.3,0,0,1-.9,2.266c-.41.253-.253.671-.254,1.021-.012,3.215,0,6.43-.012,9.645-.006,1.465-.332,1.869-1.671,2.221-1.352-.352-1.668-.742-1.677-2.218-.019-3.177-.03-6.355-.008-9.532,0-.649-.127-.936-.858-.912-1.68.053-3.364.049-5.045,0-.714-.02-.869.246-.868.907q.022,12.055-.018,24.11c0,.725.252.873.909.855,1.569-.042,3.141-.052,4.708,0,.9.031,1.169-.345,1.157-1.193-.034-2.392-.022-4.785-.008-7.177.009-1.51.309-1.9,1.7-2.357,1.417.455,1.674.795,1.681,2.347.011,2.316.005,4.633,0,6.949,0,2.785-.734,3.859-3.245,4.785H4.193c-2.287-.894-3.076-2.6-3.051-5,.079-7.738.028-15.478.032-23.218,0-.6.036-1.149-.608-1.543a1.637,1.637,0,0,1-.551-1.52Q0,80.594.013,77.509a1.842,1.842,0,0,1,1.7-2.1A1.855,1.855,0,0,1,3.4,77.525c0,1.309.027,2.619-.01,3.927-.018.654.151.925.871.923q14.475-.031,28.95,0c.64,0,.842-.2.824-.832-.039-1.42-.033-2.843,0-4.264a1.653,1.653,0,0,1,1.8-1.834q6.508-.034,13.016,0c1.223.006,1.811.648,1.833,1.912.023,1.309.069,2.622-.015,3.926-.059.922.275,1.1,1.132,1.1q14.195-.043,28.389,0c.947,0,1.179-.27,1.176-1.191-.033-7.743-.014-15.486-.014-23.229,0-1.437-.09-1.529-1.519-1.529q-37.478,0-74.956,0c-1.417,0-1.507.094-1.507,1.541,0,4.3.011,8.6,0,12.9,0,1.491-.26,1.807-1.666,2.24m40.627,38.472q8.974,0,17.948.009c.633,0,1.007-.022,1-.862q-.059-12.06-.022-24.12c0-.684-.183-.9-.879-.886-2.842.038-5.685.054-8.525-.006-.92-.019-1.3.213-1.164,1.163a2.229,2.229,0,0,1-1.53,2.54c-1.864.858-3.688,1.8-5.5,2.764a2.6,2.6,0,0,1-2.648-.025c-1.68-.894-3.368-1.786-5.107-2.553-1.366-.6-2.146-1.442-1.892-3,.113-.7-.195-.887-.873-.879-2.879.033-5.759.048-8.637-.007-.85-.016-1.054.23-1.051,1.062q.04,11.891-.017,23.783c0,.859.241,1.044,1.062,1.038,5.945-.035,11.891-.019,17.836-.019m0-58.517H61.625c.5,0,1.009.149,1-.726-.05-3.252-.032-6.5-.009-9.757,0-.574-.15-.781-.752-.77-1.906.035-3.813.03-5.719,0-.545-.008-.75.108-.817.715-.358,3.233-2.2,4.927-5.481,5.285q-8.52.93-17.029,1.966c-3.583.438-6.108-1.511-6.524-5.1-.109-.94.453-2.253-.308-2.727-.732-.455-1.959-.071-2.961-.148-.772-.059-.925.239-.917.95.036,3.1.055,6.207-.01,9.308-.019.888.269,1.02,1.066,1.016,6.392-.032,12.785-.018,19.177-.018M11.3,98.709H11.29c0-4-.012-8,.012-12,0-.683-.113-1.01-.912-.979-1.642.065-3.289.043-4.934.008-.636-.014-.93.095-.928.842q.032,11.944-.009,23.889c0,.9.377,1.165,1.225,1.138,1.531-.047,3.067-.06,4.6.005.813.034.988-.252.981-1.014-.036-3.963-.017-7.926-.017-11.889m33.2-88.661c3.513,0,7.025-.018,10.538.015.7.007.991-.132.962-.91-.06-1.642-.039-3.288-.007-4.932.012-.585-.088-.851-.773-.848q-10.706.037-21.412,0c-.667,0-.8.227-.791.833.035,1.644.047,3.29,0,4.932-.023.745.219.935.95.927,3.512-.038,7.025-.017,10.538-.017M20.088,98.682c0-4-.015-8,.014-12,.005-.717-.179-1-.941-.959-1.23.061-2.467.039-3.7.007-.576-.015-.785.173-.783.766q.022,12.168,0,24.335c0,.579.176.791.767.772,1.157-.037,2.321-.069,3.475.008.912.061,1.206-.2,1.193-1.156-.056-3.924-.023-7.85-.024-11.775m44.544.008c0,4,.012,8-.012,12,0,.642.111.955.852.92,1.268-.059,2.542-.042,3.811-.005.6.017.772-.211.758-.781-.03-1.307-.009-2.616-.009-3.925,0-6.654-.024-13.308.026-19.962.008-1.021-.292-1.294-1.258-1.217a20.636,20.636,0,0,1-3.137,0c-.872-.064-1.058.267-1.05,1.082.039,3.962.018,7.925.018,11.887m5.416-52.6c0-1.832.024-3.665-.005-5.5a5.866,5.866,0,0,0-6.191-6.2c-2.542-.03-5.085.018-7.627-.015-.661-.008-.957.138-.9.859a15.73,15.73,0,0,1,.01,2.354c-.05.7.187.891.877.877,2.168-.041,4.337-.024,6.505,0,2.151.02,3.244,1.111,3.252,3.237.011,2.767,0,5.534,0,8.3,0,3.2,0,3.182,3.274,3.087.641-.019.825-.208.815-.834-.033-2.056-.013-4.113-.013-6.169m-55.375-.077c0,2.02.032,4.042-.017,6.061-.018.755.15,1.1.974,1.018a11.711,11.711,0,0,1,2.13,0c.782.067,1.018-.2,1.007-1-.044-3.067.1-6.141-.047-9.2-.183-3.863,1.427-4.61,4.459-4.451.987.052,2.326.455,2.9-.2.6-.685.13-2,.183-3.038,0-.037,0-.075,0-.112.064-.535-.165-.718-.7-.709-1.683.027-3.37-.056-5.049.024a5.8,5.8,0,0,0-5.823,5.99c-.051,1.869-.009,3.741-.011,5.612M42.4,78.8c-1.421,0-2.843.028-4.263-.013-.6-.017-.759.177-.75.76.032,2.094.026,4.189,0,6.283A.971.971,0,0,0,38,86.874c1.249.588,2.479,1.217,3.7,1.858a1.185,1.185,0,0,0,1.25.038c1.248-.672,2.522-1.3,3.8-1.914a.9.9,0,0,0,.583-.947c-.028-2.132-.036-4.264,0-6.4.012-.633-.238-.735-.785-.722-1.383.031-2.767.01-4.151.01" transform="translate(0 0)" fill="#040303"/>
      <path id="Path_3425" data-name="Path 3425" d="M6.065,217.314c1.406-.433,1.662-.749,1.666-2.24.008-4.3,0-8.6,0-12.905,0-1.447.09-1.541,1.507-1.541q37.478,0,74.956,0c1.429,0,1.519.091,1.519,1.529,0,7.743-.019,15.486.013,23.229,0,.921-.228,1.195-1.175,1.191q-14.195-.053-28.389,0c-.857,0-1.191-.178-1.132-1.1.084-1.3.037-2.617.015-3.926-.021-1.263-.61-1.905-1.833-1.911q-6.508-.032-13.016,0a1.653,1.653,0,0,0-1.8,1.834c-.03,1.421-.036,2.844,0,4.264.017.634-.184.833-.824.832q-14.475-.026-28.95,0c-.72,0-.89-.269-.872-.923.037-1.308.007-2.618.01-3.927a1.855,1.855,0,0,0-1.69-2.121l-.006-2.283" transform="translate(-4.359 -144.193)" fill="#fc3b62"/>
      <path id="Path_3426" data-name="Path 3426" d="M129.293,57.538c-1.441.422-1.7.785-1.7,2.444q.034,8.021.084,16.043a2.483,2.483,0,0,1-.879,2.3c-.214.152-.444.333-.713.24-.347-.119-.173-.448-.179-.677-.023-.822,0-1.645-.012-2.468-.021-1.318-.64-2.085-1.672-2.094s-1.677.751-1.693,2.056c-.012,1.01-.03,2.02.008,3.029.02.527-.172.759-.681.779-.3.012-.6.043-.894.072-1.8.174-1.8.175-1.8-1.69,0-.561.021-1.123-.005-1.683a1.687,1.687,0,1,0-3.358,0c-.027,1.009-.006,2.019-.006,3.029,0,.15.057.335-.01.443-.744,1.21-2.022.575-3.042.83-.7.176-.461-.506-.475-.845-.036-.9,0-1.795-.022-2.692a1.565,1.565,0,0,0-1.529-1.726,1.583,1.583,0,0,0-1.79,1.588,27.25,27.25,0,0,0-.027,3.362c.031.7-.255.888-.9.932-1.743.119-2.651-.6-2.663-2.34-.032-4.6-.044-9.2,0-13.8a4.613,4.613,0,0,1,3.4-4.6c.95-.331,1.9-.675,2.869-.942a2.018,2.018,0,0,0,1.619-2.22c-.015-2.73.03-5.46,0-8.189-.008-.706.148-.96.913-.953q6.225.058,12.452,0c.744-.006.944.212.924.935-.043,1.494,0,2.991.023,4.487a1.828,1.828,0,0,0,1.732,2.074q.006,1.139.013,2.278" transform="translate(-75.692 -34.328)" fill="#fcd7a5"/>
      <path id="Path_3427" data-name="Path 3427" d="M269.4,319.933c-1.39.453-1.69.846-1.7,2.357-.014,2.392-.026,4.785.008,7.177.012.848-.253,1.224-1.157,1.193-1.568-.053-3.14-.043-4.709,0-.657.017-.911-.13-.909-.855q.045-12.055.018-24.11c0-.661.154-.927.868-.907,1.681.048,3.365.051,5.045,0,.732-.023.862.263.858.913-.022,3.177-.011,6.355.008,9.532.009,1.476.325,1.866,1.677,2.218q0,1.243-.008,2.487" transform="translate(-187.54 -219.052)" fill="#fc3b62"/>
      <path id="Path_3428" data-name="Path 3428" d="M102.209,330.632c-5.946,0-11.891-.017-17.836.019-.821.005-1.067-.18-1.062-1.038q.061-11.892.018-23.783c0-.831.2-1.078,1.051-1.062,2.878.055,5.758.04,8.637.007.678-.008.986.182.873.879-.254,1.56.527,2.4,1.892,3,1.74.767,3.427,1.659,5.107,2.553a2.6,2.6,0,0,0,2.648.025c1.815-.959,3.64-1.905,5.5-2.763a2.229,2.229,0,0,0,1.53-2.54c-.138-.949.244-1.182,1.164-1.163,2.841.06,5.684.044,8.525.006.7-.009.881.2.879.886q-.025,12.06.022,24.12c0,.84-.37.864-1,.862q-8.974-.023-17.948-.009" transform="translate(-59.877 -219.039)" fill="#fc3b62"/>
      <path id="Path_3429" data-name="Path 3429" d="M22.85,317.752c0,3.963-.019,7.926.017,11.888.007.763-.167,1.049-.981,1.014-1.53-.065-3.066-.052-4.6-.005-.848.026-1.228-.241-1.225-1.138q.034-11.944.009-23.889c0-.747.291-.855.928-.842,1.644.036,3.291.057,4.933-.008.8-.032.916.3.913.979-.024,4-.012,8-.012,12Z" transform="translate(-11.546 -219.042)" fill="#fc3b62"/>
      <path id="Path_3430" data-name="Path 3430" d="M57.589,317.7c0,3.925-.033,7.851.023,11.775.014.956-.28,1.216-1.193,1.156-1.154-.077-2.317-.045-3.475-.008-.59.019-.767-.194-.766-.772q.021-12.168,0-24.335c0-.593.207-.781.783-.766,1.233.031,2.469.054,3.7-.008.762-.038.946.243.941.96-.028,4-.014,8-.014,12" transform="translate(-37.502 -219.019)" fill="#697d9b"/>
      <path id="Path_3431" data-name="Path 3431" d="M229.724,317.68c0-3.962.021-7.925-.018-11.887-.008-.815.178-1.145,1.05-1.082a20.636,20.636,0,0,0,3.137,0c.966-.077,1.266.2,1.258,1.217-.051,6.654-.026,13.308-.026,19.962,0,1.308-.021,2.617.009,3.925.013.57-.159.8-.758.781-1.27-.037-2.543-.053-3.812.005-.741.034-.856-.278-.852-.92.023-4,.012-8,.012-12" transform="translate(-165.093 -218.991)" fill="#697d9b"/>
      <path id="Path_3432" data-name="Path 3432" d="M211.386,133.932c0,2.056-.021,4.114.013,6.169.01.627-.174.816-.815.835-3.274.1-3.273.114-3.273-3.087,0-2.767.008-5.534,0-8.3-.008-2.126-1.1-3.217-3.252-3.237-2.168-.02-4.337-.036-6.505,0-.69.013-.927-.181-.877-.877a15.688,15.688,0,0,0-.01-2.354c-.057-.721.24-.868.9-.86,2.542.033,5.085-.015,7.627.015a5.866,5.866,0,0,1,6.191,6.2c.029,1.832.005,3.664.005,5.5" transform="translate(-141.338 -87.845)" fill="#fbd62c"/>
      <path id="Path_3433" data-name="Path 3433" d="M52.115,133.838c0-1.871-.041-3.743.01-5.612a5.8,5.8,0,0,1,5.823-5.99c1.68-.08,3.366,0,5.049-.024.539-.009.768.174.7.709,0,.037,0,.075,0,.112-.053,1.038.42,2.354-.183,3.038-.573.651-1.912.247-2.9.2-3.033-.159-4.642.588-4.459,4.451.145,3.061,0,6.135.047,9.2.011.792-.225,1.062-1.007,1a11.712,11.712,0,0,0-2.13,0c-.824.081-.992-.262-.974-1.018.049-2.019.017-4.04.018-6.061" transform="translate(-37.442 -87.827)" fill="#fbd62c"/>
      <path id="Path_3434" data-name="Path 3434" d="M137.913,280.115c1.384,0,2.768.021,4.151-.01.547-.012.8.09.785.722-.039,2.131-.031,4.263,0,6.4a.9.9,0,0,1-.583.947c-1.276.617-2.55,1.242-3.8,1.914a1.185,1.185,0,0,1-1.25-.038c-1.222-.642-2.452-1.271-3.7-1.859a.971.971,0,0,1-.611-1.042c.023-2.094.029-4.189,0-6.283-.009-.583.152-.777.75-.759,1.42.041,2.842.013,4.263.013" transform="translate(-95.517 -201.312)" fill="#fbd62c"/>
      <path id="Path_3435" data-name="Path 3435" d="M176.762,21.021c-1.823,0-2.614-.505-2.622-1.678s.836-1.732,2.6-1.733,2.634.563,2.646,1.711-.845,1.7-2.624,1.7" transform="translate(-125.156 -12.657)" fill="#040303"/>
    </g>
  </g>
</svg>
