<svg xmlns="http://www.w3.org/2000/svg" xmlns:xlink="http://www.w3.org/1999/xlink" width="130" height="130" viewBox="0 0 130 130">
  <defs>
    <clipPath id="clip-path">
      <rect id="Rectangle_446" data-name="Rectangle 446" width="130" height="130" fill="none"/>
    </clipPath>
  </defs>
  <g id="Group_904" data-name="Group 904" transform="translate(0.146 0.146)" style="isolation: isolate">
    <g id="Group_903" data-name="Group 903" transform="translate(-0.146 -0.146)" clip-path="url(#clip-path)">
      <path id="Path_3393" data-name="Path 3393" d="M.2,126.925V25.159c.463.345.364.9.459,1.358A22.041,22.041,0,0,0,19.555,43.894c6.5.661,13.058.159,19.589.215a2.316,2.316,0,0,0,2.314-1.822A2.435,2.435,0,0,0,40.451,39.4c-.855-.587-1.768-1.092-2.694-1.656.237-.269.4-.46.57-.646A22.038,22.038,0,0,0,27.366.7,10.042,10.042,0,0,1,24.754.1H74.1c-.1.344-.4.219-.628.257Q54.807,3.531,48.817,21.5c-1.409,4.232-1.27,8.643-1.257,13.032a48.876,48.876,0,0,1-.146,6.7c-.569,4.223-2.593,7.747-5.152,11.077A15.322,15.322,0,0,0,48.693,75.8c.326.132.648.272,1.158.487-.517.24-.845.4-1.177.544-3,1.318-6.04,2.557-9,3.964-7.142,3.4-10.874,9.149-11.061,17.01-.173,7.295-.042,14.6-.036,21.9,0,1.559.411,2.05,1.96,2.457q0,1.853,0,3.705c-.463.016-.926.044-1.388.044-8.645,0-17.29.02-25.935-.019A3.749,3.749,0,0,0,.2,126.925" transform="translate(-0.025 0.046)" fill="#fefefe"/>
      <path id="Path_3394" data-name="Path 3394" d="M30.4,122.159c-1.549-.407-1.958-.9-1.96-2.457-.006-7.3-.137-14.6.036-21.9.187-7.861,3.919-13.613,11.061-17.01,2.959-1.407,6-2.647,9-3.965.333-.146.66-.3,1.177-.544-.51-.215-.832-.355-1.158-.487a15.322,15.322,0,0,1-6.432-23.492c2.559-3.331,4.582-6.854,5.152-11.077a48.821,48.821,0,0,0,.146-6.7c-.013-4.389-.152-8.8,1.257-13.032Q54.659,3.549,73.34.353c.225-.039.525.087.628-.257h6.327A6.76,6.76,0,0,0,82.8.587c11.77,1.98,21.929,12.255,23.834,24.044a66.351,66.351,0,0,1,.432,12.5,22.384,22.384,0,0,0,5.092,15.2,15.023,15.023,0,0,1,.462,17.923,15.633,15.633,0,0,1-7.9,5.972c3.2,1.369,6.185,2.608,9.139,3.916,7.9,3.5,11.938,9.566,11.975,18.218q.056,13.223-.01,26.446c0,.831.117,1.29,1.06,1.113a3.084,3.084,0,0,1,2.753,1.012c0,.928.362,2.219-.1,2.683s-1.754.1-2.682.1q-62.7,0-125.4.033c-1.19,0-1.628-.23-1.406-1.428a7.718,7.718,0,0,0,.014-1.39,3.749,3.749,0,0,1,3.008-1.035c8.645.038,17.29.022,25.935.019.463,0,.926-.029,1.389-.044,4.8.015,9.61.011,14.415.064.889.009.779-.412.714-1.012-1.007-9.426-2.022-18.852-2.98-28.283-.386-3.8,2-6.436,5.8-6.535,1.475-.039,2.953-.056,4.426.009.9.041,1.145-.282,1.132-1.152-.046-3.036-.051-6.073,0-9.108.017-1-.22-1.133-1.114-.733-3.649,1.628-7.329,3.186-10.987,4.8-6.383,2.809-9.553,7.734-9.57,14.689q-.026,10.564.01,21.127a2.126,2.126,0,0,1-1.849,2.433m58.018-49.93a13.658,13.658,0,0,1-2.8-5.289c-.127-.547-.4-.506-.822-.412-4.363.965-8.768.642-13.172.426-.941-.046-2.053-.889-2.708-.276s-.72,1.823-1.045,2.771a13.946,13.946,0,0,1-7.04,6.2c-3.209,1.3-3.146,1.367-3.169,4.829a1.155,1.155,0,0,0,1.057,1.347,70.572,70.572,0,0,0,34.86.155c3.088-.766,3.04-.775,3.1-3.956a1.48,1.48,0,0,0-1.141-1.638,18.678,18.678,0,0,1-7.117-4.163m-3.007-45.5a2.119,2.119,0,0,1,3.048-.095,20.036,20.036,0,0,0,12.207,3.775c3.165-.021,2.732.193,2.5-2.854-.019-.252-.049-.5-.08-.754a25.86,25.86,0,0,0-7.85-15.713c-.544-.533-.8-.471-1.2.147A52.626,52.626,0,0,1,82.775,23.583c-.891.634-1.77,1.286-2.675,1.9a50.224,50.224,0,0,1-19.833,8.075c-.575.1-1.091.145-1.08,1.027.055,4.85-.066,9.7.07,14.55A14.683,14.683,0,0,0,70.52,62.872c3.326.811,6.718.483,10.077.421a14.324,14.324,0,0,0,10.866-5.127,14.092,14.092,0,0,0,3.332-6.879,40.436,40.436,0,0,1-5.742,3.894,2.232,2.232,0,0,0-1.172,1.191,5.184,5.184,0,0,1-4.305,3.29,23.572,23.572,0,0,1-6.052-.012,5.522,5.522,0,0,1,.623-10.987c1.558-.058,3.119-.023,4.679-.014a5.141,5.141,0,0,1,4.424,2.271c.465.676.822.631,1.419.283a14.429,14.429,0,0,0,6.174-6.644,3.173,3.173,0,0,0,.291-1.339c-.007-2.868-.022-5.736.01-8.6.008-.7-.159-1.011-.908-1.193a21.984,21.984,0,0,1-7.97-3.674c-1.285-.95-1.442-1.522-.853-3.018m18.674,67.26c-.545-.028-1.09-.08-1.635-.08q-19.358-.007-38.717,0c-5.019,0-10.038-.007-15.057,0-1.906,0-2.5.665-2.332,2.571.158,1.763.353,3.523.54,5.284.814,7.671,1.66,15.339,2.416,23.016.1,1.053.523,1.145,1.389,1.144q24.609-.031,49.218-.017c.379,0,.757-.025,1.136-.039,1.6.014,3.2-.009,4.8.057.752.031.974-.186,1.052-.962.609-6.079,1.286-12.151,1.931-18.227.374-3.52.757-7.038,1.075-10.563a1.829,1.829,0,0,0-2.036-2.256c-1.26-.024-2.522.044-3.783.072M54.653,30.2q1.264,0,2.528,0a2.568,2.568,0,0,0,.378-.023A47.2,47.2,0,0,0,90.983,9.032c.544-.808.3-1.08-.413-1.487A25.584,25.584,0,0,0,69.519,5.1,26.079,26.079,0,0,0,51.233,29.009c-.038.926.155,1.32,1.147,1.208a20.977,20.977,0,0,1,2.274-.019m45.8,48.28v1.382c0,3.163.017,6.326-.009,9.489-.006.792.472.742,1,.74,2.024,0,4.048-.012,6.071,0,4.124.026,6.5,2.562,6.168,6.7-.22,2.771-.579,5.532-.874,8.3-.706,6.62-1.4,13.242-2.131,19.859-.089.8.145.994.929.984q4.742-.065,9.486,0c.784.011.983-.2.98-.983-.03-9.236.088-18.474-.067-27.708a13.771,13.771,0,0,0-7.722-12.623c-4.392-2.276-9.048-4.041-13.827-6.135m-45.038-35.3V37.073c0-3.112,0-3.079-3.067-3.092-.865,0-1.15.208-1.14,1.113a37.024,37.024,0,0,1-.368,7.946A25.074,25.074,0,0,1,45.6,53.982a11.4,11.4,0,0,0-2.583,9.8c1.674,8.6,11.836,12.17,18.867,6.967a8.583,8.583,0,0,0,3.093-4.51,1.411,1.411,0,0,0-.7-1.944,18.305,18.305,0,0,1-8.338-11.446c-.852-3.373-.355-6.8-.515-9.664m47.9-5.055c0-1.17-.026-2.183.009-3.193.022-.63-.1-.914-.837-.8a8.968,8.968,0,0,1-2.392.077c-1.006-.115-1.182.286-1.172,1.193q.065,6.322.012,12.644a18.588,18.588,0,0,1-8.1,15.75c-2,1.434-2.039,1.506-.929,3.786a7.829,7.829,0,0,0,2.355,2.926,12.017,12.017,0,0,0,10.1,2.352,11.482,11.482,0,0,0,6.708-18.345c-3.862-4.9-5.962-10.294-5.757-16.392M77.1,90.116c5.356,0,10.712.015,16.068-.011,1.123-.005,2.586.5,3.279-.23s.179-2.168.2-3.3c.033-1.5.009-1.492-1.464-1.108a72.924,72.924,0,0,1-22.412,2.305,71.847,71.847,0,0,1-14.1-2.1c-.755-.194-1.089-.09-1.012.78a11.5,11.5,0,0,1,0,2.275c-.118,1.067.167,1.429,1.344,1.415,6.03-.071,12.061-.033,18.092-.033m3.547-37.651c-.759,0-1.518,0-2.278,0A1.631,1.631,0,0,0,76.621,54.1a1.577,1.577,0,0,0,1.434,1.792,19.1,19.1,0,0,0,5.037,0,1.559,1.559,0,0,0,1.448-1.772,1.663,1.663,0,0,0-1.743-1.65c-.716-.017-1.434,0-2.151,0" transform="translate(0.11 0.047)" fill="#030303"/>
      <path id="Path_3395" data-name="Path 3395" d="M286.932,126.861a3.084,3.084,0,0,0-2.753-1.012c-.943.177-1.063-.283-1.06-1.113q.045-13.223.01-26.446c-.037-8.652-4.079-14.723-11.975-18.218-2.954-1.308-5.939-2.548-9.139-3.917a15.629,15.629,0,0,0,7.9-5.972,15.022,15.022,0,0,0-.462-17.923,22.384,22.384,0,0,1-5.092-15.2,66.345,66.345,0,0,0-.432-12.5C262.021,12.779,251.861,2.5,240.091.524a6.767,6.767,0,0,1-2.509-.491Q261.67.033,285.759,0c1.085,0,1.2.294,1.2,1.262q-.043,62.8-.024,125.6" transform="translate(-157.177 0.11)" fill="#fefefe"/>
      <path id="Path_3396" data-name="Path 3396" d="M24.754.1a10.042,10.042,0,0,0,2.612.6A22.038,22.038,0,0,1,38.327,37.1c-.169.186-.333.377-.57.646.926.565,1.839,1.069,2.694,1.656a2.436,2.436,0,0,1,1.006,2.887,2.316,2.316,0,0,1-2.314,1.822c-6.531-.056-13.084.446-19.589-.215A22.041,22.041,0,0,1,.664,26.515c-.1-.456,0-1.013-.459-1.358V19.082c.471-.3.32-.829.416-1.242C2.7,8.914,8.168,3.246,16.952.723A9.2,9.2,0,0,0,19.439.1Zm6.058,40.2H34.2c-1.431-2.4-1.307-3.116.692-5.13A18.047,18.047,0,0,0,40.2,19.281,18.308,18.308,0,0,0,23.49,3.979a14.705,14.705,0,0,0-3.9.118,18.2,18.2,0,0,0-1.5,35.738c4.2.935,8.48.394,12.726.458" transform="translate(-0.025 0.047)" fill="#030303"/>
      <path id="Path_3397" data-name="Path 3397" d="M19.407.063A9.2,9.2,0,0,1,16.92.691C8.136,3.213,2.667,8.881.589,17.808c-.1.413.055.944-.416,1.242C.173,12.974.184,6.9.156.823.153.19.3.044.932.047,7.09.075,13.248.063,19.407.063" transform="translate(0.007 0.079)" fill="#fefefe"/>
      <path id="Path_3398" data-name="Path 3398" d="M89.954,276.534A2.126,2.126,0,0,0,91.8,274.1q-.046-10.563-.01-21.127c.017-6.955,3.187-11.881,9.57-14.689,3.658-1.609,7.338-3.168,10.987-4.8.894-.4,1.132-.266,1.114.733-.052,3.035-.047,6.073,0,9.108.013.87-.231,1.193-1.132,1.152-1.473-.066-2.951-.048-4.426-.01-3.806.1-6.189,2.732-5.8,6.535.958,9.431,1.973,18.857,2.98,28.283.064.6.174,1.021-.714,1.011-4.8-.052-9.61-.048-14.415-.064v-3.705" transform="translate(-59.442 -154.328)" fill="#8593db"/>
      <path id="Path_3399" data-name="Path 3399" d="M191.775,309.626c-.379.013-.757.039-1.136.039q-24.609,0-49.218.017c-.866,0-1.285-.091-1.389-1.144-.756-7.677-1.6-15.344-2.416-23.016-.187-1.76-.382-3.521-.54-5.284-.171-1.905.426-2.566,2.332-2.571,5.019-.011,10.038,0,15.057,0q19.358,0,38.717,0c.545,0,1.09.052,1.635.08-.1.8.327,1.532.218,2.365-.377,2.9-.667,5.808-.977,8.714-.2,1.912-.372,3.828-.58,5.74-.3,2.781-.626,5.561-.941,8.341q-.381,3.36-.762,6.719m-22.893-8.778a7.213,7.213,0,0,0,7.18-7.268,7.209,7.209,0,0,0-14.418.086,7.163,7.163,0,0,0,7.238,7.182" transform="translate(-90.62 -183.71)" fill="#eeecee"/>
      <path id="Path_3400" data-name="Path 3400" d="M201.353,72.738c-.589,1.5-.431,2.069.853,3.018a21.981,21.981,0,0,0,7.97,3.674c.749.182.916.5.908,1.193-.032,2.868-.017,5.736-.01,8.6a3.183,3.183,0,0,1-.291,1.339,14.43,14.43,0,0,1-6.175,6.644c-.6.349-.954.393-1.419-.283a5.141,5.141,0,0,0-4.425-2.271c-1.56-.009-3.121-.044-4.68.014a5.522,5.522,0,0,0-.622,10.987,23.588,23.588,0,0,0,6.052.012,5.184,5.184,0,0,0,4.305-3.29,2.23,2.23,0,0,1,1.171-1.191,40.42,40.42,0,0,0,5.742-3.894,14.089,14.089,0,0,1-3.332,6.879,14.324,14.324,0,0,1-10.866,5.127c-3.359.062-6.751.39-10.076-.421A14.683,14.683,0,0,1,175.2,95.145c-.136-4.847-.015-9.7-.07-14.55-.01-.882.5-.928,1.08-1.027a50.228,50.228,0,0,0,19.833-8.075c.9-.614,1.784-1.266,2.675-1.9a24.312,24.312,0,0,1,2.637,3.146" transform="translate(-115.83 -45.962)" fill="#fcccbd"/>
      <path id="Path_3401" data-name="Path 3401" d="M155,37.595a20.722,20.722,0,0,0-2.274.018c-.992.112-1.184-.282-1.147-1.208A26.079,26.079,0,0,1,169.868,12.5a25.584,25.584,0,0,1,21.051,2.44c.711.407.958.679.413,1.487A47.2,47.2,0,0,1,157.908,37.57a2.563,2.563,0,0,1-.378.023c-.843,0-1.685,0-2.528,0" transform="translate(-100.239 -7.348)" fill="#c39090"/>
      <path id="Path_3402" data-name="Path 3402" d="M297.213,232.02c4.778,2.095,9.435,3.859,13.827,6.135a13.77,13.77,0,0,1,7.721,12.623c.155,9.234.037,18.472.067,27.708,0,.779-.2.995-.98.983q-4.742-.069-9.486,0c-.783.011-1.017-.18-.928-.983.73-6.618,1.425-13.239,2.131-19.859.3-2.766.654-5.526.874-8.3.329-4.135-2.044-6.671-6.168-6.7-2.024-.012-4.047-.005-6.071,0-.523,0-1,.051-1-.74.026-3.163.009-6.326.009-9.489V232.02" transform="translate(-196.648 -153.495)" fill="#8693dc"/>
      <path id="Path_3403" data-name="Path 3403" d="M139.216,109.556c.16,2.861-.336,6.291.515,9.663a18.3,18.3,0,0,0,8.338,11.446,1.412,1.412,0,0,1,.7,1.944,8.581,8.581,0,0,1-3.093,4.51c-7.031,5.2-17.194,1.633-18.867-6.967a11.4,11.4,0,0,1,2.583-9.8,25.074,25.074,0,0,0,5.245-10.944,37.021,37.021,0,0,0,.368-7.945c-.01-.906.275-1.117,1.14-1.113,3.067.013,3.067-.019,3.067,3.092Z" transform="translate(-83.69 -66.328)" fill="#c39090"/>
      <path id="Path_3404" data-name="Path 3404" d="M277.995,104.756c-.205,6.1,1.9,11.493,5.758,16.392a11.482,11.482,0,0,1-6.708,18.345,12.015,12.015,0,0,1-10.1-2.352,7.823,7.823,0,0,1-2.355-2.926c-1.111-2.279-1.067-2.351.928-3.786a18.589,18.589,0,0,0,8.1-15.75q.051-6.321-.012-12.643c-.009-.908.167-1.309,1.173-1.194a8.965,8.965,0,0,0,2.392-.077c.739-.117.859.167.837.8-.035,1.01-.009,2.023-.009,3.193" transform="translate(-174.574 -66.583)" fill="#c39090"/>
      <path id="Path_3405" data-name="Path 3405" d="M201.375,208.083a18.684,18.684,0,0,0,7.117,4.163,1.48,1.48,0,0,1,1.141,1.638c-.056,3.181-.008,3.19-3.1,3.956a70.568,70.568,0,0,1-34.86-.155,1.155,1.155,0,0,1-1.057-1.347c.023-3.462-.04-3.529,3.169-4.829a13.948,13.948,0,0,0,7.04-6.2,16.134,16.134,0,0,0,7.178,3.069c3.13.493,6.276.092,9.411.237a13.077,13.077,0,0,0,3.958-.527" transform="translate(-112.845 -135.808)" fill="#fcccbd"/>
      <path id="Path_3406" data-name="Path 3406" d="M247.559,47.553a24.311,24.311,0,0,0-2.637-3.146,52.626,52.626,0,0,0,11.265-12.348c.4-.617.655-.68,1.2-.147a25.863,25.863,0,0,1,7.851,15.713c.03.251.06.5.079.754.231,3.047.663,2.833-2.5,2.854a20.037,20.037,0,0,1-12.207-3.775,2.118,2.118,0,0,0-3.048.095" transform="translate(-162.035 -20.777)" fill="#b77f7f"/>
      <path id="Path_3407" data-name="Path 3407" d="M298.978,309.645q.381-3.36.762-6.719c.315-2.78.638-5.559.941-8.341.208-1.911.376-3.827.58-5.739.31-2.906.6-5.816.977-8.714.108-.833-.32-1.564-.218-2.365,1.261-.027,2.522-.1,3.782-.071a1.829,1.829,0,0,1,2.036,2.256c-.318,3.525-.7,7.044-1.075,10.564-.645,6.075-1.322,12.148-1.931,18.226-.078.777-.3.993-1.052.962-1.6-.066-3.2-.043-4.8-.057" transform="translate(-197.823 -183.729)" fill="#e3dfe3"/>
      <path id="Path_3408" data-name="Path 3408" d="M190,256.929c-6.031,0-12.062-.039-18.092.033-1.177.014-1.462-.348-1.344-1.415a11.523,11.523,0,0,0,0-2.275c-.078-.87.256-.974,1.012-.78a71.874,71.874,0,0,0,14.1,2.1,72.913,72.913,0,0,0,22.412-2.306c1.473-.384,1.5-.389,1.464,1.109-.025,1.128.478,2.579-.2,3.3s-2.157.225-3.28.23c-5.356.026-10.712.011-16.068.011" transform="translate(-112.794 -166.766)" fill="#f1f1f1"/>
      <path id="Path_3409" data-name="Path 3409" d="M221.373,202.219a13.077,13.077,0,0,1-3.958.527c-3.135-.145-6.281.256-9.411-.237a16.133,16.133,0,0,1-7.178-3.069c.325-.949.4-2.166,1.044-2.771s1.767.23,2.708.276c4.4.216,8.808.539,13.172-.426.424-.094.7-.135.822.412a13.663,13.663,0,0,0,2.8,5.289" transform="translate(-132.843 -129.943)" fill="#fcae9d"/>
      <path id="Path_3410" data-name="Path 3410" d="M230.72,155.04c.717,0,1.434-.014,2.151,0a1.663,1.663,0,0,1,1.743,1.65,1.559,1.559,0,0,1-1.448,1.772,19.082,19.082,0,0,1-5.037,0,1.577,1.577,0,0,1-1.434-1.792,1.631,1.631,0,0,1,1.746-1.633c.759-.005,1.518,0,2.278,0" transform="translate(-149.964 -102.528)" fill="#655b65"/>
      <path id="Path_3411" data-name="Path 3411" d="M38.252,47.737c-4.246-.063-8.522.477-12.726-.458a18.2,18.2,0,0,1,1.5-35.738,14.705,14.705,0,0,1,3.9-.118A24,24,0,0,1,37.7,16.949a19.717,19.717,0,0,1,4.34,10.423,20.51,20.51,0,0,1-3.861,14.275c-1.684,2.326-1.589,3.751.068,6.089" transform="translate(-7.466 -7.397)" fill="#79c8a5"/>
      <path id="Path_3412" data-name="Path 3412" d="M76.424,47.9c-1.657-2.338-1.752-3.764-.068-6.089a20.51,20.51,0,0,0,3.861-14.275,19.717,19.717,0,0,0-4.34-10.423A24,24,0,0,0,69.1,11.586a18.308,18.308,0,0,1,16.711,15.3A18.047,18.047,0,0,1,80.507,42.77c-2,2.015-2.123,2.729-.692,5.13Z" transform="translate(-45.638 -7.56)" fill="#56bc90"/>
      <path id="Path_3413" data-name="Path 3413" d="M217.063,318.017a7.211,7.211,0,1,1-.024-14.423,7.293,7.293,0,0,1,7.2,7.155,7.213,7.213,0,0,1-7.18,7.268m-.023-3.8a3.419,3.419,0,0,0,3.4-3.347A3.486,3.486,0,0,0,217,307.4a3.443,3.443,0,0,0-3.374,3.508,3.358,3.358,0,0,0,3.413,3.306" transform="translate(-138.801 -200.879)" fill="#030303"/>
      <path id="Path_3414" data-name="Path 3414" d="M224.488,321.664a3.358,3.358,0,0,1-3.413-3.306,3.443,3.443,0,0,1,3.374-3.508,3.486,3.486,0,0,1,3.438,3.467,3.419,3.419,0,0,1-3.4,3.347" transform="translate(-146.248 -208.331)" fill="#c4bac3"/>
      <path id="Path_3415" data-name="Path 3415" d="M55.454,52.452c-1.546,1.551-3.013,3.029-4.49,4.5a.5.5,0,0,0-.138.61,10.058,10.058,0,0,1,.4,1.26.989.989,0,0,1-.7,1.232.925.925,0,0,1-1.189-.664,2.539,2.539,0,0,0-2.225-2.233.933.933,0,0,1-.656-1.245,1.019,1.019,0,0,1,1.27-.645.388.388,0,0,1,.122.028c1.129.713,1.864.176,2.637-.689,1.1-1.234,2.328-2.359,3.555-3.585l-5.668-1.55c-.162-.044-.326-.082-.486-.135a1,1,0,0,1-.716-1.279.981.981,0,0,1,1.249-.657c1.362.353,2.719.727,4.078,1.1.872.237,1.752.448,2.608.731a.867.867,0,0,0,1.036-.3c.8-.841,1.629-1.646,2.449-2.464.632-.63,1.233-.712,1.693-.237s.371,1.036-.238,1.649c-.816.822-1.618,1.659-2.464,2.448a.985.985,0,0,0-.3,1.152c.624,2.182,1.216,4.373,1.794,6.566a.991.991,0,0,1-1.25,1.271,1.09,1.09,0,0,1-.724-.877c-.48-1.785-.973-3.567-1.462-5.35-.049-.181-.105-.36-.186-.635" transform="translate(-30.608 -30.292)" fill="#fff"/>
    </g>
  </g>
</svg>
