<svg xmlns="http://www.w3.org/2000/svg" xmlns:xlink="http://www.w3.org/1999/xlink" width="102.541" height="109.875" viewBox="0 0 102.541 109.875">
  <defs>
    <clipPath id="clip-path">
      <rect id="Rectangle_448" data-name="Rectangle 448" width="102.541" height="109.875" fill="none"/>
    </clipPath>
  </defs>
  <g id="Group_909" data-name="Group 909" style="isolation: isolate">
    <g id="Group_908" data-name="Group 908" clip-path="url(#clip-path)">
      <path id="Path_3436" data-name="Path 3436" d="M47,109.874A10.265,10.265,0,0,0,43.7,109.3,50.731,50.731,0,0,1,14.454,94.222,50.129,50.129,0,0,1,.727,67.034a51.223,51.223,0,0,1,18.68-48.5,1.8,1.8,0,0,0,.773-1.6c-.037-3.647-.024-7.295-.015-10.942C20.174,2.254,22.436,0,26.192,0Q47.648,0,69.1,0c3.728,0,5.983,2.278,6,6.029.007,2.11.036,4.221-.019,6.329a1.269,1.269,0,0,0,.792,1.313,51.155,51.155,0,0,1,26.519,48.662A50.129,50.129,0,0,1,91.573,90.251a50.622,50.622,0,0,1-27.136,17.9,51.627,51.627,0,0,1-8.744,1.525c-.194.018-.442-.087-.542.2Zm19.325-6.192a5.644,5.644,0,0,0,.618-.144,48.2,48.2,0,0,0,10.8-5.375,2.328,2.328,0,0,0,1.041-1.392c1.516-5.24,2.955-10.507,4.65-15.69a14.978,14.978,0,0,0,.1-8.625c-1.651-6.5-4.656-12.4-8.051-18.123-.049-.084-.138-.174-.3-.055v6.045q-.012,6.6-.025,13.2c0,1.323.023,2.648-.039,3.968A7.309,7.309,0,0,1,60.522,76.6q-.031-8.852,0-17.7a3.659,3.659,0,1,0-7.307-.167c-.027,6.4-.009,12.8-.01,19.2a7.911,7.911,0,0,1-.138,1.6A74.237,74.237,0,0,0,51.432,92.8a45.642,45.642,0,0,0,1.218,12.443c.1.386.013.925.781.882a44.27,44.27,0,0,0,12.889-2.443m-42.5-61.647q0,18.021,0,36.043c0,1.744.562,2.467,2.086,2.472,7.509.024,15.018,0,22.527.026.568,0,.7-.253.83-.719a18.033,18.033,0,0,0,.3-3.725c.05-.856-.225-1.061-1.061-1.056-5.649.038-11.3.028-16.949.016a3.738,3.738,0,0,1-4.079-4.063c-.015-2.718-.007-5.435,0-8.153.005-2.848,1.438-4.28,4.288-4.283,5.614,0,11.228-.014,16.841.015.708,0,.943-.146,1.023-.906a7.3,7.3,0,0,1,14.542,1.242c.019,5.864,0,11.728.009,17.592,0,2.393,1.509,4.014,3.67,4,2.178-.013,3.592-1.6,3.592-4.046q0-35.077,0-70.154c0-2.1-.575-2.676-2.673-2.677l-42.264,0c-2.117,0-2.682.56-2.682,2.657q0,17.861,0,35.721m-3.656-19.4A47.448,47.448,0,0,0,5.913,44.334a46.635,46.635,0,0,0-.526,26.827A46.412,46.412,0,0,0,19.491,94a46.841,46.841,0,0,0,28.573,12.063c.824.059.988-.186.831-.933a56.779,56.779,0,0,1-.551-19.822c.129-.907-.072-1.067-.922-1.063-6.937.03-13.875.017-20.812.016A8.7,8.7,0,0,1,24.169,84c-2.58-.747-4-2.786-4-5.767q-.006-27.088,0-54.175V22.64M83.7,93.11l.268.143C96.065,81,101.144,66.369,97.9,49.309,95.258,35.39,87.423,24.891,75.135,17.425c0,.488,0,.7,0,.907-.011,9.01-.009,18.019-.052,27.029a4.84,4.84,0,0,0,.859,2.877,80.592,80.592,0,0,1,10.8,22.026c1.2,4.094,1.563,8.122.055,12.284-1.248,3.443-2.085,7.036-3.1,10.562M40.314,62.25c-2.788,0-5.577.023-8.365-.016-.672-.009-.844.183-.828.839.044,1.858.008,3.718.019,5.577.005.887-.291,2.071.159,2.584.53.6,1.747.111,2.659.21.64.07.921-.113.849-.806a3.7,3.7,0,0,1,.1-1.488,1.727,1.727,0,0,1,1.916-1.342A1.748,1.748,0,0,1,38.433,69.4c.13.67-.363,1.6.3,1.958.559.3,1.4.076,2.111.083a4.392,4.392,0,0,1,.536,0c.546.073.776-.119.739-.7-.045-.712-.012-1.429-.01-2.144,0-1.733.618-2.636,1.811-2.668,1.223-.032,1.846.885,1.86,2.7.007.888-.288,2.059.16,2.591.524.622,1.74.12,2.648.225.722.083.989-.126.971-.914-.054-2.465-.044-4.933,0-7.4.012-.692-.165-.908-.881-.9-2.788.042-5.577.017-8.365.017" transform="translate(0 0)" fill="#030201"/>
      <path id="Path_3437" data-name="Path 3437" d="M88.591,51.982q0-17.86,0-35.721c0-2.1.566-2.657,2.682-2.657l42.264,0c2.1,0,2.673.575,2.673,2.677q0,35.077,0,70.154c0,2.444-1.414,4.033-3.592,4.046-2.161.013-3.666-1.607-3.67-4-.01-5.864.01-11.728-.009-17.592A7.3,7.3,0,0,0,114.4,67.65c-.08.76-.315.909-1.023.906-5.614-.029-11.228-.019-16.841-.015-2.85,0-4.283,1.435-4.288,4.283,0,2.717-.012,5.435,0,8.152a3.738,3.738,0,0,0,4.079,4.063c5.649.012,11.3.022,16.949-.016.837-.005,1.111.2,1.061,1.056a18.034,18.034,0,0,1-.3,3.725c-.126.466-.262.721-.83.719-7.509-.021-15.018,0-22.527-.026-1.524,0-2.086-.728-2.086-2.472q0-18.021,0-36.043m12.824-3.345c-.177-.447-.28-.7-.374-.947-1.117-2.97-2.218-5.945-3.355-8.907a1.83,1.83,0,1,0-3.407,1.286q2.636,7.122,5.322,14.225a1.864,1.864,0,0,0,3.612-.01c1.763-4.707,3.547-9.407,5.3-14.117a1.848,1.848,0,1,0-3.422-1.29c-.518,1.328-1,2.67-1.5,4-.7,1.86-1.406,3.718-2.176,5.756m18.3-2.089c0,2.395-.025,4.79.01,7.184a1.826,1.826,0,1,0,3.643,0c.029-1.143.008-2.288.008-3.431,0-1.862,0-1.862,1.881-1.924a5.475,5.475,0,0,0,.1-10.948c-1-.044-2-.015-3-.015-2.05,0-2.636.576-2.639,2.591q0,3.27,0,6.541m-7.427-18.32a5.456,5.456,0,0,0,5.586-5.4,5.486,5.486,0,1,0-5.586,5.4M112.4,46.5c0,2.359-.012,4.718,0,7.077.009,1.317.679,2.088,1.772,2.115,1.142.028,1.87-.763,1.874-2.122q.02-6.97,0-13.94c0-1.342-.743-2.2-1.83-2.2s-1.81.856-1.818,2.207c-.013,2.288,0,4.575,0,6.863" transform="translate(-64.772 -9.946)" fill="#fcbe07"/>
      <path id="Path_3438" data-name="Path 3438" d="M30.142,84.207v1.415q0,27.088,0,54.175c0,2.981,1.424,5.02,4,5.767a8.7,8.7,0,0,0,2.44.262c6.937,0,13.875.013,20.812-.016.85,0,1.052.156.922,1.063a56.779,56.779,0,0,0,.551,19.822c.157.747-.007.992-.831.933A46.84,46.84,0,0,1,29.47,155.566,47.5,47.5,0,0,1,15.892,105.9a47.448,47.448,0,0,1,14.25-21.694" transform="translate(-9.979 -61.567)" fill="#e71e62"/>
      <path id="Path_3439" data-name="Path 3439" d="M287.874,140.5c1.019-3.526,1.856-7.118,3.1-10.562,1.508-4.162,1.146-8.19-.055-12.284a80.593,80.593,0,0,0-10.8-22.026,4.841,4.841,0,0,1-.859-2.877c.043-9.009.04-18.019.052-27.029,0-.209,0-.419,0-.907C291.6,72.278,299.433,82.777,302.078,96.7c3.241,17.059-1.838,31.692-13.936,43.944l-.268-.143" transform="translate(-204.176 -47.386)" fill="#e71e62"/>
      <path id="Path_3440" data-name="Path 3440" d="M206.136,253.054a44.261,44.261,0,0,1-12.889,2.443c-.768.044-.682-.5-.781-.882a45.639,45.639,0,0,1-1.218-12.442,74.237,74.237,0,0,1,1.634-13.275,7.913,7.913,0,0,0,.138-1.6c0-6.4-.017-12.8.01-19.2a3.659,3.659,0,1,1,7.307.167q-.017,8.852,0,17.7a7.309,7.309,0,0,0,14.587.893c.062-1.321.036-2.645.039-3.968q.017-6.6.025-13.2c.444.071.5.476.637.782a64.406,64.406,0,0,1,4.183,12.188,14.171,14.171,0,0,1-.2,7.761c-1.454,4.574-2.7,9.212-4.087,13.809-.64,2.127-.841,4.567-3.447,5.476a1.97,1.97,0,0,0-.465.263c-1.722,1.209-3.733,1.9-5.474,3.078" transform="translate(-139.816 -149.371)" fill="#fddfb1"/>
      <path id="Path_3441" data-name="Path 3441" d="M246.666,251.131c1.741-1.175,3.752-1.869,5.474-3.078a1.971,1.971,0,0,1,.465-.263c2.606-.909,2.807-3.349,3.447-5.476,1.383-4.6,2.633-9.235,4.087-13.809a14.17,14.17,0,0,0,.2-7.761,64.406,64.406,0,0,0-4.183-12.188c-.141-.307-.194-.711-.637-.782v-6.045a.181.181,0,0,1,.3.055c3.395,5.724,6.4,11.62,8.051,18.122a14.979,14.979,0,0,1-.1,8.625c-1.695,5.183-3.134,10.45-4.65,15.69a2.328,2.328,0,0,1-1.041,1.392,48.2,48.2,0,0,1-10.8,5.375,5.7,5.7,0,0,1-.618.144" transform="translate(-180.346 -147.449)" fill="#bea583"/>
      <path id="Path_3442" data-name="Path 3442" d="M116.431,113.367c.771-2.038,1.475-3.9,2.176-5.756.5-1.334.986-2.676,1.5-4a1.848,1.848,0,1,1,3.422,1.29c-1.758,4.709-3.541,9.409-5.3,14.117a1.864,1.864,0,0,1-3.612.01q-2.673-7.108-5.322-14.225a1.83,1.83,0,1,1,3.407-1.286c1.137,2.962,2.239,5.937,3.355,8.907.095.252.2.5.374.947" transform="translate(-79.788 -74.676)" fill="#030201"/>
      <path id="Path_3443" data-name="Path 3443" d="M204.326,111.276q0-3.27,0-6.541c0-2.015.589-2.589,2.639-2.591,1,0,2-.03,3,.015a5.475,5.475,0,0,1-.1,10.948c-1.881.062-1.881.062-1.881,1.924,0,1.144.022,2.288-.008,3.431a1.826,1.826,0,1,1-3.643,0c-.035-2.394-.01-4.79-.011-7.185m3.625-3.65c.34.614-.721,1.956,1.1,1.851,1.736-.1,2.593-.622,2.584-1.856-.009-1.192-.881-1.717-2.509-1.85-1.751-.143-.947,1.1-1.17,1.854" transform="translate(-149.384 -74.674)" fill="#030201"/>
      <path id="Path_3444" data-name="Path 3444" d="M162.078,38.191a5.48,5.48,0,1,1,5.586-5.4,5.507,5.507,0,0,1-5.586,5.4m1.828-5.457a1.714,1.714,0,1,0-3.425.042,1.662,1.662,0,0,0,1.676,1.694,1.68,1.68,0,0,0,1.748-1.736" transform="translate(-114.562 -19.908)" fill="#030201"/>
      <path id="Path_3445" data-name="Path 3445" d="M177.147,111.278c0-2.288-.009-4.575,0-6.863.008-1.351.726-2.2,1.818-2.207s1.827.857,1.83,2.2q.016,6.97,0,13.94c0,1.36-.732,2.15-1.874,2.122-1.093-.027-1.762-.8-1.771-2.115-.017-2.359,0-4.718,0-7.077" transform="translate(-129.515 -74.728)" fill="#030201"/>
      <path id="Path_3446" data-name="Path 3446" d="M217.814,117.487c.223-.753-.581-2,1.17-1.854,1.628.133,2.5.657,2.509,1.85.01,1.233-.848,1.755-2.584,1.856-1.817.105-.756-1.237-1.1-1.851" transform="translate(-159.247 -84.535)" fill="#fcbe07"/>
      <path id="Path_3447" data-name="Path 3447" d="M174.21,42.88a1.68,1.68,0,0,1-1.748,1.736,1.662,1.662,0,0,1-1.676-1.694,1.714,1.714,0,1,1,3.425-.042" transform="translate(-124.866 -30.055)" fill="#bea583"/>
    </g>
  </g>
</svg>
