<svg xmlns="http://www.w3.org/2000/svg" xmlns:xlink="http://www.w3.org/1999/xlink" width="19.171" height="19.161" viewBox="0 0 19.171 19.161">
  <defs>
    <clipPath id="clip-path">
      <rect id="Rectangle_473" data-name="Rectangle 473" width="19.171" height="19.161" fill="#5f5f5f"/>
    </clipPath>
  </defs>
  <g id="Group_955" data-name="Group 955" transform="translate(-1036.829 -1136.727)" style="isolation: isolate">
    <g id="Group_954" data-name="Group 954" transform="translate(1036.829 1136.727)">
      <g id="Group_953" data-name="Group 953" clip-path="url(#clip-path)">
        <path id="Path_3539" data-name="Path 3539" d="M12.919,19.162H1.986L1.752,19.1A2.241,2.241,0,0,1,0,16.875Q0,13.824,0,10.773q0-3.5,0-7A2.2,2.2,0,0,1,1.755,1.552a7.342,7.342,0,0,1,1.172-.066c.071,0,.143,0,.228,0V0H4.648V1.475h9.885V0h1.5V1.487c.324,0,.635-.009.945,0a2.217,2.217,0,0,1,1.747.905,2.618,2.618,0,0,1,.446,1.076v9.213a1.117,1.117,0,0,0-.127.1Q16.02,15.921,13,19.061a1.255,1.255,0,0,0-.08.1m4.746-12.12H1.5v.2q0,4.774,0,9.549a.771.771,0,0,0,.872.875h9.462v-.223q0-1.751,0-3.5A2.249,2.249,0,0,1,14.179,11.6h3.486ZM4.636,2.992v1.48H3.142V2.984c-.313,0-.606-.006-.9,0a.742.742,0,0,0-.743.757c-.007.343,0,.686,0,1.03,0,.248,0,.5,0,.746H17.67c0-.623.011-1.234,0-1.844A.7.7,0,0,0,17.029,3c-.327-.026-.657-.006-1.006-.006V4.467h-1.5V2.992Zm8.7,13.564,3.33-3.46h-.2c-.767,0-1.533,0-2.3,0a.759.759,0,0,0-.831.838q0,1.206,0,2.413v.209" transform="translate(-0.001 -0.001)" fill="#5f5f5f"/>
      </g>
    </g>
  </g>
</svg>
