<svg id="Group_695" data-name="Group 695" xmlns="http://www.w3.org/2000/svg" width="22.143" height="23.079" viewBox="0 0 22.143 23.079">
  <g id="Group_667" data-name="Group 667">
    <path id="Path_3018" data-name="Path 3018" d="M2295.785,1024.944a.52.52,0,1,1,.52.52.521.521,0,0,1-.52-.52Zm22.143-8.22v17.413a2.391,2.391,0,0,1-2.391,2.391h-17.361a2.391,2.391,0,0,1-2.391-2.391v-6.854a.521.521,0,0,1,.556-.519.532.532,0,0,1,.484.537v3.925a1.351,1.351,0,0,0,1.351,1.351h17.361a1.351,1.351,0,0,0,1.351-1.351v-10.4h-20.064v1.444a.532.532,0,0,1-.484.537.52.52,0,0,1-.556-.518v-5.569a1.143,1.143,0,0,1,1.144-1.144h3.794v-.572a1.561,1.561,0,0,1,1.606-1.559,1.581,1.581,0,0,1,1.512,1.592v.539h6.03v-.572a1.561,1.561,0,0,1,1.607-1.559,1.581,1.581,0,0,1,1.512,1.592v.539h3.794a1.143,1.143,0,0,1,1.144,1.144Zm-15.126,1.938a1.56,1.56,0,0,1-2.079-1.47v-.572h-3.794a.1.1,0,0,0-.1.1v3.067h5.978Zm0-3.653a.52.52,0,0,0-1.04,0v2.183a.52.52,0,1,0,1.04,0Zm7.069,1.612h-6.03v3.171h6.03Zm1.039.572a.52.52,0,0,0,1.04,0v-2.183a.52.52,0,0,0-1.04,0Zm5.978,2.6v-3.067a.1.1,0,0,0-.1-.1h-3.794v.572a1.56,1.56,0,0,1-2.079,1.47v1.129Zm0,14.346v-.939a2.376,2.376,0,0,1-1.351.42h-17.361a2.378,2.378,0,0,1-1.351-.42v.939a1.357,1.357,0,0,0,1.351,1.352h17.361a1.356,1.356,0,0,0,1.351-1.352Zm-9.63-9.407-.654-1.56a1.808,1.808,0,0,0-.426,1.876h-3.107a1.8,1.8,0,0,0,0,3.606h3.107a1.8,1.8,0,0,0,2.975,1.876l2.4-2.4a1.8,1.8,0,0,0,0-2.55l-2.4-2.4a1.8,1.8,0,0,0-2.549,0Zm1.7.85,2.4,2.4a.6.6,0,0,1,0,.85l-2.4,2.4a.6.6,0,1,1-.85-.85l.352-.352a.6.6,0,0,0-.425-1.026h-4.31a.6.6,0,1,1,0-1.2h4.31a.6.6,0,0,0,.425-1.026l-.352-.352a.6.6,0,1,1,.85-.849Z" transform="translate(-2295.785 -1013.449)" fill="#434343"/>
  </g>
</svg>
