<svg xmlns="http://www.w3.org/2000/svg" width="22.144" height="23.084" viewBox="0 0 22.144 23.084">
  <path id="Path_3018" data-name="Path 3018" d="M2468.929,1204.907a.52.52,0,1,1,.52.52A.52.52,0,0,1,2468.929,1204.907Zm22.143-8.22V1214.1a2.39,2.39,0,0,1-2.391,2.391H2471.32a2.391,2.391,0,0,1-2.391-2.391h0v-6.854a.52.52,0,0,1,.522-.52h.034a.532.532,0,0,1,.484.537v3.925a1.351,1.351,0,0,0,1.351,1.351h17.361a1.351,1.351,0,0,0,1.351-1.351h0v-10.4h-20.064v1.444a.532.532,0,0,1-.484.537.52.52,0,0,1-.555-.483v-5.6a1.144,1.144,0,0,1,1.142-1.144h3.8v-.572a1.562,1.562,0,0,1,1.562-1.56h.044a1.58,1.58,0,0,1,1.512,1.592v.539h6.03v-.572a1.561,1.561,0,0,1,1.562-1.56h.045a1.581,1.581,0,0,1,1.512,1.592v.539h3.794a1.143,1.143,0,0,1,1.144,1.142v.006Zm-15.126,1.938a1.559,1.559,0,0,1-1.99-.952,1.543,1.543,0,0,1-.089-.518v-.572h-3.794a.1.1,0,0,0-.1.1h0v3.067h5.978Zm0-3.653a.52.52,0,0,0-1.04,0h0v2.183a.52.52,0,0,0,1.04,0Zm7.069,1.612h-6.03v3.171h6.03Zm1.039.572a.52.52,0,0,0,1.04,0v-2.183a.52.52,0,0,0-1.04,0Zm5.978,2.6v-3.067a.1.1,0,0,0-.1-.1h-3.794v.572a1.56,1.56,0,0,1-2.079,1.47v1.129Zm0,14.346v-.939a2.369,2.369,0,0,1-1.351.42H2471.32a2.379,2.379,0,0,1-1.351-.42v.939a1.357,1.357,0,0,0,1.351,1.352h17.361A1.356,1.356,0,0,0,2490.032,1214.1Zm-10.795-9.407.654-1.56a1.807,1.807,0,0,1,.426,1.876h3.107a1.8,1.8,0,0,1,0,3.606h-3.107a1.8,1.8,0,0,1-2.975,1.876l-2.4-2.4a1.8,1.8,0,0,1,0-2.546l0,0,2.4-2.4a1.8,1.8,0,0,1,2.546,0l0,0Zm-.908-.7-2.4,2.4a.6.6,0,0,0,0,.849h0l2.4,2.4a.6.6,0,1,0,.85-.85l-.352-.352a.6.6,0,0,1,.425-1.026h4.31a.6.6,0,1,0,.011-1.2h-4.321a.6.6,0,0,1-.425-1.026l.352-.352a.6.6,0,1,0-.85-.849Z" transform="translate(-2468.928 -1193.407)" fill="#434343"/>
</svg>
