<svg xmlns="http://www.w3.org/2000/svg" width="27.401" height="21.438" viewBox="0 0 27.401 21.438">
  <path id="Path_3110" data-name="Path 3110" d="M23.118,12.131,27.337,20.8a.411.411,0,0,1-.4.641H.467a.411.411,0,0,1-.4-.641l4.219-8.667a.489.489,0,0,1,.4-.251H8.3a.506.506,0,0,1,.335.154c.245.283.5.561.745.835s.475.524.711.794H5.8a.488.488,0,0,0-.4.251l-2.8,5.742H24.8L22,13.915a.489.489,0,0,0-.4-.251H17.3c.236-.27.474-.533.711-.794s.5-.551.748-.835a.507.507,0,0,1,.334-.154h3.625a.49.49,0,0,1,.4.251ZM19.9,6.208c0,4.736-3.943,5.624-5.8,10.175a.443.443,0,0,1-.822,0C11.613,12.278,8.243,11.153,7.6,7.5A6.342,6.342,0,0,1,13.093.03,6.208,6.208,0,0,1,19.9,6.208Zm-2.929,0A3.278,3.278,0,1,0,13.7,9.486a3.278,3.278,0,0,0,3.278-3.278Zm0,0" transform="translate(-0.002 -0.001)" fill="#434343"/>
</svg>
