<svg xmlns="http://www.w3.org/2000/svg" xmlns:xlink="http://www.w3.org/1999/xlink" width="161.861" height="161.86" viewBox="0 0 161.861 161.86">
  <defs>
    <clipPath id="clip-path">
      <rect id="Rectangle_459" data-name="Rectangle 459" width="65.958" height="76.753" fill="none"/>
    </clipPath>
  </defs>
  <g id="Group_3087" data-name="Group 3087" transform="translate(-738.812 -9221.406)">
    <path id="Path_3450" data-name="Path 3450" d="M332.4,81.43A80.93,80.93,0,1,1,251.474.5,80.929,80.929,0,0,1,332.4,81.43" transform="translate(568.268 9220.906)" fill="#6dceae"/>
    <g id="Group_941" data-name="Group 941" transform="translate(785.044 9257.549)">
      <g id="Group_941-2" data-name="Group 941" transform="translate(0 -0.001)" clip-path="url(#clip-path)">
        <path id="Path_3523" data-name="Path 3523" d="M47.969,37.177a6,6,0,0,1-5.995-6,5.662,5.662,0,0,1,3.6-5.5v5.5a2.4,2.4,0,0,0,4.8,0V25.689a5.674,5.674,0,0,1,3.6,5.492,6,6,0,0,1-6,6m-29.98,0a6,6,0,0,1-6-6,5.662,5.662,0,0,1,3.6-5.5v5.5a2.4,2.4,0,0,0,4.8,0V25.689a5.675,5.675,0,0,1,3.6,5.492,6,6,0,0,1-6,6M32.98,4.8A12.605,12.605,0,0,1,45.571,17.389v3H20.387v-3A12.607,12.607,0,0,1,32.98,4.8M61.759,20.941a.6.6,0,0,0-.6-.554H50.368v-3a17.39,17.39,0,0,0-34.779,0v3H4.8a.6.6,0,0,0-.6.554L0,76.107a.6.6,0,0,0,.6.645H65.358a.607.607,0,0,0,.441-.192.6.6,0,0,0,.157-.453Z" transform="translate(0 0.001)" fill="#fff"/>
      </g>
    </g>
  </g>
</svg>
