<svg xmlns="http://www.w3.org/2000/svg" xmlns:xlink="http://www.w3.org/1999/xlink" width="162.861" height="162.86" viewBox="0 0 162.861 162.86">
  <defs>
    <clipPath id="clip-path">
      <rect id="Rectangle_461" data-name="Rectangle 461" width="104.203" height="51.084" fill="none"/>
    </clipPath>
  </defs>
  <g id="Group_3089" data-name="Group 3089" transform="translate(-1291.831 -9310.057)">
    <circle id="Ellipse_148" data-name="Ellipse 148" cx="80.93" cy="80.93" r="80.93" transform="translate(1292.331 9310.557)" fill="#4382dd" stroke="#fff" stroke-miterlimit="10" stroke-width="1"/>
    <g id="Group_945" data-name="Group 945" transform="translate(1320.16 9363.945)">
      <g id="Group_944" data-name="Group 944" transform="translate(0 0)" clip-path="url(#clip-path)">
        <path id="Path_3530" data-name="Path 3530" d="M85.682,20.746V9.159A9.169,9.169,0,0,0,76.523,0H49.049V14.45H16.485v6.106H15.264A15.281,15.281,0,0,0,0,35.82a9.168,9.168,0,0,0,9.158,9.158h3.578a9.157,9.157,0,0,0,17.267,0H74.2a9.156,9.156,0,0,0,17.266,0H104.2V41.925A21.4,21.4,0,0,0,85.682,20.746M55.154,6.106h6.105v8.345H55.154ZM21.369,44.978a3.053,3.053,0,1,1,3.053-3.053,3.056,3.056,0,0,1-3.053,3.053M30,38.873a9.157,9.157,0,0,0-17.267,0H9.158A3.056,3.056,0,0,1,6.105,35.82a9.169,9.169,0,0,1,9.159-9.159H19.6a21.229,21.229,0,0,1,15.11,6.259,36.07,36.07,0,0,0,7.846,5.953Zm31.774-.6-7.383-1.461A29.866,29.866,0,0,1,39.025,28.6,27.262,27.262,0,0,0,22.59,20.718v-.162H67.365V6.106h9.158a3.056,3.056,0,0,1,3.053,3.053V20.8a21.422,21.422,0,0,0-17.8,17.467m21.055,6.707a3.053,3.053,0,1,1,3.053-3.053,3.056,3.056,0,0,1-3.053,3.053m8.634-6.105a9.156,9.156,0,0,0-17.266,0H67.875a15.266,15.266,0,0,1,29.915,0Z" transform="translate(0 0.001)" fill="#fff"/>
      </g>
    </g>
  </g>
</svg>
