<svg xmlns="http://www.w3.org/2000/svg" xmlns:xlink="http://www.w3.org/1999/xlink" width="161.861" height="161.86" viewBox="0 0 161.861 161.86">
  <defs>
    <clipPath id="clip-path">
      <rect id="Rectangle_460" data-name="Rectangle 460" width="66.347" height="79.648" fill="none"/>
    </clipPath>
  </defs>
  <g id="Group_3088" data-name="Group 3088" transform="translate(-1023.892 -9221.85)">
    <path id="Path_3460" data-name="Path 3460" d="M502.448,81.43A80.93,80.93,0,1,1,421.517.5a80.929,80.929,0,0,1,80.93,80.93" transform="translate(683.305 9221.35)" fill="#d3bea7"/>
    <g id="Group_943" data-name="Group 943" transform="translate(1071.633 9256.101)">
      <g id="Group_942" data-name="Group 942" transform="translate(0 0)" clip-path="url(#clip-path)">
        <path id="Path_3524" data-name="Path 3524" d="M49.528,50.517H38.908V43.052a15.926,15.926,0,0,0,7.964-13.773V22.642H48.2V19.986H44.38a3.99,3.99,0,0,1-3.872-3.053L37.531,6.353a1.327,1.327,0,0,0-2.554-.005L32.24,15.965a5.307,5.307,0,0,1-5.146,4.021H13.687v2.656h1.327v6.637A15.931,15.931,0,0,0,22.98,43.052v8.794a1.324,1.324,0,0,0,.388.937l6.637,6.637a1.324,1.324,0,0,0,1.876,0l6.249-6.247h11.4a6.644,6.644,0,0,1,6.635,6.637V73.084H5.723V71.757H3.067v2.654A1.328,1.328,0,0,0,4.4,75.739H57.491a1.329,1.329,0,0,0,1.331-1.327V59.81a9.307,9.307,0,0,0-9.293-9.293M36.254,51.3l-5.31,5.31L25.632,51.3V44.279a15.64,15.64,0,0,0,10.622,0Zm-5.31-8.742A13.275,13.275,0,0,1,17.67,29.279V22.642h9.424a7.942,7.942,0,0,0,7.717-5.992l1.438-5.063,1.7,6.028a6.626,6.626,0,0,0,6.273,5.013v6.651A13.275,13.275,0,0,1,30.944,42.553" transform="translate(2.226 3.908)" fill="#fff"/>
        <path id="Path_3525" data-name="Path 3525" d="M16.341,31.539H12.358v2.654h3.983a6.638,6.638,0,0,1,0,13.276H9.7a3.983,3.983,0,0,1-3.983-3.983H3.067A6.644,6.644,0,0,0,9.7,50.123h6.637a9.292,9.292,0,1,0,0-18.584" transform="translate(2.226 22.888)" fill="#fff"/>
        <path id="Path_3526" data-name="Path 3526" d="M63.241,48.829A9.309,9.309,0,0,0,60,46.948v-.005a5.255,5.255,0,0,0,1.049-3.136,5.31,5.31,0,0,0-5.31-5.31V23.168A22.844,22.844,0,0,0,34.257.026,22.566,22.566,0,0,0,10.629,21.478c-.017.362-.026.727-.026,1.089V38.5a5.287,5.287,0,0,0-4.262,8.446,9.292,9.292,0,0,0,2.934,18.1H17.24V62.392H9.274a6.638,6.638,0,0,1,0-13.276H17.24V46.462H10.6a2.655,2.655,0,1,1,0-5.31H11.93a1.326,1.326,0,0,0,1.327-1.327V22.567A19.913,19.913,0,0,1,33.168,2.654c.321,0,.644.009.966.024A20.2,20.2,0,0,1,53.081,23.168V39.824a1.326,1.326,0,0,0,1.327,1.327h1.327a2.655,2.655,0,0,1,0,5.31H49.1v2.654h7.964A6.638,6.638,0,0,1,62.01,60.177l1.978,1.771a9.291,9.291,0,0,0-.747-13.119" transform="translate(0 0)" fill="#fff"/>
        <path id="Path_3527" data-name="Path 3527" d="M16.351,17.116a2.323,2.323,0,1,0,2.323,2.323,2.324,2.324,0,0,0-2.323-2.323m-.331,2.323a.332.332,0,0,1,.664,0c0,.366-.664.366-.664,0" transform="translate(10.18 12.421)" fill="#fff"/>
        <path id="Path_3528" data-name="Path 3528" d="M24.043,17.116a2.323,2.323,0,1,0,2.323,2.323,2.324,2.324,0,0,0-2.323-2.323m-.331,2.323a.332.332,0,0,1,.664,0c0,.366-.664.366-.664,0" transform="translate(15.762 12.421)" fill="#fff"/>
        <path id="Path_3529" data-name="Path 3529" d="M24.3,22.308a2.986,2.986,0,1,1-5.973,0H16.336a4.978,4.978,0,1,0,9.956,0Z" transform="translate(11.855 16.189)" fill="#fff"/>
      </g>
    </g>
  </g>
</svg>
