<svg xmlns="http://www.w3.org/2000/svg" xmlns:xlink="http://www.w3.org/1999/xlink" width="161.861" height="161.86" viewBox="0 0 161.861 161.86">
  <defs>
    <clipPath id="clip-path">
      <rect id="Rectangle_453" data-name="Rectangle 453" width="68.805" height="78.153" fill="none"/>
    </clipPath>
  </defs>
  <g id="Group_3078" data-name="Group 3078" transform="translate(-465 -8618.557)">
    <path id="Path_3448" data-name="Path 3448" d="M162.361,81.43A80.93,80.93,0,1,1,81.43.5a80.929,80.929,0,0,1,80.93,80.93" transform="translate(464.5 8618.057)" fill="#7cd342"/>
    <g id="Group_929" data-name="Group 929" transform="translate(504.826 8659.055)">
      <g id="Group_928" data-name="Group 928" transform="translate(0 0)" clip-path="url(#clip-path)">
        <path id="Path_3504" data-name="Path 3504" d="M30.393,41.368A14.047,14.047,0,1,0,16.346,27.323,14.061,14.061,0,0,0,30.393,41.368m4.255-2.4A13.1,13.1,0,0,0,36.6,35.323a22.684,22.684,0,0,1,2.448.859,12.427,12.427,0,0,1-4.4,2.783m5.558-4.084a24.2,24.2,0,0,0-3.11-1.134,24.33,24.33,0,0,0,.794-5.6h4.867a12.32,12.32,0,0,1-2.55,6.731m2.55-8.384H37.89a24.36,24.36,0,0,0-.794-5.6,23.919,23.919,0,0,0,3.11-1.132,12.272,12.272,0,0,1,2.55,6.731m-3.708-8.034a22.313,22.313,0,0,1-2.448.86,13.1,13.1,0,0,0-1.953-3.641,12.4,12.4,0,0,1,4.4,2.781m-7.829-3.4c1.5.472,2.842,2.207,3.758,4.66a22.493,22.493,0,0,1-3.758.448Zm0,6.762a24.049,24.049,0,0,0,4.266-.518,22.942,22.942,0,0,1,.749,5.192H31.22Zm0,6.326h5.014a22.942,22.942,0,0,1-.749,5.192,24.048,24.048,0,0,0-4.266-.518Zm0,6.328a22.493,22.493,0,0,1,3.758.448c-.916,2.453-2.255,4.188-3.758,4.66Zm-9.481,1.7a22.684,22.684,0,0,1,2.448-.859,13.1,13.1,0,0,0,1.953,3.641,12.427,12.427,0,0,1-4.4-2.783m7.829,3.4c-1.5-.472-2.842-2.207-3.76-4.66a22.537,22.537,0,0,1,3.76-.448Zm0-6.762a24.028,24.028,0,0,0-4.266.518,22.94,22.94,0,0,1-.751-5.192h5.016Zm0-6.326H24.551A22.94,22.94,0,0,1,25.3,21.3a24.028,24.028,0,0,0,4.266.518Zm0-11.436v5.108a22.537,22.537,0,0,1-3.76-.448c.918-2.453,2.257-4.188,3.76-4.66m-3.429.621a13.1,13.1,0,0,0-1.953,3.641,22.314,22.314,0,0,1-2.448-.86,12.4,12.4,0,0,1,4.4-2.781m-5.558,4.084A23.9,23.9,0,0,0,23.689,20.9a24.462,24.462,0,0,0-.792,5.6H18.031a12.329,12.329,0,0,1,2.55-6.731M22.9,28.149a24.431,24.431,0,0,0,.792,5.6,24.172,24.172,0,0,0-3.108,1.134,12.321,12.321,0,0,1-2.55-6.731Z" transform="translate(13.074 10.618)" fill="#fff"/>
        <path id="Path_3505" data-name="Path 3505" d="M55.517,5.777H15.3a5.238,5.238,0,0,0-5.232,5.234V68.3A5.239,5.239,0,0,0,15.3,73.533H55.517A5.239,5.239,0,0,0,60.749,68.3V11.011a5.238,5.238,0,0,0-5.232-5.234M59.1,68.3a3.583,3.583,0,0,1-3.58,3.58H15.3a3.583,3.583,0,0,1-3.58-3.58V11.011A3.585,3.585,0,0,1,15.3,7.429H55.517a3.585,3.585,0,0,1,3.58,3.582Z" transform="translate(8.056 4.621)" fill="#fff"/>
        <path id="Path_3506" data-name="Path 3506" d="M1.762,15.993a3.586,3.586,0,0,1,2.592-4.35L43.332,1.764a3.579,3.579,0,0,1,4.352,2.592l.975,3.852a.827.827,0,0,0,1.6-.407l-.975-3.852A5.232,5.232,0,0,0,42.927.162L3.947,10.041A5.236,5.236,0,0,0,.162,16.4L14.235,71.933a.826.826,0,0,0,1.6-.407Z" transform="translate(0 0.001)" fill="#fff"/>
        <path id="Path_3507" data-name="Path 3507" d="M45.6,32.251H16.407a.826.826,0,1,0,0,1.652H45.6a.826.826,0,1,0,0-1.652" transform="translate(12.462 25.795)" fill="#fff"/>
        <path id="Path_3508" data-name="Path 3508" d="M41.425,35.618H18.013a.826.826,0,1,0,0,1.652H41.425a.826.826,0,1,0,0-1.652" transform="translate(13.746 28.488)" fill="#fff"/>
      </g>
    </g>
  </g>
</svg>
