<svg xmlns="http://www.w3.org/2000/svg" xmlns:xlink="http://www.w3.org/1999/xlink" width="161.861" height="161.86" viewBox="0 0 161.861 161.86">
  <defs>
    <clipPath id="clip-path">
      <rect id="Rectangle_451" data-name="Rectangle 451" width="95.846" height="72.112" fill="none"/>
    </clipPath>
  </defs>
  <g id="Group_3079" data-name="Group 3079" transform="translate(-738.812 -8618.557)">
    <path id="Path_3450" data-name="Path 3450" d="M332.4,81.43A80.93,80.93,0,1,1,251.474.5,80.929,80.929,0,0,1,332.4,81.43" transform="translate(568.268 8618.057)" fill="#9e1f63"/>
    <g id="Group_925" data-name="Group 925" transform="translate(771.817 8660.422)">
      <g id="Group_925-2" data-name="Group 925" transform="translate(0 0)" clip-path="url(#clip-path)">
        <path id="Path_3492" data-name="Path 3492" d="M73.03,49.812V61.186h5.7V44.14H13.414V20.831a2.891,2.891,0,0,0-.837-2.009,2.707,2.707,0,0,0-4.031,0,2.926,2.926,0,0,0-.827,2.009V61.186h5.695V49.812Z" transform="translate(4.706 10.927)" fill="#fff"/>
        <path id="Path_3493" data-name="Path 3493" d="M18.781,30.907a5.282,5.282,0,0,0,3.742-1.528,5.021,5.021,0,0,0,0-7.345,5.24,5.24,0,0,0-3.742-1.526,5,5,0,0,0-3.673,1.526,5.167,5.167,0,0,0,0,7.345,5.038,5.038,0,0,0,3.673,1.528" transform="translate(8.276 12.504)" fill="#fff"/>
        <path id="Path_3494" data-name="Path 3494" d="M75.105,37.209V30.269a3.484,3.484,0,0,0-1.175-2.695,5.742,5.742,0,0,0-3-1.32L29.755,22.227h-.272a2.564,2.564,0,0,0-1.882.766,2.59,2.59,0,0,0-.769,1.869v8.045H16.292c-1.756,0-2.63.72-2.63,2.154s.874,2.149,2.63,2.149Z" transform="translate(8.329 13.551)" fill="#fff"/>
        <path id="Path_3495" data-name="Path 3495" d="M93.9,28.891a1.918,1.918,0,0,1-.926-.237L47.8,4.433,2.875,28.553A1.951,1.951,0,1,1,1.038,25.11L47.8,0,94.819,25.218a1.956,1.956,0,0,1-.922,3.673" transform="translate(0 0.001)" fill="#fff"/>
      </g>
    </g>
  </g>
</svg>
