<svg xmlns="http://www.w3.org/2000/svg" xmlns:xlink="http://www.w3.org/1999/xlink" width="161.861" height="161.86" viewBox="0 0 161.861 161.86">
  <defs>
    <clipPath id="clip-path">
      <rect id="Rectangle_463" data-name="Rectangle 463" width="84.98" height="78.153" fill="#fff"/>
    </clipPath>
  </defs>
  <g id="Group_3080" data-name="Group 3080" transform="translate(-1023.892 -8618.557)">
    <path id="Path_3460" data-name="Path 3460" d="M502.448,81.43A80.93,80.93,0,1,1,421.517.5a80.929,80.929,0,0,1,80.93,80.93" transform="translate(683.305 8618.057)" fill="#40d3e2"/>
    <g id="Group_948" data-name="Group 948" transform="translate(1062.333 8659.054)">
      <g id="Group_947" data-name="Group 947" clip-path="url(#clip-path)">
        <path id="Path_3532" data-name="Path 3532" d="M0,136.351a2.018,2.018,0,0,1,2.145-1.2c.9.057,1.815.012,2.838.012v-1.026q0-8.547,0-17.094c0-5.339,3.558-8.913,8.871-8.916,5.338,0,10.677.011,16.015-.005A8.381,8.381,0,0,1,37.233,112q6.116,8.978,12.23,17.958a5.832,5.832,0,0,1-9.259,7.075c-2.292-2.733-4.527-5.514-6.789-8.273-.184-.224-.38-.437-.715-.821v1.086q0,15.434,0,30.869a8.866,8.866,0,0,1-.015.912,1.651,1.651,0,0,1-3.277.077,5.478,5.478,0,0,1-.025-.828q0-18.131,0-36.262c0-.111,0-.221,0-.332a1.663,1.663,0,0,1,1.1-1.763,1.632,1.632,0,0,1,1.97.642l5.149,6.291q2.469,3.018,4.936,6.037a2.549,2.549,0,0,0,2.771,1.035,2.468,2.468,0,0,0,1.483-3.755q-6.209-9.166-12.465-18.3a4.819,4.819,0,0,0-4.15-2.2q-8.422-.019-16.845,0a4.994,4.994,0,0,0-5.016,4.937c-.041,6.113-.014,12.225-.013,18.338a3.374,3.374,0,0,0,.047.375h3.4c0-.393,0-.769,0-1.145,0-1.853-.01-3.707,0-5.56a1.659,1.659,0,1,1,3.3-.039c.029,1.936.01,3.872.01,5.808,0,.3,0,.595,0,.993.907,0,1.729-.012,2.55,0A1.633,1.633,0,0,1,19.473,137q.028,4.937,0,9.874a1.693,1.693,0,0,1-1.9,1.891c-.774.019-1.548.022-2.321.034-.022,0-.045.027-.175.109v.811q0,5.186,0,10.373a3.945,3.945,0,0,1-.116,1.063,1.555,1.555,0,0,1-1.711,1.134,1.582,1.582,0,0,1-1.466-1.441,10.775,10.775,0,0,1-.021-1.078c0-3.62,0-7.24,0-10.953-.339-.018-.63-.048-.92-.048-2.821,0-5.643-.031-8.464.014A2.409,2.409,0,0,1,0,147.637ZM3.382,145.4h12.71v-6.89H3.382Z" transform="translate(0 -84.146)" fill="#fff"/>
        <path id="Path_3533" data-name="Path 3533" d="M240.153,140.96a4.791,4.791,0,0,0,3.441-4.7c.021-3.678.006-7.356.007-11.034,0-2.821.008-5.642,0-8.462a5.069,5.069,0,0,0-5.317-5.317c-5.393-.007-10.785.017-16.178-.012a5.327,5.327,0,0,0-4.748,2.512c-1.96,2.911-3.948,5.8-5.927,8.7a5.369,5.369,0,0,1-.493.665,1.642,1.642,0,0,1-2.673-1.857,5.45,5.45,0,0,1,.4-.631q2.986-4.387,5.973-8.773a8.428,8.428,0,0,1,7.417-3.936c5.365.02,10.73,0,16.1.006a8.393,8.393,0,0,1,8.773,8.758q.011,9.5,0,19a8.317,8.317,0,0,1-6.212,8.47c-.549.172-.56.478-.559.916q.011,7.343,0,14.685a8.106,8.106,0,0,1-.025.912,1.582,1.582,0,0,1-1.478,1.427,1.557,1.557,0,0,1-1.7-1.149,4.077,4.077,0,0,1-.111-1.065q-.008-15.638,0-31.276c0-.166-.006-.332.006-.5a1.709,1.709,0,0,1,1.658-1.728,1.643,1.643,0,0,1,1.648,1.793c.015,3.6.006,7.19.007,10.785v1.809" transform="translate(-161.944 -84.143)" fill="#fff"/>
        <path id="Path_3534" data-name="Path 3534" d="M280.434,11.186a10.938,10.938,0,0,1-2.009,7.848,10.065,10.065,0,0,1-11.153,3.4,9.842,9.842,0,0,1-6.79-9.354,25.062,25.062,0,0,1,.358-5.515c1.118-4.879,5.675-7.845,10.924-7.347a9.915,9.915,0,0,1,8.663,9.077c.052.743.007,1.492.007,1.895m-3.189.4-.127-.008c0-.69.044-1.384-.008-2.07A6.668,6.668,0,0,0,264,8.529a23.105,23.105,0,0,0-.2,4.619,6.667,6.667,0,0,0,13.122,1.476,22.713,22.713,0,0,0,.323-3.034" transform="translate(-202.726 -0.125)" fill="#fff"/>
        <path id="Path_3535" data-name="Path 3535" d="M55.074,11.419a10.559,10.559,0,0,1,2.031-7.533A10.142,10.142,0,0,1,68.12.468,9.867,9.867,0,0,1,75.034,9.65c.031,2.282.229,4.577-.635,6.8a10.039,10.039,0,0,1-11.083,6.213,9.907,9.907,0,0,1-8.236-9.122c-.043-.716-.006-1.437-.006-2.124m3.214-.05.1.006c0,.635-.032,1.272.005,1.906a6.592,6.592,0,0,0,6.125,6.2,6.5,6.5,0,0,0,7.013-5.154,22.518,22.518,0,0,0,.182-4.538A6.671,6.671,0,0,0,58.57,8.412a21.686,21.686,0,0,0-.282,2.957" transform="translate(-42.828 0)" fill="#fff"/>
        <path id="Path_3536" data-name="Path 3536" d="M238.184,175.353c-.785.96-1.563,1.925-2.356,2.877-.819.982-1.789,1.146-2.585.456-.746-.647-.74-1.62.036-2.574,1.745-2.145,3.5-4.278,5.247-6.426a1.724,1.724,0,0,1,2.014-.753c.775.259,1.134.868,1.134,1.908q0,18.38,0,36.759c0,1.129-.507,1.807-1.41,1.932a1.625,1.625,0,0,1-1.889-1.43,7.431,7.431,0,0,1-.018-.912q0-15.434,0-30.868v-.895l-.172-.074" transform="translate(-181.096 -131.4)" fill="#fff"/>
        <path id="Path_3537" data-name="Path 3537" d="M301.3,273.7c0,2.623.006,5.247,0,7.87,0,1.166-.626,1.876-1.621,1.89a1.649,1.649,0,0,1-1.689-1.836c-.011-5.357,0-10.714-.007-16.071a1.552,1.552,0,0,1,.974-1.664,2.033,2.033,0,0,1,1.6.155,2.218,2.218,0,0,1,.713,1.538c.069,2.7.032,5.411.032,8.118" transform="translate(-231.909 -205.306)" fill="#fff"/>
        <path id="Path_3538" data-name="Path 3538" d="M92.766,273.185c0-2.706-.014-5.412.006-8.118A1.656,1.656,0,1,1,96.079,265q.009,8.16,0,16.32a1.654,1.654,0,1,1-3.3-.02c-.014-2.706,0-5.412-.005-8.118" transform="translate(-72.194 -204.899)" fill="#fff"/>
      </g>
    </g>
  </g>
</svg>
