<svg xmlns="http://www.w3.org/2000/svg" xmlns:xlink="http://www.w3.org/1999/xlink" width="162.861" height="162.86" viewBox="0 0 162.861 162.86">
  <defs>
    <clipPath id="clip-path">
      <rect id="Rectangle_457" data-name="Rectangle 457" width="74.559" height="61.534" fill="none"/>
    </clipPath>
  </defs>
  <g id="Group_3081" data-name="Group 3081" transform="translate(-1291.831 -8618.057)">
    <circle id="Ellipse_144" data-name="Ellipse 144" cx="80.93" cy="80.93" r="80.93" transform="translate(1292.331 8618.557)" fill="#545270" stroke="#fff" stroke-miterlimit="10" stroke-width="1"/>
    <g id="Group_938" data-name="Group 938" transform="translate(1335.981 8665.711)">
      <g id="Group_937" data-name="Group 937" transform="translate(0 0)" clip-path="url(#clip-path)">
        <path id="Path_3513" data-name="Path 3513" d="M6.835,28.72,17.5,30.041a2.7,2.7,0,0,1,2.482,2.578v1.987a.685.685,0,0,1-.71.684l-10.662-.4a2.98,2.98,0,0,1-2.835-2.947v-2.2A.992.992,0,0,1,6.835,28.72m5.083-5.4c-.684.1-.771-.378-.514-.736l8.128-10.126a1.879,1.879,0,0,1,1.321-.749,210.48,210.48,0,0,1,23.926-.563V7.571a243.862,243.862,0,0,0-25.077.6,3.832,3.832,0,0,0-2.579,1.443L10.469,17.8H2.748A2.248,2.248,0,0,0,.722,19.4l-.7,2.624c-.093.347.148.494.467.639l4.4,2L3.1,26.858a8.425,8.425,0,0,0-1.585,5.531v22a1.642,1.642,0,0,0,1.635,1.633H15.111a1.638,1.638,0,0,0,1.635-1.633V52.2h35.92V36.021l-1.481-1.99v-4H49.631a4.857,4.857,0,0,1-4.852-4.85V22.564c-10.435-.2-20.007.03-32.862.755M66.944,4.927H55.738a1.134,1.134,0,0,0-1.131,1.13v5.156a1.135,1.135,0,0,0,1.131,1.132H66.944a1.135,1.135,0,0,0,1.13-1.132V6.058a1.134,1.134,0,0,0-1.13-1.13M70.824,0H51.858c-.829,0-3.734,2.907-3.734,3.735V25.178a1.511,1.511,0,0,0,1.507,1.507H73.05a1.513,1.513,0,0,0,1.509-1.507V3.735C74.559,2.906,71.653,0,70.824,0m-16.3,28.319v4.606l1.481,1.99V57.576c0,1.2,1.08,1.725,2.19,2.188l.64.27V35.274a.6.6,0,0,1,.6-.6H60.88V60.889l1.365.572a1.055,1.055,0,0,0,.949-.085,22.961,22.961,0,0,0,2.68-1.8,1.988,1.988,0,0,0,.8-1.522V34.915l1.481-1.99V28.319Z" transform="translate(0 0)" fill="#fff" fill-rule="evenodd"/>
      </g>
    </g>
  </g>
</svg>
