<svg xmlns="http://www.w3.org/2000/svg" xmlns:xlink="http://www.w3.org/1999/xlink" width="161.861" height="161.86" viewBox="0 0 161.861 161.86">
  <defs>
    <clipPath id="clip-path">
      <rect id="Rectangle_454" data-name="Rectangle 454" width="94.136" height="48.381" fill="none"/>
    </clipPath>
  </defs>
  <g id="Group_3082" data-name="Group 3082" transform="translate(-465 -8917.557)">
    <path id="Path_3448" data-name="Path 3448" d="M162.361,81.43A80.93,80.93,0,1,1,81.43.5a80.929,80.929,0,0,1,80.93,80.93" transform="translate(464.5 8917.057)" fill="#00aeef"/>
    <g id="Group_932" data-name="Group 932" transform="translate(498.862 8975.213)">
      <g id="Group_931" data-name="Group 931" transform="translate(0 0)" clip-path="url(#clip-path)">
        <path id="Path_3509" data-name="Path 3509" d="M1.881,24.629H4.456a1.924,1.924,0,0,0,1.891-1.946V9.116A1.912,1.912,0,0,0,4.456,7.188H1.881A1.92,1.92,0,0,0,0,9.116V22.683a1.932,1.932,0,0,0,1.881,1.946m21.983,8.6a4.985,4.985,0,1,0,4.842,4.979,4.941,4.941,0,0,0-4.842-4.979m0-5.2a10.18,10.18,0,0,1,0,20.354,10.18,10.18,0,0,1,0-20.354m54.712,5.2a4.984,4.984,0,1,0,4.857,4.979,4.928,4.928,0,0,0-4.857-4.979m0-5.2a10.18,10.18,0,1,1-9.939,10.161,10.048,10.048,0,0,1,9.939-10.161M36.948,17.052V4a.676.676,0,0,0-.671-.677H22.524c-6.188,0-5.055,5.294-5.128,13.711a.747.747,0,0,0,.184.492.607.607,0,0,0,.485.211H36.277a.687.687,0,0,0,.671-.681M6.871,22.27C7.245,9.116,5.26.017,16.365.017H44.1q1.347-.033,2.685,0C60.922.374,63.866,6.68,70.695,15.645c.614.8,2.234,1.478,4.446,1.67l12.9,1.149c5.29.461,5.976,4.172,6.026,9.646l.07,6.085c.079,3.485-2.276,3.924-3.336,3.993a12.235,12.235,0,1,0-24.462,0v.022H36.09v-.022A12.388,12.388,0,0,0,23.864,25.661a12.4,12.4,0,0,0-12.25,12.487l-2.45-.054A5.372,5.372,0,0,1,4.326,32.72V29.948a2.963,2.963,0,0,1,2.532-2.7V22.566a2.143,2.143,0,0,1,.013-.3m-.013.3h0m57.92-4.837c1.629,0,1.266-1.772.951-2.226C56.232,2.115,49.644,3.438,43.317,3.478a.825.825,0,0,0-.816.833V16.918a.811.811,0,0,0,.816.814l21.461,0" transform="translate(0 0)" fill="#fff"/>
      </g>
    </g>
  </g>
</svg>
