<svg xmlns="http://www.w3.org/2000/svg" xmlns:xlink="http://www.w3.org/1999/xlink" width="161.861" height="161.86" viewBox="0 0 161.861 161.86">
  <defs>
    <clipPath id="clip-path">
      <rect id="Rectangle_455" data-name="Rectangle 455" width="73.348" height="68.828" fill="none"/>
    </clipPath>
  </defs>
  <g id="Group_3083" data-name="Group 3083" transform="translate(-738.812 -8917.557)">
    <path id="Path_3450" data-name="Path 3450" d="M332.4,81.43A80.93,80.93,0,1,1,251.474.5,80.929,80.929,0,0,1,332.4,81.43" transform="translate(568.268 8917.057)" fill="#545270"/>
    <g id="Group_934" data-name="Group 934" transform="translate(783.068 8955.848)">
      <g id="Group_933" data-name="Group 933" transform="translate(0 0)" clip-path="url(#clip-path)">
        <path id="Path_3510" data-name="Path 3510" d="M29.933,47.5l1.7,4.254a29.75,29.75,0,0,1-4.894,1.494L25.8,48.758A25.311,25.311,0,0,0,29.933,47.5M16.291,52.989a20.114,20.114,0,0,0,5.256.77l.071-4.584a15.58,15.58,0,0,1-4.061-.592Zm36.1-8a14.494,14.494,0,0,1,3.833,1.343l2.1-4.074a19.006,19.006,0,0,0-5.049-1.762Zm-9.562-3.76,1.37,4.369a18.905,18.905,0,0,1,4.118-.824l-.366-4.566a23.311,23.311,0,0,0-5.122,1.021m8.213-26.862a14.279,14.279,0,0,1-1.559,6.52L36.673,45.971s-12.906-25.291-12.958-25.4a14.367,14.367,0,1,1,27.324-6.206m-7.489.1a6.876,6.876,0,1,0-6.876,6.876,6.878,6.878,0,0,0,6.876-6.876M59.6,27.569H48.842L46.5,32.155h9.79L61.237,47l-1.58,1.745a15.393,15.393,0,0,1,2.561,2.929l.485-.291,4.283,12.862H6.357l4.593-13.766c.161.111.285.218.465.329l2.435-3.875a14.3,14.3,0,0,1-1.387-1l4.593-13.774h9.794c-.971-1.9-1.737-3.4-2.341-4.586H13.753L0,68.828H73.348Z" transform="translate(0 0)" fill="#fff"/>
      </g>
    </g>
  </g>
</svg>
