<svg xmlns="http://www.w3.org/2000/svg" xmlns:xlink="http://www.w3.org/1999/xlink" width="161.86" height="161.86" viewBox="0 0 161.86 161.86">
  <defs>
    <clipPath id="clip-path">
      <rect id="Rectangle_452" data-name="Rectangle 452" width="84.445" height="85.017" fill="none"/>
    </clipPath>
  </defs>
  <g id="Group_3085" data-name="Group 3085" transform="translate(-1292.33 -8917.557)">
    <path id="Path_3463" data-name="Path 3463" d="M672.492,81.43A80.93,80.93,0,1,1,591.561.5a80.929,80.929,0,0,1,80.93,80.93" transform="translate(781.699 8917.057)" fill="#caa5ca"/>
    <g id="Group_926" data-name="Group 926" transform="translate(1331.252 8956.777)" clip-path="url(#clip-path)">
      <path id="Path_3496" data-name="Path 3496" d="M24.959,1.82A6.76,6.76,0,1,1,18.2,8.579,6.76,6.76,0,0,1,24.959,1.82" transform="translate(10.695 1.07)" fill="#fff"/>
      <path id="Path_3497" data-name="Path 3497" d="M20.167,43.662a6.053,6.053,0,0,1-3.2,1.059V55.444a3.914,3.914,0,0,0,7.829,0V48.033a5.5,5.5,0,0,1-4.628-4.371" transform="translate(9.97 25.658)" fill="#fff"/>
      <path id="Path_3498" data-name="Path 3498" d="M22.961,53.807a3.914,3.914,0,1,0,7.827,0V46.448H22.961Z" transform="translate(13.493 27.296)" fill="#fff"/>
      <path id="Path_3499" data-name="Path 3499" d="M10.36,16.054a3.252,3.252,0,0,0,1.294,1.365L24.4,24.707V38.08a9.4,9.4,0,0,1,5.773,8.605c0,.368.014,2.988.017,3.353a5.406,5.406,0,0,1,2.5-.759V48.9a5.706,5.706,0,0,1,5.7-5.7h3.29V25.458h2.451q.219-.626.4-1.169a16.028,16.028,0,0,1,2.943-5.354H27.449l-11.7-6.692L10.487,1.8A3.261,3.261,0,0,0,4.66,4.728Z" transform="translate(2.534 0.001)" fill="#fff"/>
      <path id="Path_3500" data-name="Path 3500" d="M71.726,39.746c-.052-.144-5.309-14.524-7.624-21.26-1.492-4.347-4-6.551-7.443-6.551H45.5c-4.117,0-6.23,3.036-7.559,6.887-2.175,6.292-7.583,21.166-7.583,21.166a20.1,20.1,0,0,0-2.3.032l-.044.008A1.9,1.9,0,0,0,26.5,41.889v4.168H23a1.688,1.688,0,0,0-1.688,1.688v13.5A1.688,1.688,0,0,0,23,62.932H43.551a1.688,1.688,0,0,0,1.688-1.688v-13.5a1.688,1.688,0,0,0-1.688-1.688h-3.5V41.889a1.9,1.9,0,0,0-1.9-1.9H37.2c1.7-4.661,4.02-11.083,5.679-15.778-.162,1.318.17-.513-2.351,12.5a5.705,5.705,0,0,1,3.32,5.177v.376a5.5,5.5,0,0,1,5.19,5.479v13.5a5.494,5.494,0,0,1-5.488,5.487h-1.03v7.41a3.864,3.864,0,0,0,7.727,0V50.312h1.667V74.141a3.864,3.864,0,0,0,7.727,0V50.312H62.1a1.79,1.79,0,0,0,1.756-2.131c-4.947-25.537-4.4-22.557-4.572-23.972,2.578,7.3,6.352,17.626,6.4,17.748a3.22,3.22,0,1,0,6.047-2.212M33.46,44.072a3.208,3.208,0,0,0,1.315-.284h1.477v2.269H30.3V43.788h1.851a3.13,3.13,0,0,0,1.311.284" transform="translate(12.523 7.014)" fill="#fff"/>
      <path id="Path_3501" data-name="Path 3501" d="M26.7,56.133a2.39,2.39,0,0,0,2.378-2.4L28.989,36.17a5.669,5.669,0,0,0-5.657-5.63H12.585L6.2,28.1,4.744,19.9a2.39,2.39,0,1,0-4.707.834L1.726,30.27a2.389,2.389,0,0,0,1.5,1.816l7.319,2.793,0,36.733a2.868,2.868,0,1,0,5.736,0c0-20.02,0-17.939,0-18.164h1.246c-.006.213,0-1.723,0,18.164a2.869,2.869,0,0,0,5.738,0V58.794L23.21,36.2a.5.5,0,0,1,1,0L24.3,53.755a2.389,2.389,0,0,0,2.389,2.378H26.7" transform="translate(0 10.535)" fill="#fff"/>
      <path id="Path_3502" data-name="Path 3502" d="M6.773,23.108a6.185,6.185,0,1,0,6.184-6.182,6.162,6.162,0,0,0-6.184,6.182" transform="translate(3.98 9.947)" fill="#fff"/>
      <path id="Path_3503" data-name="Path 3503" d="M42.531,15.534A6.672,6.672,0,1,0,35.86,8.863a6.674,6.674,0,0,0,6.671,6.671" transform="translate(21.073 1.288)" fill="#fff"/>
    </g>
  </g>
</svg>
