<svg xmlns="http://www.w3.org/2000/svg" width="20.707" height="20.602" viewBox="0 0 20.707 20.602">
  <g id="Group_769" data-name="Group 769" transform="translate(-2279 -1005.97)">
    <path id="Path_3054" data-name="Path 3054" d="M2298.111,1055.75a.516.516,0,0,0-.516.516v4.578a1.549,1.549,0,0,1-1.547,1.547h-14.469a1.549,1.549,0,0,1-1.547-1.547v-13.438a1.549,1.549,0,0,1,1.547-1.547h4.579a.516.516,0,0,0,0-1.031h-4.579a2.582,2.582,0,0,0-2.579,2.578v13.438a2.582,2.582,0,0,0,2.579,2.578h14.469a2.581,2.581,0,0,0,2.578-2.578v-4.579a.515.515,0,0,0-.515-.516Zm0,0" transform="translate(0 -36.852)" fill="#102838"/>
    <path id="Path_3055" data-name="Path 3055" d="M2400.892,1006.649a2.32,2.32,0,0,0-3.281,0l-9.2,9.2a.521.521,0,0,0-.132.227l-1.21,4.368a.516.516,0,0,0,.635.635l4.368-1.21a.518.518,0,0,0,.227-.133l9.2-9.2a2.323,2.323,0,0,0,0-3.282Zm-11.358,9.535,7.53-7.53,2.428,2.428-7.53,7.53Zm-.485.974,1.94,1.94-2.684.744Zm11.719-7.351-.547.547-2.429-2.428.548-.547a1.289,1.289,0,0,1,1.823,0l.605.6a1.291,1.291,0,0,1,0,1.824Zm0,0" transform="translate(-102.47)" fill="#102838"/>
  </g>
</svg>
