<svg id="Group_2906" data-name="Group 2906" xmlns="http://www.w3.org/2000/svg" xmlns:xlink="http://www.w3.org/1999/xlink" width="28.602" height="29.969" viewBox="0 0 28.602 29.969">
  <defs>
    <clipPath id="clip-path">
      <rect id="Rectangle_1082" data-name="Rectangle 1082" width="28.602" height="29.969" fill="#fff"/>
    </clipPath>
  </defs>
  <g id="Group_2906-2" data-name="Group 2906" clip-path="url(#clip-path)">
    <path id="Path_4225" data-name="Path 4225" d="M15.07,0c.993.273,1.984.55,2.979.818q4.444,1.2,8.889,2.387A2.054,2.054,0,0,1,28.5,5.937q-3,11.191-6,22.383a2.044,2.044,0,0,1-2.09,1.647,4.462,4.462,0,0,1-.914-.183c-2.146-.572-4.289-1.152-6.435-1.724a2.044,2.044,0,0,0-.518-.065q-5.649-.005-11.3,0c-.88,0-1.247-.363-1.247-1.24q0-10,0-19.993C0,5.867.367,5.5,1.264,5.5q5.064,0,10.128.005a.315.315,0,0,0,.372-.286c.307-1.188.639-2.37.948-3.557A2.067,2.067,0,0,1,14.3.05c.025-.006.045-.033.067-.05ZM1.029,26.977h15.1c.874,0,1.242-.37,1.243-1.249q0-8.984,0-17.968c0-.86-.37-1.234-1.226-1.235q-7.4,0-14.807,0c-.1,0-.2.01-.309.016Zm15.692.983c.112.038.183.067.256.087q1.538.413,3.076.823a1.056,1.056,0,0,0,1.469-.856q3-11.188,6-22.378a1.051,1.051,0,0,0-.851-1.448Q20.932,2.647,15.188,1.112a1.077,1.077,0,0,0-1.509.881q-.367,1.369-.728,2.739c-.066.249-.131.5-.2.773H16.3a1.773,1.773,0,0,1,1.505.647,1.709,1.709,0,0,0,1.139.652,4.355,4.355,0,0,1,.534.15.4.4,0,0,0,.464-.113c.87-.826,1.751-1.641,2.631-2.456.074-.069.183-.168.259-.155a7.53,7.53,0,0,1,.775.2L21.725,7.54a4.4,4.4,0,0,1,.578.17,1.492,1.492,0,0,0,1.72-.238.737.737,0,0,1,.885-.026c-.224.342-.428.683-.663,1a.953.953,0,0,0-.191.732c.048.384.049.774.072,1.179-.33-.036-.6-.091-.74-.431a5.012,5.012,0,0,0-.37-.663c-.043-.072-.1-.171-.164-.191-.463-.138-.93-.259-1.395-.384v3.619a2.8,2.8,0,0,0-.416-.1c-.307-.028-.434-.2-.517-.485C20.2,10.609,19.858,9.5,19.514,8.4c-.031-.1-.1-.234-.179-.263-.291-.1-.6-.17-.917-.257v7.861l1.031.276-.527,1.967-.519-.123v.384q0,3.746,0,7.492a2.865,2.865,0,0,1-.077.724,2.044,2.044,0,0,1-1.6,1.5" transform="translate(0)" fill="#fff"/>
    <path id="Path_4226" data-name="Path 4226" d="M44.544,107.348a6.134,6.134,0,1,1-6.136,6.113,6.137,6.137,0,0,1,6.136-6.113m-1.484,7.392h2.951c0-.805,0-1.591-.009-2.376,0-.056-.133-.153-.208-.157-.33-.017-.662-.008-.993-.008h-1.74Zm4,0h2.405a4.458,4.458,0,0,0-.008-2.525h-2.4ZM42.011,112.2c-.754,0-1.5,0-2.251.007a.263.263,0,0,0-.179.166,4.472,4.472,0,0,0,.032,2.368h2.4Zm1.255,3.589a8.752,8.752,0,0,0,1.012,2.6c.168.278.372.288.513,0q.426-.878.8-1.78a6.294,6.294,0,0,0,.218-.819Zm0-4.619H45.8a8.139,8.139,0,0,0-1.062-2.686.235.235,0,0,0-.42.021,8.446,8.446,0,0,0-1.053,2.665M40,115.779a5.11,5.11,0,0,0,3.012,2.549c.01-.044.021-.064.016-.079-.259-.772-.516-1.544-.783-2.313-.022-.064-.109-.15-.167-.151-.669-.011-1.338-.007-2.077-.007m6.086,2.544a5.1,5.1,0,0,0,2.983-2.543c-.735,0-1.414,0-2.094.006-.049,0-.122.084-.141.143-.253.793-.5,1.589-.748,2.393m.83-7.156h2.149a5.087,5.087,0,0,0-3-2.53l.848,2.53m-3.91-2.537a5.119,5.119,0,0,0-3,2.544h2.147l.852-2.544" transform="translate(-35.341 -98.776)" fill="#fff"/>
    <rect id="Rectangle_1081" data-name="Rectangle 1081" width="10.194" height="0.988" transform="translate(4.103 23.927)" fill="#fff"/>
    <path id="Path_4227" data-name="Path 4227" d="M233.741,256.625l.986.265-1.849,6.907-.988-.261,1.851-6.911" transform="translate(-213.374 -236.134)" fill="#fff"/>
    <path id="Path_4228" data-name="Path 4228" d="M263.24,207.472l-.527,1.965-.986-.258.527-1.971.986.264" transform="translate(-240.828 -190.663)" fill="#fff"/>
    <path id="Path_4229" data-name="Path 4229" d="M286.332,179.8l.964.256-.253.983-.97-.25.259-.989" transform="translate(-263.231 -165.445)" fill="#fff"/>
    <path id="Path_4230" data-name="Path 4230" d="M237.462,167.918l.26-.985.965.256-.256.981-.97-.252" transform="translate(-218.502 -153.604)" fill="#fff"/>
    <path id="Path_4231" data-name="Path 4231" d="M262.024,173.366l.964.254-.255.985-.968-.256.259-.983" transform="translate(-240.864 -159.523)" fill="#fff"/>
  </g>
</svg>
