<svg xmlns="http://www.w3.org/2000/svg" width="18.78" height="25.293" viewBox="0 0 18.78 25.293">
  <g id="Group_259" data-name="Group 259" transform="translate(0 0)">
    <path id="Path_344" data-name="Path 344" d="M568.859,1437.972s0-7.125-.006-7.833c.006-.645-.013-16.176-.013-16.176h-.366s-2.963,1.631-2.963,13.726c2.275.611,1.319,3.036,1.145,3.348,0,.616.048,6.935.048,6.935h.006c0,.007,0,.01,0,.022a1.077,1.077,0,0,0,2.153,0l-.006-.018Z" transform="translate(-550.079 -1413.854)" fill="#706f6f"/>
    <path id="Path_345" data-name="Path 345" d="M565.764,1414.273h-.646l.192,6.577h-.772v-6.577h-.563v6.622h-.646v-6.622h-.621v6.622h-.762l.221-6.625h-.592l-.711,5.6s-.019.214-.019.29a2.716,2.716,0,0,0,1.053,2.139c2.115,2.331.671,4.71.671,5.271,0,.623,0,10.246,0,10.246l0,.021a1.1,1.1,0,0,0,2.189,0l0-.021h0v-10.224c0-.656-1.224-3.391.818-5.423l.013-.007a2.752,2.752,0,0,0,.876-1.806c0-.051,0-.177,0-.177Z" transform="translate(-552.238 -1413.713)" fill="#706f6f"/>
    <path id="Path_346" data-name="Path 346" d="M558.726,1413.889h-.063c-2.371.033-3.7,2.25-3.7,4.656a4.675,4.675,0,0,0,2.793,4.541c.715.975.244,3.282-.257,4.611V1438.1a1.092,1.092,0,0,0,1.11,1.078h.18a1.088,1.088,0,0,0,1.1-1.078V1427.7c-.5-1.329-.971-3.636-.257-4.611a4.676,4.676,0,0,0,2.8-4.541c0-2.406-1.338-4.623-3.7-4.656m-1.239,8.258a3.373,3.373,0,0,1-.532-.525,5.8,5.8,0,0,1-.608-.857c-.1-.168-.183-.344-.266-.532a3.887,3.887,0,0,1-.192-.613,3.981,3.981,0,0,1-.021-1.231,5.143,5.143,0,0,1,.217-1.01,3.944,3.944,0,0,1,.281-.689,1.14,1.14,0,0,1,.155-.24s-.017.107-.026.273-.016.42-.021.711a12.1,12.1,0,0,0,.054,2.069,2.5,2.5,0,0,0,.137.518c.054.17.121.344.187.51.137.332.278.636.4.9s.235.484.323.633.159.219.164.212a.646.646,0,0,1-.255-.13" transform="translate(-554.959 -1413.889)" fill="#706f6f"/>
  </g>
</svg>
