<svg xmlns="http://www.w3.org/2000/svg" width="22.898" height="24.476" viewBox="0 0 22.898 24.476">
  <g id="Group_263" data-name="Group 263" transform="translate(0 0)">
    <path id="Path_354" data-name="Path 354" d="M704.48,1418.253h-1.8v6.173h.714v2.834h-1.362V1417.9a3.445,3.445,0,0,0-3.442-3.448H687.249a3.445,3.445,0,0,0-3.441,3.448v9.185h-1.186v-3.015h.755v-6.17h-1.794v6.17h.756v3.3h1.47v6.745a3.456,3.456,0,0,0,1.794,3.027v1.78h3.011v-1.36h8.543v1.362h3.015v-1.749a3.438,3.438,0,0,0,1.865-3.062v-6.568h1.653v-3.122h.791Zm-15.5-3.089h8.039v1.869h-8.039Zm.861,18.808h-4.452v-2.011h4.452Zm10.765,0h-4.449v-2.011H700.6Zm0-6.461s-.86,2.73-7.749,2.73-7.612-2.73-7.612-2.73v-9.475H700.6Z" transform="translate(-681.582 -1414.448)" fill="#706f6f"/>
  </g>
</svg>
