<svg xmlns="http://www.w3.org/2000/svg" width="36.735" height="18.414" viewBox="0 0 36.735 18.414">
  <g id="Group_261" data-name="Group 261" transform="translate(0 0)">
    <path id="Path_352" data-name="Path 352" d="M631.157,1426.966h1a.742.742,0,0,0,.739-.741v-5.164a.736.736,0,0,0-.739-.733h-1a.739.739,0,0,0-.734.733v5.164a.745.745,0,0,0,.734.741m8.578,3.274a1.9,1.9,0,1,0,1.889,1.894,1.9,1.9,0,0,0-1.889-1.894m0-1.981a3.874,3.874,0,1,1-3.878,3.868,3.873,3.873,0,0,1,3.878-3.868m21.349,1.981a1.9,1.9,0,1,0,1.9,1.894,1.9,1.9,0,0,0-1.9-1.894m0-1.981a3.874,3.874,0,1,1-3.878,3.868,3.873,3.873,0,0,1,3.878-3.868m-16.244-4.177v-4.969a.262.262,0,0,0-.262-.259h-5.367c-2.414,0-1.971,2.015-2,5.219a.285.285,0,0,0,.072.187.239.239,0,0,0,.189.081h7.107a.265.265,0,0,0,.262-.259m-11.737,1.986c.146-5.007-.629-8.47,3.706-8.47h10.823q.527-.011,1.049,0c5.515.137,6.664,2.537,9.329,5.949a2.621,2.621,0,0,0,1.734.636l5.034.437c2.065.174,2.333,1.587,2.352,3.671l.028,2.316a1.3,1.3,0,0,1-1.3,1.52,4.773,4.773,0,0,0-9.545,0v.007h-11.8v-.007a4.775,4.775,0,0,0-9.551-.016l-.955-.021a2.063,2.063,0,0,1-1.889-2.044v-1.056a1.142,1.142,0,0,1,.989-1.028v-1.781a.941.941,0,0,1,0-.113m0,.113h0m22.6-1.841c.636,0,.494-.674.371-.847-3.706-5.1-6.277-4.593-8.745-4.577a.318.318,0,0,0-.319.317v4.8a.312.312,0,0,0,.319.31H655.7" transform="translate(-630.423 -1417.592)" fill="#706f6f"/>
  </g>
</svg>
