<svg xmlns="http://www.w3.org/2000/svg" width="20.13" height="25.095" viewBox="0 0 20.13 25.095">
  <g id="Group_260" data-name="Group 260" transform="translate(0 0)">
    <path id="Path_347" data-name="Path 347" d="M607.681,1424.179v-6.146l1.789.123v-2.932l-5.035.415v2.1h.54v4.095h-7.287a2.569,2.569,0,0,0-2.311,2.469v14.264l6.474-.04v-13.688h5.1s.728-.018.728-.659" transform="translate(-594.994 -1413.471)" fill="#706f6f"/>
    <path id="Path_348" data-name="Path 348" d="M602.53,1426.842a1.567,1.567,0,0,0-1.457,1.664v4.647s4.893-.064,4.86-.034v-4.026h4.583a2.263,2.263,0,0,0,1.974-2.252Z" transform="translate(-592.36 -1408.099)" fill="#706f6f"/>
    <path id="Path_349" data-name="Path 349" d="M607.021,1415.07s-1.7.035-1.7,0v3.334h1.7Z" transform="translate(-590.396 -1413.542)" fill="#706f6f"/>
    <rect id="Rectangle_135" data-name="Rectangle 135" width="1.075" height="1.595" transform="translate(7.913 2.395)" fill="#706f6f"/>
    <path id="Path_350" data-name="Path 350" d="M598.655,1421.106a3.54,3.54,0,1,0-3.54-3.542,3.542,3.542,0,0,0,3.54,3.542" transform="translate(-595.115 -1414.025)" fill="#706f6f"/>
    <path id="Path_351" data-name="Path 351" d="M603.582,1428.037a2.792,2.792,0,1,0-2.793-2.795,2.8,2.8,0,0,0,2.793,2.795" transform="translate(-592.491 -1410.128)" fill="#706f6f"/>
  </g>
</svg>
