<svg id="Group_2759" data-name="Group 2759" xmlns="http://www.w3.org/2000/svg" xmlns:xlink="http://www.w3.org/1999/xlink" width="78.038" height="71.543" viewBox="0 0 78.038 71.543">
  <defs>
    <clipPath id="clip-path">
      <rect id="Rectangle_1000" data-name="Rectangle 1000" width="78.038" height="71.543" fill="#fff"/>
    </clipPath>
  </defs>
  <g id="Group_2758" data-name="Group 2758" clip-path="url(#clip-path)">
    <path id="Path_4116" data-name="Path 4116" d="M49.023,11.516c1.674-.425,3.2-.841,4.749-1.192a6.629,6.629,0,0,1,2.069-.223,2.748,2.748,0,0,1,2.451,2.555c.208,3.753.311,7.513.428,11.27a3.374,3.374,0,0,1-1.985,3.036,21.479,21.479,0,0,1-2.34,1.054c2.854,2.52,4.713,5.8,6.518,9.084a4.69,4.69,0,0,0,4.566,2.735c1.867-.033,3.737.089,5.606.137,3.842.1,6.3,2.244,6.77,6.074a45.7,45.7,0,0,1,.169,4.862c.025,1.706.009,3.413,0,5.12A4.94,4.94,0,0,1,72.9,61.307c-.107,0-.213.018-.39.034-.1.547-.192,1.1-.314,1.645a10.993,10.993,0,1,1,.134-4.083c.086.609.311.767.883.715a3.206,3.206,0,0,0,3.075-3.182c.054-2.111.005-4.225.029-6.338.006-.508-.2-.652-.67-.66a8.224,8.224,0,0,1-1.612-.147,4.56,4.56,0,0,1-3.68-4.119c-.1-1.126-.017-2.267-.017-3.492-.365-.023-.623-.045-.882-.053-1.571-.048-3.141-.1-4.712-.138a5.717,5.717,0,0,1-5.024-3.039c-1.427-2.36-2.885-4.706-4.434-6.987a7.653,7.653,0,0,0-6.522-3.535c-7.45-.049-14.9-.03-22.352-.009a8.535,8.535,0,0,0-6.323,2.873,41.4,41.4,0,0,0-6.162,8.241c-.1.184-.2.374-.312.592.239.179.454.336.664.5a4.357,4.357,0,0,1,1.829,3.47,16.092,16.092,0,0,1-.294,3.388,5.215,5.215,0,0,1-5.3,4.154c-.185,0-.371,0-.785,0-.011,1.81-.035,3.608-.021,5.405a3.034,3.034,0,0,0,.246,1.1,3.116,3.116,0,0,0,3.08,1.906,11.049,11.049,0,0,1,4.767-8.017A10.6,10.6,0,0,1,24.072,49.6a10.734,10.734,0,0,1,7.371,2.935,11.036,11.036,0,0,1,3.49,7.08h2.022q5.284,0,10.567,0c.854,0,1.271.449,1.064,1.107-.177.562-.64.578-1.12.578q-5.771,0-11.542,0h-.957a11.1,11.1,0,0,1-4.611,8.168,10.926,10.926,0,0,1-13.95-1,10.929,10.929,0,0,1-3.369-7.075c-3.494-.668-4.715-1.922-5.117-5.126-1.4-.231-2.787-.427-4.157-.69A4.4,4.4,0,0,1,.109,50.127C.981,45.749,1.834,41.368,2.735,37a4.35,4.35,0,0,1,5.312-3.531c.613.109,1.219.257,1.834.348a4.81,4.81,0,0,1,3.692,2.332c2.693-3.488,4.968-7.318,9.127-9.28-1.113-2.426-1-5.026-.886-7.572A2.624,2.624,0,0,0,20.2,16.5a8.879,8.879,0,0,0-7.457-1.086,8.236,8.236,0,0,0-.1,15.615,3.846,3.846,0,0,0,.387.12c.638.147.971.531.761,1.177s-.763.616-1.285.451a9.764,9.764,0,0,1-6.486-6.021,9.942,9.942,0,0,1,14.2-12.18c.54.3,1.077.611,1.625.923a23.821,23.821,0,0,1,.945-3.173,3.476,3.476,0,0,1,2.732-1.809q0-2.593,0-5.185C25.517,2.016,27.505.008,30.8,0q6.5-.007,13,0a4.889,4.889,0,0,1,5.211,5.179c.021,1.761,0,3.521,0,5.282,0,.29,0,.581,0,1.049m-21.767-.757c1.782.3,3.509.613,5.243.877a.767.767,0,0,0,.6-.319,2.847,2.847,0,0,1,5.153.408.855.855,0,0,0,.622.434c1.3.033,2.6,0,3.9,0a.772.772,0,0,0,.83-.579,2.567,2.567,0,0,1,2.2-1.688,13.767,13.767,0,0,1,1.5-.009c0-1.413,0-2.9,0-4.383,0-2.585-1.185-3.789-3.754-3.793q-6.211-.01-12.423,0a9.7,9.7,0,0,0-1.053.044,2.976,2.976,0,0,0-2.794,2.787c-.094,2.022-.023,4.052-.023,6.219m5.976,49.913a9.239,9.239,0,1,0-9.347,9.135,9.21,9.21,0,0,0,9.347-9.135m19.042-.081a9.24,9.24,0,1,0,9.217-9.259,9.226,9.226,0,0,0-9.217,9.259M7.9,54.329c.024-.266.038-.372.042-.479A33.093,33.093,0,0,1,11.926,39.11a2.171,2.171,0,0,0-1.3-3.327A17.993,17.993,0,0,0,7.21,35.1a2.5,2.5,0,0,0-2.755,2.022Q3.047,43.958,1.742,50.81a2.573,2.573,0,0,0,2,3c.97.24,1.955.433,2.943.589A5.743,5.743,0,0,0,7.9,54.329M32.664,26.141c.044-.095.086-.143.086-.191.01-4.029.023-8.057,0-12.086,0-.176-.317-.467-.525-.508-1.881-.371-3.772-.689-5.656-1.042a2.07,2.07,0,0,0-2.661,1.867,37.415,37.415,0,0,0-.294,9.377,7.1,7.1,0,0,0,.455,2.036,1.3,1.3,0,0,0,.941.689c2.322.015,4.645-.06,6.968-.108.236-.005.473-.024.686-.036m24.392-6.4.078,0c-.17-2.21-.314-4.422-.519-6.627-.106-1.144-.808-1.554-1.937-1.271-1.675.419-3.351.84-5.037,1.213a.668.668,0,0,0-.627.82c.036.62.008,1.243.008,1.865,0,3.245-.006,6.49.013,9.734,0,.244.145.672.288.7a9.079,9.079,0,0,0,6.538-.659,2.125,2.125,0,0,0,1.2-2.042c-.039-1.242-.01-2.487-.01-3.73M43.329,13.919H38.457V26.144h4.872Zm3.946,12.227c.012-.2.027-.327.028-.458q0-6.376,0-12.75a2.155,2.155,0,0,0-.016-.405,1.068,1.068,0,0,0-1.039-.965,1.021,1.021,0,0,0-1.118.858,3.474,3.474,0,0,0-.059.806q0,6.051,0,12.1c0,.262.023.525.037.814Zm-10.622,0a2.476,2.476,0,0,0,.055-.323q0-6.457,0-12.915c0-.187.023-.442-.083-.547-.3-.3-.68-.763-1.005-.746-.377.02-.77.446-1.076.771-.129.137-.071.466-.071.708q0,6.173,0,12.346c0,.233.03.465.047.7ZM10.164,49.329A3.429,3.429,0,0,0,14.1,46.8a13.274,13.274,0,0,0,.323-2.977,2.888,2.888,0,0,0-1.667-2.631,32.6,32.6,0,0,0-2.6,8.141m61.849-7.522c0,.822.054,1.582-.01,2.333-.18,2.118,1.262,3.957,4.222,3.546.361-2.963-1.63-5.8-4.212-5.879" transform="translate(0 -0.001)" fill="#fff"/>
    <path id="Path_4117" data-name="Path 4117" d="M198.2,150.895c-1.408,0-2.817.011-4.225,0a2.608,2.608,0,0,1-2.79-2.794q-.018-3.33,0-6.661a2.563,2.563,0,0,1,2.751-2.73c1.408-.012,2.817-.015,4.225.006a4.5,4.5,0,0,1,4,2.107,54.531,54.531,0,0,1,3.247,6.151,2.8,2.8,0,0,1-2.655,3.913c-1.515.044-3.033.009-4.549.009m.021-1.737c1.408,0,2.816.008,4.224,0,1.294-.009,1.815-.727,1.248-1.906-.853-1.774-1.792-3.51-2.76-5.225a3.216,3.216,0,0,0-2.915-1.622c-1.326-.027-2.654-.023-3.98,0-.861.012-1.159.322-1.164,1.2q-.019,3.167,0,6.335c0,.941.279,1.214,1.206,1.22,1.381.009,2.762,0,4.143,0" transform="translate(-149.755 -108.648)" fill="#fff"/>
    <path id="Path_4118" data-name="Path 4118" d="M129.075,144.756c0-1.163-.014-2.326,0-3.488a2.438,2.438,0,0,1,2.539-2.564q3.2-.027,6.41,0a2.391,2.391,0,0,1,2.518,2.416q.076,3.649,0,7.3a2.431,2.431,0,0,1-2.574,2.463q-3.164.032-6.329,0a2.468,2.468,0,0,1-2.566-2.556c-.021-1.189,0-2.379,0-3.569m9.753-.015c0-1.11-.017-2.22.006-3.33.014-.676-.27-1.023-.948-1.024q-3.087,0-6.174,0a.794.794,0,0,0-.9.9q.011,3.492,0,6.985c0,.609.292.884.9.882,2.058-.007,4.116-.011,6.174,0,.7,0,.962-.33.95-1-.02-1.137-.005-2.274-.005-3.411" transform="translate(-101.104 -108.64)" fill="#fff"/>
    <path id="Path_4119" data-name="Path 4119" d="M54.3,87.609c-.153.793-.279,1.593-.47,2.377a.8.8,0,0,1-1.027.676c-.552-.148-.712-.549-.62-1.134a11.134,11.134,0,0,0,.238-2.642,4.059,4.059,0,0,0-8.051.335,2.543,2.543,0,0,0,2.51,2.641,1.74,1.74,0,0,0,1.578-1.22,1.2,1.2,0,0,0-.507-1.55.771.771,0,0,1-.187-1.2.816.816,0,0,1,1.217-.159,2.922,2.922,0,0,1,1.238,3.039,3.614,3.614,0,0,1-3.28,2.8,4.367,4.367,0,0,1-4.11-3c-1.032-3.534,2.352-7.261,6.146-6.767A5.783,5.783,0,0,1,54.3,87.609" transform="translate(-33.4 -64.045)" fill="#fff"/>
    <path id="Path_4120" data-name="Path 4120" d="M93.43,147.588c0,1.245.011,2.49,0,3.734a2.617,2.617,0,0,1-2.683,2.745c-.622.018-1.247.031-1.867-.007a2.855,2.855,0,0,1-2.557-4.005,19,19,0,0,1,4.846-6.63,1.479,1.479,0,0,1,.453-.337c.438-.143.993-.446,1.31-.292.3.143.457.788.48,1.222.063,1.187.022,2.38.021,3.57m-1.73-2.34a17.945,17.945,0,0,0-3.795,5.481,1.105,1.105,0,0,0,1.034,1.589c.619.037,1.242.017,1.862.006a.81.81,0,0,0,.89-.849c.022-1.992.009-3.985.009-6.228" transform="translate(-67.42 -111.823)" fill="#fff"/>
    <path id="Path_4121" data-name="Path 4121" d="M131.414,207.589a3.758,3.758,0,0,1-1.279-.034,1.308,1.308,0,0,1-.753-.836c-.033-.235.417-.746.69-.776a12.4,12.4,0,0,1,2.734,0,1.056,1.056,0,0,1,.663.8,1.15,1.15,0,0,1-.694.8,4.464,4.464,0,0,1-1.361.034v.006" transform="translate(-101.348 -161.266)" fill="#fff"/>
    <path id="Path_4122" data-name="Path 4122" d="M193.3,207.574c-.406,0-.814.018-1.219,0a.781.781,0,0,1-.826-.817.748.748,0,0,1,.767-.862,15.291,15.291,0,0,1,2.594.025,1.126,1.126,0,0,1,.746.818c0,.284-.442.685-.774.807a3.925,3.925,0,0,1-1.288.033" transform="translate(-149.819 -161.247)" fill="#fff"/>
    <path id="Path_4123" data-name="Path 4123" d="M85.088,259.438a5.558,5.558,0,1,1,5.6,5.565,5.58,5.58,0,0,1-5.6-5.565m5.56,3.822a3.826,3.826,0,1,0-.055-7.651,3.826,3.826,0,0,0,.055,7.651" transform="translate(-66.652 -198.874)" fill="#fff"/>
    <path id="Path_4124" data-name="Path 4124" d="M269.368,259.454a5.561,5.561,0,1,1-5.613-5.542,5.6,5.6,0,0,1,5.613,5.542m-5.6,3.832a3.827,3.827,0,1,0-3.777-3.93,3.813,3.813,0,0,0,3.777,3.93" transform="translate(-202.292 -198.897)" fill="#fff"/>
  </g>
</svg>
