<svg xmlns="http://www.w3.org/2000/svg" width="13.856" height="13.855" viewBox="0 0 13.856 13.855">
  <path id="Path_3042" data-name="Path 3042" d="M2468.944,1184.193a4.011,4.011,0,0,0,.912-2.118.789.789,0,0,0-.107-.432.35.35,0,0,0-.062-.081.339.339,0,0,0-.074-.057.768.768,0,0,0-.439-.111,4,4,0,0,0-2.115.91,18.189,18.189,0,0,0-2.083,2.008c-.146.152-.3.313-.458.48l-1.649-.494,0,0a.37.37,0,0,0,0-.521l-.3-.3a.372.372,0,0,0-.262-.109.366.366,0,0,0-.262.109l-.446.446-.236-.071a.366.366,0,0,0-.03-.487l-.3-.3a.372.372,0,0,0-.262-.107.357.357,0,0,0-.26.109l-.409.409-1.679-.5a.406.406,0,0,0-.12-.017.445.445,0,0,0-.311.126l-.59.59a.35.35,0,0,0-.1.243.341.341,0,0,0,.18.3l3.53,1.972a.622.622,0,0,1,.085.064l1.006,1.006c-.942.991-1.78,1.952-2.433,2.787-.061.077-.119.153-.176.229l-2.731-.248a.266.266,0,0,0-.047,0,.509.509,0,0,0-.338.14l-.275.275a.341.341,0,0,0-.1.244.335.335,0,0,0,.2.308l1.921.912a.441.441,0,0,1,.073.053l.159.158a1.15,1.15,0,0,0-.076.369.493.493,0,0,0,.134.355l.007.006h0a.485.485,0,0,0,.352.133,1.194,1.194,0,0,0,.366-.076l.162.162a.436.436,0,0,1,.051.072l.91,1.916a.34.34,0,0,0,.306.2h0a.343.343,0,0,0,.243-.1l.282-.283a.5.5,0,0,0,.134-.337.236.236,0,0,0,0-.034l-.249-2.741c.075-.056.15-.114.229-.174.837-.654,1.8-1.494,2.786-2.432l1.008,1.007a.534.534,0,0,1,.064.087l1.969,3.523a.342.342,0,0,0,.3.184.338.338,0,0,0,.245-.1l.595-.594a.448.448,0,0,0,.121-.31.422.422,0,0,0-.016-.116l-.5-1.68.409-.409a.37.37,0,0,0,0-.522l-.3-.3a.375.375,0,0,0-.261-.107.371.371,0,0,0-.228.078l-.07-.236.446-.446a.375.375,0,0,0,.108-.262.365.365,0,0,0-.108-.26l-.3-.3a.373.373,0,0,0-.263-.109.364.364,0,0,0-.261.109l0,0-.494-1.65.488-.464a18.076,18.076,0,0,0,2-2.076Zm0,0" transform="translate(-2456 -1181.395)" fill="#fff"/>
</svg>
