<svg id="Group_681" data-name="Group 681" xmlns="http://www.w3.org/2000/svg" width="15.924" height="15.938" viewBox="0 0 15.924 15.938">
  <g id="Group_680" data-name="Group 680">
    <path id="Path_3020" data-name="Path 3020" d="M232.141,243.9a3.912,3.912,0,0,0-3.908,3.908,6.863,6.863,0,0,0,1.892,4.275c.187.223.372.429.551.617-.81.221-1.3.619-1.3,1.083,0,.821,1.423,1.264,2.762,1.264s2.762-.443,2.762-1.264c0-.464-.486-.861-1.3-1.082a12.727,12.727,0,0,0,1-1.192.234.234,0,1,0-.376-.277,12.547,12.547,0,0,1-1.207,1.395.234.234,0,0,0-.1.1c-.337.332-.621.578-.783.712-.159-.133-.439-.376-.772-.7a.234.234,0,0,0-.117-.116c-1.059-1.065-2.551-2.9-2.551-4.812a3.44,3.44,0,1,1,6.881,0,5.265,5.265,0,0,1-.839,2.659.234.234,0,0,0,.4.239,5.72,5.72,0,0,0,.9-2.9A3.912,3.912,0,0,0,232.141,243.9Zm0,10.075a.233.233,0,0,0,.143-.049,11.867,11.867,0,0,0,.94-.836c.788.161,1.212.47,1.212.693,0,.166-.228.363-.6.512a4.659,4.659,0,0,1-1.7.285c-1.4,0-2.3-.472-2.3-.8,0-.223.424-.532,1.213-.693a11.881,11.881,0,0,0,.939.836A.233.233,0,0,0,232.141,253.977Z" transform="translate(-228.233 -239.111)" fill="#fff"/>
    <path id="Path_3021" data-name="Path 3021" d="M299.541,315.924a.234.234,0,0,0-.289.16,1.7,1.7,0,1,0,.617-.892.234.234,0,0,0,.28.374,1.232,1.232,0,1,1-.5.987,1.233,1.233,0,0,1,.048-.34A.234.234,0,0,0,299.541,315.924Z" transform="translate(-296.977 -307.854)" fill="#fff"/>
    <path id="Path_3022" data-name="Path 3022" d="M548.561,97.65c0-.37-.348-.679-.95-.86.119-.128.241-.265.364-.412a5.326,5.326,0,0,0,1.466-3.321,3.058,3.058,0,0,0-5.875-1.19.234.234,0,1,0,.43.182,2.591,2.591,0,0,1,4.977,1.008c0,1.931-2.028,3.782-2.59,4.258-.124-.1-.319-.276-.548-.5a.234.234,0,0,0-.1-.1,5.835,5.835,0,0,1-1.938-3.654.234.234,0,0,0-.467,0,5.326,5.326,0,0,0,1.466,3.321c.123.147.245.284.364.412-.6.181-.95.489-.95.86,0,.313.254.589.715.777a4.415,4.415,0,0,0,2.925,0C548.307,98.239,548.561,97.963,548.561,97.65Zm-2.177.558c-1.106,0-1.71-.369-1.71-.558,0-.123.275-.349.861-.474a9.131,9.131,0,0,0,.706.627.234.234,0,0,0,.286,0,9.107,9.107,0,0,0,.706-.626,2.142,2.142,0,0,1,.646.234c.135.082.215.172.215.24C548.093,97.84,547.49,98.208,546.384,98.208Z" transform="translate(-533.517 -90)" fill="#fff"/>
    <path id="Path_3023" data-name="Path 3023" d="M600.578,145.892a1.36,1.36,0,1,0-1.36,1.36A1.362,1.362,0,0,0,600.578,145.892Zm-2.253,0a.893.893,0,1,1,.893.893A.894.894,0,0,1,598.326,145.892Z" transform="translate(-586.352 -142.834)" fill="#fff"/>
    <path id="Path_3024" data-name="Path 3024" d="M527.3,328.706a.234.234,0,0,0,0-.467h-.107a1.768,1.768,0,0,0-.232.015.234.234,0,0,0,.031.465l.031,0a1.3,1.3,0,0,1,.171-.011h.107Z" transform="translate(-517.461 -320.823)" fill="#fff"/>
    <path id="Path_3025" data-name="Path 3025" d="M502.453,553.5h-.31a.234.234,0,0,0,0,.467h.31a.234.234,0,0,0,0-.467Z" transform="translate(-493.391 -539.067)" fill="#fff"/>
    <path id="Path_3026" data-name="Path 3026" d="M536.184,425.956a.234.234,0,1,0,0-.467h-.309a.234.234,0,1,0,0,.467Z" transform="translate(-526.072 -415.045)" fill="#fff"/>
    <path id="Path_3027" data-name="Path 3027" d="M493.8,341.774a.234.234,0,0,0,.326-.053,1.286,1.286,0,0,1,.173-.2.234.234,0,1,0-.317-.344,1.757,1.757,0,0,0-.236.266A.234.234,0,0,0,493.8,341.774Z" transform="translate(-485.434 -333.303)" fill="#fff"/>
    <path id="Path_3028" data-name="Path 3028" d="M542.119,553.314h-.31a.234.234,0,0,0,0,.467h.31a.234.234,0,0,0,0-.467Z" transform="translate(-531.823 -538.891)" fill="#fff"/>
    <path id="Path_3029" data-name="Path 3029" d="M462.788,553.675h-.31a.234.234,0,0,0,0,.467h.31a.234.234,0,0,0,0-.467Z" transform="translate(-454.961 -539.241)" fill="#fff"/>
    <path id="Path_3030" data-name="Path 3030" d="M500,412.575a.234.234,0,0,0,.125-.431,1.289,1.289,0,0,1-.205-.161.234.234,0,0,0-.324.337,1.754,1.754,0,0,0,.28.219A.233.233,0,0,0,500,412.575Z" transform="translate(-491.078 -401.897)" fill="#fff"/>
    <path id="Path_3031" data-name="Path 3031" d="M485.088,376.856a1.289,1.289,0,0,1-.024-.246V376.6a.234.234,0,0,0-.231-.236h0a.234.234,0,0,0-.234.231v.018a1.762,1.762,0,0,0,.032.336.234.234,0,0,0,.459-.089Z" transform="translate(-476.616 -367.446)" fill="#fff"/>
    <path id="Path_3032" data-name="Path 3032" d="M575.851,425.956a.234.234,0,0,0,0-.467h-.309a.234.234,0,0,0,0,.467Z" transform="translate(-564.505 -415.045)" fill="#fff"/>
    <path id="Path_3033" data-name="Path 3033" d="M693.379,434.284a.234.234,0,0,0,.145-.417,2.235,2.235,0,0,0-.286-.192.234.234,0,0,0-.229.407,1.763,1.763,0,0,1,.226.151A.233.233,0,0,0,693.379,434.284Z" transform="translate(-678.424 -422.947)" fill="#fff"/>
    <path id="Path_3034" data-name="Path 3034" d="M661.084,552.214a1.751,1.751,0,0,1-.233.016h-.044a.234.234,0,0,0,0,.467h.045a2.228,2.228,0,0,0,.295-.021.234.234,0,1,0-.064-.463Z" transform="translate(-647.116 -537.823)" fill="#fff"/>
    <path id="Path_3035" data-name="Path 3035" d="M698.229,535.315a1.757,1.757,0,0,1-.211.172.234.234,0,0,0,.266.384,2.228,2.228,0,0,0,.267-.218.234.234,0,1,0-.322-.338Z" transform="translate(-683.296 -521.39)" fill="#fff"/>
    <path id="Path_3036" data-name="Path 3036" d="M722.024,500.991a.234.234,0,0,0-.273.186,1.754,1.754,0,0,1-.071.262.234.234,0,1,0,.44.157,2.219,2.219,0,0,0,.09-.333A.234.234,0,0,0,722.024,500.991Z" transform="translate(-706.306 -488.193)" fill="#fff"/>
    <path id="Path_3037" data-name="Path 3037" d="M719.546,462.287a.234.234,0,0,0-.113.311,1.734,1.734,0,0,1,.1.255.234.234,0,1,0,.449-.129,2.215,2.215,0,0,0-.121-.323A.234.234,0,0,0,719.546,462.287Z" transform="translate(-704.121 -450.676)" fill="#fff"/>
    <path id="Path_3038" data-name="Path 3038" d="M615.517,425.956a.234.234,0,0,0,0-.467h-.309a.234.234,0,1,0,0,.467Z" transform="translate(-602.936 -415.045)" fill="#fff"/>
    <path id="Path_3039" data-name="Path 3039" d="M581.785,553.134h-.31a.234.234,0,0,0,0,.467h.31a.234.234,0,0,0,0-.467Z" transform="translate(-570.254 -538.717)" fill="#fff"/>
    <path id="Path_3040" data-name="Path 3040" d="M655.092,425.957l.079,0h.01a.234.234,0,0,0,.01-.467l-.1,0h-.219a.234.234,0,0,0,0,.467h.219Z" transform="translate(-641.365 -415.046)" fill="#fff"/>
    <path id="Path_3041" data-name="Path 3041" d="M621.45,552.955h-.31a.234.234,0,0,0,0,.467h.31a.234.234,0,0,0,0-.467Z" transform="translate(-608.684 -538.543)" fill="#fff"/>
  </g>
</svg>
