<svg xmlns="http://www.w3.org/2000/svg" width="10.374" height="10.374" viewBox="0 0 10.374 10.374">
  <g id="Group_264" data-name="Group 264" transform="translate(0 0)">
    <path id="Path_356" data-name="Path 356" d="M494.157,1428.975a5.187,5.187,0,1,0-5.187,5.187,5.187,5.187,0,0,0,5.187-5.187Zm0,0" transform="translate(-483.783 -1423.788)" fill="#32bea6"/>
    <path id="Path_357" data-name="Path 357" d="M491.1,1426.227c-.121-.316-.371-.266-.641-.212a4.415,4.415,0,0,0-2.011,1.438,9.685,9.685,0,0,0-.984,1.193,5.574,5.574,0,0,0-1.416-1.259.459.459,0,0,0-.48.782,5.2,5.2,0,0,1,.828.658,6.963,6.963,0,0,1,.746.921.458.458,0,0,0,.383.2.341.341,0,0,0,.078-.007.455.455,0,0,0,.367-.341,5.342,5.342,0,0,1,1.145-1.521,4.571,4.571,0,0,1,1.47-1.148h0l.018-.007c.031-.011.047-.016.047-.016l-.013,0h0c.083-.036.238-.1.241-.1a.432.432,0,0,0,.218-.582Zm0,0" transform="translate(-483.058 -1422.777)" fill="#fff"/>
  </g>
</svg>
