<svg xmlns="http://www.w3.org/2000/svg" width="161.86" height="161.86" viewBox="0 0 161.86 161.86">
  <g id="Group_3074" data-name="Group 3074" transform="translate(-1292.33 -6153.557)">
    <path id="Path_3463" data-name="Path 3463" d="M672.492,81.43A80.93,80.93,0,1,1,591.561.5a80.929,80.929,0,0,1,80.93,80.93" transform="translate(781.699 6153.057)" fill="#caa5ca"/>
    <path id="Path_3464" data-name="Path 3464" d="M563.593,105.972c-2.988-1.192-4.055-3.412-4.033-6.59.1-13.849.046-27.7.05-41.551v-2.3h22.61v2.5c.007,13.7-.062,27.406.073,41.11.031,3.135-.855,5.4-3.669,6.826h-2.652c-3.106-1.282-3.925-3.748-3.905-6.9.074-12.512.013-25.026.051-37.535,0-1.6-.2-2.642-2.328-1.849v2.367c0,12.44-.054,24.879.036,37.317.022,3.163-1.048,5.393-4.02,6.6Z" transform="translate(805.428 6179.745)" fill="#fff"/>
    <path id="Path_3465" data-name="Path 3465" d="M571.513,22.52c5.12,2.082,7.168,4.642,7.094,8.883a8.584,8.584,0,1,1-12.183-8.026c.661-.3,1.331-.573,2-.857Z" transform="translate(806.35 6163.734)" fill="#fff"/>
    <path id="Path_3466" data-name="Path 3466" d="M579.546,47.613c-.707,1.507-1.975,2.911-1.841,4.162.4,3.681,1.344,7.306,2.077,10.952,1.026-2.8,1.466-5.711,2.391-8.455.955-2.838.148-4.776-2.627-6.659m-13.379,4.232c0,2.077-.018,4.051,0,6.024.015,1.663-.4,3.387-2.018,3.8a6.172,6.172,0,0,1-4.263-.594c-3.607-2.123-7.028-4.568-10.5-6.917-2.652-1.792-2.856-4.06-.821-6.466a2.66,2.66,0,0,0,.2-2.227c-2.262-6.134-4.626-12.235-6.948-18.347-.307-.808-.551-1.642-.826-2.462.22-.154.437-.312.655-.466a7.077,7.077,0,0,1,1.328,1.656q3.6,9.239,7.07,18.532a4.936,4.936,0,0,0,2.823,3.291c1.974.849,3.671,2.349,5.686,3.7a27.172,27.172,0,0,1,.511-3.193c1.357-4.749,5.037-6.657,9.487-7.419,4.486-.765,8.681-.688,10.329,4.8a4.507,4.507,0,0,0,.7,1.114,5.712,5.712,0,0,0,.46.5c1.108-1.794,2.067-3.6,3.289-5.211a3.45,3.45,0,0,1,2.411-1.331,41.6,41.6,0,0,1,8.925.973c4.283,1.161,6.535,4.471,6.574,8.882.067,7.068.039,14.14.009,21.208-.01,2.793-1.509,4.459-3.831,4.422s-3.638-1.657-3.643-4.557c-.013-6.473-.008-12.944-.008-19.606l-2.464-.18V67.657H568.688V51.845Z" transform="translate(796.422 6164.545)" fill="#fff"/>
  </g>
</svg>
