<svg xmlns="http://www.w3.org/2000/svg" width="161.861" height="161.86" viewBox="0 0 161.861 161.86">
  <g id="Group_3072" data-name="Group 3072" transform="translate(-738.812 -6153.557)">
    <path id="Path_3450" data-name="Path 3450" d="M332.4,81.43A80.93,80.93,0,1,1,251.474.5,80.929,80.929,0,0,1,332.4,81.43" transform="translate(568.268 6153.057)" fill="#9e1f63"/>
    <path id="Path_3451" data-name="Path 3451" d="M231.907,92.748h.447c4.633-.009,4.712.006,5.546-4.689,1.1-6.189,4.578-11.14,7.652-16.315a24.616,24.616,0,0,0,3.758-13.555c-.263-9.236-8.008-17.163-16.943-17.2a17.731,17.731,0,0,0-17.656,17.181c-.177,5.664,1.769,10.54,4.688,15.144,2.863,4.516,5.641,9.066,6.665,14.508.924,4.929.98,4.918,5.843,4.927m.113,4.2c-2.236,0-4.476-.022-6.713.007a2.324,2.324,0,0,1-2.673-2.628c0-6.682-2.5-12.437-6.1-17.8-3.779-5.638-6.305-11.664-5.855-18.748.584-9.137,4.97-15.594,12.984-19.134,8.311-3.669,16.153-2.311,22.834,4.035,7.484,7.1,9.13,18.381,4.275,28.048-1.578,3.139-3.494,6.094-5.3,9.106a29.753,29.753,0,0,0-4.107,14c-.148,2.778-.566,3.1-3.3,3.114-2.015.01-4.03,0-6.045,0" transform="translate(587.709 6170.58)" fill="#fff"/>
  </g>
</svg>
