<svg xmlns="http://www.w3.org/2000/svg" width="162.861" height="162.86" viewBox="0 0 162.861 162.86">
  <g id="Group_3077" data-name="Group 3077" transform="translate(-1151.167 -6482.701)">
    <path id="Path_3486" data-name="Path 3486" d="M587.47,268.764a80.93,80.93,0,1,1-80.93-80.93,80.929,80.929,0,0,1,80.93,80.93" transform="translate(726.057 6295.368)" fill="#c49a6c"/>
    <g id="Group_3076" data-name="Group 3076">
      <circle id="Ellipse_147" data-name="Ellipse 147" cx="80.93" cy="80.93" r="80.93" transform="translate(1151.667 6483.201)" fill="none" stroke="#fff" stroke-miterlimit="10" stroke-width="1"/>
      <path id="Path_3487" data-name="Path 3487" d="M484.18,251.539h.184c14.677-.16,12.548-19.762,12.548-19.762-.6-13.1-11.563-12.983-12.64-12.937-1.075-.046-12.022-.16-12.64,12.937,0,.024-2.129,19.624,12.548,19.762" transform="translate(748.324 6310.402)" fill="#fff"/>
      <path id="Path_3488" data-name="Path 3488" d="M506.5,253.955h.138c11.792-.114,10.1-15.892,10.1-15.892-.481-10.533-9.3-10.441-10.166-10.418-.872-.046-9.686-.114-10.168,10.418,0,.022-1.717,15.778,10.1,15.892" transform="translate(760.349 6314.672)" fill="#fff"/>
      <path id="Path_3489" data-name="Path 3489" d="M554.266,262.457c-.092-3.389-.756-5.747-4.213-7.922-4.6-2.885-9.756-5.382-9.756-5.382l-4.1,12.961-2.382-6.8c4.191-5.861-.3-6.16-1.1-6.16h-.046c-.8,0-5.289.3-1.1,6.16l-2.382,6.777-4.1-12.959s-1.464.71-3.527,1.809a14.929,14.929,0,0,0-1.6-1.145c-5.724-3.6-12.113-6.709-12.113-6.709l-5.085,16.1-2.976-8.449c5.221-7.281-.367-7.647-1.374-7.67h-.046c-1.008,0-6.595.365-1.375,7.67l-2.976,8.449-5.084-16.1s-6.388,3.114-12.113,6.709a16.752,16.752,0,0,0-1.626,1.167c-2.083-1.121-3.571-1.831-3.571-1.831l-4.1,12.959-2.382-6.777c4.191-5.861-.3-6.16-1.1-6.16H464c-.8,0-5.289.3-1.1,6.16l-2.382,6.777-4.1-12.959s-5.151,2.495-9.755,5.382c-3.481,2.174-4.122,4.534-4.213,7.922v11.471H554.288Z" transform="translate(734.227 6322.152)" fill="#fff"/>
      <path id="Path_3490" data-name="Path 3490" d="M460.211,253.955h.138c11.816-.114,10.1-15.892,10.1-15.892-.481-10.533-9.3-10.441-10.166-10.418-.872-.046-9.686-.114-10.168,10.418,0,.022-1.694,15.778,10.1,15.892" transform="translate(737.9 6314.672)" fill="#fff"/>
    </g>
  </g>
</svg>
