<svg xmlns="http://www.w3.org/2000/svg" width="162.861" height="162.86" viewBox="0 0 162.861 162.86">
  <g id="Group_918" data-name="Group 918" transform="translate(-597.123 -6583.483)">
    <circle id="Ellipse_145" data-name="Ellipse 145" cx="80.93" cy="80.93" r="80.93" transform="translate(597.623 6583.983)" fill="none" stroke="#fff" stroke-miterlimit="10" stroke-width="1"/>
    <path id="Path_3469" data-name="Path 3469" d="M177.258,243.026c-1.29.567-2.557,1.53-3.88,1.623-3.372.233-6.771.07-10.16.079-1.861.006-3.436-.532-3.4-2.682.037-2.023,1.546-2.487,3.323-2.467,3.389.034,6.786-.135,10.162.079,1.344.085,2.639.959,3.951,1.475Z" transform="translate(548.132 6422.784)" fill="#fff"/>
    <g id="Group_3075" data-name="Group 3075">
      <path id="Path_3468" data-name="Path 3468" d="M247.383,267.716a80.93,80.93,0,1,1-80.93-80.93,80.929,80.929,0,0,1,80.93,80.93" transform="translate(512.102 6397.197)" fill="#fbb040"/>
      <path id="Path_3470" data-name="Path 3470" d="M148.092,274.036a24.7,24.7,0,1,1,24.641-24.684,24.559,24.559,0,0,1-24.641,24.684" transform="translate(530.449 6415.559)" fill="#fff"/>
    </g>
    <path id="Path_3471" data-name="Path 3471" d="M117.3,239.576h5.653c1.668,0,2.793.788,2.854,2.461a2.434,2.434,0,0,1-2.692,2.631c-4,.059-8.011.065-12.015-.007a2.541,2.541,0,1,1,.073-5.076c2.043-.021,4.084-.006,6.127-.009" transform="translate(523.235 6422.796)" fill="#fff"/>
    <path id="Path_3472" data-name="Path 3472" d="M123.336,215.7c.4-.441.953-1.561,1.706-1.724a3.3,3.3,0,0,1,2.848.793c2.318,3.631,4.486,7.374,6.434,11.216a3.126,3.126,0,0,1-1.01,2.893c-.71.435-2.652.209-3.035-.383-2.422-3.748-4.565-7.676-6.785-11.554a5.191,5.191,0,0,1-.159-1.24" transform="translate(530.439 6410.36)" fill="#fff"/>
    <path id="Path_3473" data-name="Path 3473" d="M160.768,216.288c-2.746,4.4-5.283,8.6-8.032,12.656-.275.411-2.144.325-2.679-.171a3.14,3.14,0,0,1-.794-2.811c1.975-3.833,4.131-7.581,6.452-11.213a3.3,3.3,0,0,1,2.859-.765c.754.169,1.295,1.3,2.195,2.3" transform="translate(542.958 6410.359)" fill="#fff"/>
    <path id="Path_3474" data-name="Path 3474" d="M114.4,261.51c-.405-.359-1.543-.884-1.709-1.629-.2-.884.111-2.455.753-2.866,3.631-2.322,7.371-4.492,11.211-6.446.683-.347,2.367.276,2.928.983.463.581.327,2.533-.192,2.863-3.892,2.478-7.943,4.707-11.949,7a4.592,4.592,0,0,1-1.042.091" transform="translate(525.248 6428.081)" fill="#fff"/>
    <path id="Path_3475" data-name="Path 3475" d="M172.626,258.526c-.092,2.539-1.932,3.683-3.767,2.7-3.6-1.929-7.116-4.006-10.612-6.114a2.336,2.336,0,0,1-.97-3.439,2.437,2.437,0,0,1,3.647-.9c3.423,1.923,6.837,3.864,10.178,5.922a6.441,6.441,0,0,1,1.524,1.829" transform="translate(546.703 6428.005)" fill="#fff"/>
    <path id="Path_3476" data-name="Path 3476" d="M123.188,271.781a21.947,21.947,0,0,1,.95-2.285c1.786-3.138,3.622-6.249,5.419-9.379.884-1.541,2.037-2.545,3.816-1.5,1.731,1.019,1.558,2.5.64,4.06-1.908,3.251-3.66,6.6-5.741,9.729a4.08,4.08,0,0,1-3.112,1.25c-.673-.015-1.32-1.218-1.972-1.877" transform="translate(530.367 6431.823)" fill="#fff"/>
    <path id="Path_3477" data-name="Path 3477" d="M112.49,227.71c.03-2.443,1.877-3.683,3.66-2.726,3.665,1.965,7.3,4.017,10.767,6.3a3.563,3.563,0,0,1,.851,3.172c-.416,1.457-1.9,1.9-3.292,1.132q-5.462-3.016-10.8-6.246c-.637-.388-.953-1.3-1.182-1.633" transform="translate(525.179 6415.564)" fill="#fff"/>
    <path id="Path_3478" data-name="Path 3478" d="M172.612,227.788a6.664,6.664,0,0,1-1.571,1.8c-3.277,2.015-6.641,3.891-9.98,5.806-1.543.884-2.93.7-3.818-.907-.861-1.559-.114-2.735,1.262-3.543,3.389-1.988,6.767-3.993,10.215-5.873,1.927-1.05,3.853.083,3.892,2.714" transform="translate(546.704 6415.577)" fill="#fff"/>
    <path id="Path_3479" data-name="Path 3479" d="M157.124,273.915a5.964,5.964,0,0,1-1.687-1.429c-2.049-3.349-3.984-6.767-5.934-10.176-.823-1.434-.665-2.774.794-3.675,1.5-.927,2.766-.364,3.6,1.038,2.043,3.444,4.081,6.893,5.983,10.415,1.028,1.9-.192,3.865-2.755,3.827" transform="translate(542.888 6431.82)" fill="#fff"/>
    <path id="Path_3481" data-name="Path 3481" d="M143.352,269.743c0,1.965.013,3.925-.007,5.889-.016,1.642-.774,2.781-2.492,2.811s-2.559-1.1-2.578-2.729c-.043-3.925-.03-7.852-.009-11.779.007-1.645.829-2.808,2.507-2.815,1.822-.012,2.585,1.222,2.581,2.97,0,1.886,0,3.767,0,5.653" transform="translate(537.67 6433.245)" fill="#fff"/>
    <path id="Path_3491" data-name="Path 3491" d="M143.352,269.743c0,1.965.013,3.925-.007,5.889-.016,1.642-.774,2.781-2.492,2.811s-2.559-1.1-2.578-2.729c-.043-3.925-.03-7.852-.009-11.779.007-1.645.829-2.808,2.507-2.815,1.822-.012,2.585,1.222,2.581,2.97,0,1.886,0,3.767,0,5.653" transform="translate(537.67 6354.506)" fill="#fff"/>
  </g>
</svg>
