<svg xmlns="http://www.w3.org/2000/svg" xmlns:xlink="http://www.w3.org/1999/xlink" width="161.861" height="161.86" viewBox="0 0 161.861 161.86">
  <defs>
    <clipPath id="clip-path">
      <rect id="Rectangle_450" data-name="Rectangle 450" width="86.047" height="66.823" fill="none"/>
    </clipPath>
  </defs>
  <g id="Group_3071" data-name="Group 3071" transform="translate(-465 -6153.557)">
    <path id="Path_3448" data-name="Path 3448" d="M162.361,81.43A80.93,80.93,0,1,1,81.43.5a80.929,80.929,0,0,1,80.93,80.93" transform="translate(464.5 6153.057)" fill="#00aeef"/>
    <g id="Group_913" data-name="Group 913" transform="translate(502.906 6201.076)">
      <g id="Group_912" data-name="Group 912" clip-path="url(#clip-path)">
        <path id="Path_3449" data-name="Path 3449" d="M100.964,49.512A8.964,8.964,0,0,1,99.43,51.2Q85.3,65.4,71.114,79.548c-2.266,2.266-2.578,2.276-4.808.024-2.336-2.357-4.64-4.743-7.1-7.256-.719.683-1.292,1.209-1.846,1.76q-11.9,11.895-23.8,23.792C31.63,99.8,31.035,99.8,29,97.908c-3.949-3.669-3.949-3.669-.11-7.509Q42.824,76.466,56.759,62.536c2.089-2.089,2.572-2.089,4.657.01,2.382,2.4,4.743,4.817,7.009,7.123,8.954-8.957,17.705-17.708,26.714-26.719-1.3-1.191-2.772-2.429-4.109-3.8-1.432-1.469-1.224-2.26.717-2.7q8.843-2,17.713-3.864c1.926-.4,2.925.53,2.529,2.472q-1.831,8.983-3.911,17.919c-.417,1.806-1.154,1.923-2.611.61a21.383,21.383,0,0,1-2.031-2.037c-.619-.731-1.124-1.556-1.682-2.339-.346-.031-.441.327-.789.294" transform="translate(-26.027 -32.501)" fill="#fff"/>
      </g>
    </g>
  </g>
</svg>
