<svg xmlns="http://www.w3.org/2000/svg" width="161.861" height="161.86" viewBox="0 0 161.861 161.86">
  <g id="Group_3073" data-name="Group 3073" transform="translate(-1023.892 -6153.557)">
    <path id="Path_3460" data-name="Path 3460" d="M502.448,81.43A80.93,80.93,0,1,1,421.517.5a80.929,80.929,0,0,1,80.93,80.93" transform="translate(683.305 6153.057)" fill="#8dc63f"/>
    <path id="Path_3461" data-name="Path 3461" d="M436.048,23.5c.438.2.891.38,1.311.61a3.916,3.916,0,0,1,1.482,5.846C433.464,37.215,428.1,44.5,422.514,51.592c-8.283,10.512-16.756,20.873-25.152,31.3-.518.646-1.059,1.276-1.515,1.819-4.182-4.2-8.267-8.3-12.634-12.68,1.684-1.586,3.6-3.322,5.441-5.131Q409.08,46.878,429.5,26.853c1.246-1.218,2.679-2.239,4.026-3.353Z" transform="translate(703.977 6164.21)" fill="#fff"/>
    <path id="Path_3462" data-name="Path 3462" d="M371.688,99.947a42.2,42.2,0,0,1-2.524-18.293C370.238,71,376.045,63.789,385.421,59.1a1.936,1.936,0,0,1,2.683.5c3.371,3.458,6.832,6.828,10.206,10.289.471.48,1.008,1.365.873,1.895-1.427,5.572-3.867,10.557-9.19,13.414a11.3,11.3,0,0,1-5.162,1.51c-8.859-.079-12.536,4.81-12.852,11.973a9.552,9.552,0,0,1-.291,1.259" transform="translate(697.075 6181.316)" fill="#fff"/>
  </g>
</svg>
