<svg xmlns="http://www.w3.org/2000/svg" width="161.861" height="161.86" viewBox="0 0 161.861 161.86">
  <g id="Group_3116" data-name="Group 3116" transform="translate(-738.812 -6153.557)">
    <path id="Path_3450" data-name="Path 3450" d="M332.4,81.43A80.93,80.93,0,1,1,251.474.5,80.929,80.929,0,0,1,332.4,81.43" transform="translate(568.268 6153.057)" fill="#9e1f63"/>
    <g id="Group_3115" data-name="Group 3115">
      <path id="Path_3451" data-name="Path 3451" d="M231.907,92.748h.447c4.633-.009,4.712.006,5.546-4.689,1.1-6.189,4.578-11.14,7.652-16.315a24.616,24.616,0,0,0,3.758-13.555c-.263-9.236-8.008-17.163-16.943-17.2a17.731,17.731,0,0,0-17.656,17.181c-.177,5.664,1.769,10.54,4.688,15.144,2.863,4.516,5.641,9.066,6.665,14.508.924,4.929.98,4.918,5.843,4.927m.113,4.2c-2.236,0-4.476-.022-6.713.007a2.324,2.324,0,0,1-2.673-2.628c0-6.682-2.5-12.437-6.1-17.8-3.779-5.638-6.305-11.664-5.855-18.748.584-9.137,4.97-15.594,12.984-19.134,8.311-3.669,16.153-2.311,22.834,4.035,7.484,7.1,9.13,18.381,4.275,28.048-1.578,3.139-3.494,6.094-5.3,9.106a29.753,29.753,0,0,0-4.107,14c-.148,2.778-.566,3.1-3.3,3.114-2.015.01-4.03,0-6.045,0" transform="translate(587.709 6170.58)" fill="#fff"/>
      <path id="Path_3452" data-name="Path 3452" d="M233.983,86.786c-.394,2.945-.818,3.338-3.543,3.352q-2.452.011-4.909-.013c-2.64-.028-2.992-.373-3.279-2.913-1.17-.606-2.864-.924-3.141-1.749a11.347,11.347,0,0,1-.126-5.055c.082-.555,1.307-1.311,2.024-1.328,4.684-.119,9.373-.092,14.06-.045,1.8.019,2.55,1.05,2.171,2.893a4.568,4.568,0,0,0-.267,1.093c.217,3.445.227,3.445-2.989,3.766" transform="translate(591.652 6191.122)" fill="#fff"/>
      <path id="Path_3453" data-name="Path 3453" d="M217,42.682c-1.137.19-2.15.679-2.514.365-3.068-2.658-6.074-5.4-8.942-8.288a2.8,2.8,0,0,1,.073-2.572c.8-1.167,2-.829,2.867.126,1.629,1.783,3.182,3.641,4.768,5.471.793.913,1.6,1.812,2.364,2.753.37.454.647.99,1.384,2.144" transform="translate(585.105 6168.063)" fill="#fff"/>
      <path id="Path_3454" data-name="Path 3454" d="M216.939,65.8a15.268,15.268,0,0,1-1.038,1.576c-2.257,2.645-4.543,5.264-6.812,7.9-.955,1.106-2.069,1.7-3.236.49-1.2-1.24-.5-2.385.529-3.344,2.588-2.413,5.159-4.847,7.811-7.181a3.28,3.28,0,0,1,1.987-.5c.232-.006.477.65.759,1.066" transform="translate(585.086 6184.205)" fill="#fff"/>
      <path id="Path_3455" data-name="Path 3455" d="M238.262,64.479a13.664,13.664,0,0,1,1.522,1.051c2.559,2.333,5.1,4.69,7.639,7.042,1.059.979,1.642,2.123.468,3.344-1.084,1.127-2.164.627-3.066-.411-2.431-2.792-4.878-5.569-7.244-8.417a2.8,2.8,0,0,1-.376-1.828c.019-.269.643-.495,1.057-.781" transform="translate(600.59 6184.083)" fill="#fff"/>
      <path id="Path_3456" data-name="Path 3456" d="M205.053,54.391c-1.7.119-3.405.258-5.111.355-1.369.08-2.438-.468-2.446-1.994s1.01-2.085,2.41-2.008c3.556.2,7.123.31,10.669.639.685.064,1.3.943,1.947,1.445-.637.411-1.237,1.08-1.917,1.185-1.829.285-3.7.328-5.548.466l0-.088" transform="translate(581.338 6177.419)" fill="#fff"/>
      <path id="Path_3457" data-name="Path 3457" d="M253.457,50.774c.671,0,1.472-.239,1.984.056a11.665,11.665,0,0,1,2.063,1.948c-.7.661-1.4,1.9-2.086,1.889-3.871-.046-7.749-.347-11.611-.685-.48-.043-.9-.82-1.345-1.255.612-.457,1.192-1.253,1.838-1.317,3.044-.3,6.1-.388,9.159-.554,0-.028,0-.053,0-.083" transform="translate(603.145 6177.393)" fill="#fff"/>
      <path id="Path_3458" data-name="Path 3458" d="M237.694,43.426c-.11-.919-.566-2-.236-2.406,2.593-3.178,5.285-6.274,8.092-9.25a2.268,2.268,0,0,1,2.291.156c.468.477.708,2.049.356,2.4-3.006,2.979-6.164,5.787-9.288,8.634a5.741,5.741,0,0,1-1.215.468" transform="translate(600.661 6168.103)" fill="#fff"/>
      <path id="Path_3459" data-name="Path 3459" d="M227.563,28.727c-.138,2.694-.192,5.393-.468,8.069-.079.745-.817,1.421-1.252,2.128-.469-.665-1.29-1.3-1.35-2-.307-3.6-.423-7.223-.6-10.837-.065-1.36.2-2.578,1.812-2.59,1.7-.01,2.033,1.2,1.941,2.686-.053.845-.012,1.694-.012,2.542-.022,0-.048,0-.073,0" transform="translate(594.137 6164.21)" fill="#fff"/>
    </g>
  </g>
</svg>
