<svg xmlns="http://www.w3.org/2000/svg" width="162.861" height="162.86" viewBox="0 0 162.861 162.86">
  <g id="Group_919" data-name="Group 919" transform="translate(-884.575 -6585.584)">
    <path id="Path_3482" data-name="Path 3482" d="M421.427,269.131A80.93,80.93,0,1,1,340.5,188.2a80.929,80.929,0,0,1,80.93,80.93" transform="translate(625.51 6397.884)" fill="#6dceae"/>
    <circle id="Ellipse_146" data-name="Ellipse 146" cx="80.93" cy="80.93" r="80.93" transform="translate(885.075 6586.084)" fill="none" stroke="#fff" stroke-miterlimit="10" stroke-width="1"/>
    <path id="Path_3483" data-name="Path 3483" d="M352.48,217.441c-3.892,3.858-7.511,7.309-10.94,10.94a6.356,6.356,0,0,0-1.6,3.662c-.218,3.323-.073,6.667-.073,10.395,4.192,0,8.215.055,12.236-.056.561-.012,1.146-.774,1.641-1.265,3.662-3.65,7.3-7.312,11.2-11.223,2.484,6.844,1.963,13.108-1.613,19a21.308,21.308,0,0,1-23.9,9.729,3.192,3.192,0,0,0-3.545.956q-16.512,16.612-33.118,33.14c-3.736,3.741-9.278,3.916-12.783.37a9,9,0,0,1,.325-12.836q16.465-16.49,32.965-32.95a2.672,2.672,0,0,0,.938-3.075c-2.425-8.258-.738-15.7,5.364-21.771,6.27-6.228,13.893-7.6,22.9-5.019" transform="translate(639.037 6411.465)" fill="#fff"/>
    <path id="Path_3484" data-name="Path 3484" d="M308.441,253.009c-6.1-6.393-12.53-13.007-18.81-19.763a10.5,10.5,0,0,1,.238-13.941c3.846-4.088,10.246-4.951,14.453-1.282,4.9,4.281,9.339,9.092,13.9,13.749,1.121,1.145.434,11.679-.763,12.833-2.691,2.6-5.462,5.1-9.014,8.4" transform="translate(638.862 6411.22)" fill="#fff"/>
    <path id="Path_3485" data-name="Path 3485" d="M351.607,270.12c-3.277,3.09-6.452,6.078-9.827,9.26-4.946-3.717-9.911-7.264-14.617-11.125-1.077-.882-1.292-2.836-1.856-4.312-1.44-3.764-2.207-7.878-6.078-10.511,1.991-1.788,3.738-3.353,5.676-5.089,2.949,3.819,7.824,4.243,12.235,5.613a8.021,8.021,0,0,1,4.355,3.022c3.263,4.4,6.681,8.7,10.113,13.142" transform="translate(654.444 6427.05)" fill="#fff"/>
  </g>
</svg>
