<svg id="Group_2864" data-name="Group 2864" xmlns="http://www.w3.org/2000/svg" width="43.457" height="43.457" viewBox="0 0 43.457 43.457">
  <path id="Path_247" data-name="Path 247" d="M804.823,2473.445a21.728,21.728,0,1,0,21.729,21.729,21.753,21.753,0,0,0-21.729-21.729Zm0,40.607a18.878,18.878,0,1,1,18.879-18.878,18.9,18.9,0,0,1-18.879,18.878Zm0,0" transform="translate(-783.095 -2473.445)" fill="#706f6f"/>
  <path id="Path_248" data-name="Path 248" d="M811.632,2491.923H794.363a1.425,1.425,0,0,0,0,2.85h17.269a1.424,1.424,0,1,0,0-2.849Zm0,0" transform="translate(-781.269 -2471.619)" fill="#706f6f"/>
</svg>
