<svg id="Group_2985" data-name="Group 2985" xmlns="http://www.w3.org/2000/svg" xmlns:xlink="http://www.w3.org/1999/xlink" width="18" height="17.999" viewBox="0 0 18 17.999">
  <defs>
    <clipPath id="clip-path">
      <rect id="Rectangle_1132" data-name="Rectangle 1132" width="18" height="17.999" fill="#fff"/>
    </clipPath>
  </defs>
  <g id="Group_2983" data-name="Group 2983" clip-path="url(#clip-path)">
    <path id="Path_4237" data-name="Path 4237" d="M8.994,0A9,9,0,1,1,0,9,9,9,0,0,1,8.994,0M1.3,8.994a7.714,7.714,0,1,0,7.8-7.7,7.727,7.727,0,0,0-7.8,7.7" transform="translate(0 0)" fill="#fff"/>
    <path id="Path_4238" data-name="Path 4238" d="M40.255,41.086c-.753-.751-1.49-1.482-2.22-2.219a.641.641,0,1,1,.922-.889q1.049,1.053,2.1,2.1c.028.028.058.055.1.1.053-.051.106-.1.156-.149q1.059-1.058,2.117-2.117a.624.624,0,0,1,.7-.158.612.612,0,0,1,.418.562.7.7,0,0,1-.245.569q-1.048,1.026-2.09,2.058c-.043.042-.092.078-.156.132.064.067.112.12.162.169Q43.3,42.3,44.37,43.361a.617.617,0,0,1,.174.679.632.632,0,0,1-.543.446.657.657,0,0,1-.575-.223q-1.041-1.047-2.087-2.09a1.52,1.52,0,0,0-.228-.216.785.785,0,0,1-.1.2q-1.039,1.064-2.085,2.12a.636.636,0,0,1-.677.189.605.605,0,0,1-.439-.5.65.65,0,0,1,.212-.6q1.039-1.049,2.074-2.1c.051-.052.1-.105.164-.174" transform="translate(-32.162 -32.089)" fill="#fff"/>
  </g>
</svg>
