<svg id="Group_2987" data-name="Group 2987" xmlns="http://www.w3.org/2000/svg" xmlns:xlink="http://www.w3.org/1999/xlink" width="10" height="10" viewBox="0 0 10 10">
  <defs>
    <clipPath id="clip-path">
      <rect id="Rectangle_1133" data-name="Rectangle 1133" width="10" height="10" fill="#fff"/>
    </clipPath>
  </defs>
  <g id="Group_2987-2" data-name="Group 2987" clip-path="url(#clip-path)">
    <path id="Path_4239" data-name="Path 4239" d="M4.688,0h.625c.17.022.342.039.511.068A4.905,4.905,0,0,1,8.3,1.254,4.918,4.918,0,0,1,9.923,4.139c.032.182.051.366.077.549v.625a.553.553,0,0,0-.016.075,4.772,4.772,0,0,1-.692,2.17,4.942,4.942,0,0,1-3.43,2.365c-.181.034-.366.051-.548.077H4.688c-.122-.015-.244-.028-.366-.046A5.02,5.02,0,0,1,.078,5.871C.044,5.686.026,5.5,0,5.312V4.688c.022-.167.038-.335.066-.5A4.92,4.92,0,0,1,1.44,1.5,4.9,4.9,0,0,1,4.139.077C4.321.045,4.5.025,4.688,0M5,5.415H5c.729,0,1.458,0,2.187,0A.414.414,0,0,0,7.3,4.6a.711.711,0,0,0-.184-.016H2.881c-.039,0-.078,0-.117,0a.415.415,0,0,0,.069.826c.723,0,1.445,0,2.168,0" fill="#fff"/>
  </g>
</svg>
