<svg xmlns="http://www.w3.org/2000/svg" xmlns:xlink="http://www.w3.org/1999/xlink" width="33.16" height="32.703" viewBox="0 0 33.16 32.703">
  <defs>
    <clipPath id="clip-path">
      <rect id="Rectangle_1070" data-name="Rectangle 1070" width="21.521" height="25.229" fill="#fff"/>
    </clipPath>
  </defs>
  <g id="Group_2880" data-name="Group 2880" transform="translate(19.327) rotate(50)">
    <g id="Group_2879" data-name="Group 2879" clip-path="url(#clip-path)">
      <path id="Path_4191" data-name="Path 4191" d="M6.674,25.229c0-.386.006-.772-.007-1.157a.292.292,0,0,1,.179-.305c.8-.435,1.592-.882,2.391-1.316a.3.3,0,0,0,.192-.32q-.18-4-.347-7.993a.926.926,0,0,0-.021-.107L.009,17.757c0-.574.02-1.114-.008-1.652a.683.683,0,0,1,.337-.662c1.159-.833,2.3-1.69,3.454-2.531A.437.437,0,0,0,4,12.507c-.013-.582,0-1.165,0-1.748v-.277H5.659v1.045l1.872-1.378c.4-.292.787-.592,1.19-.874a.451.451,0,0,0,.216-.421c0-1.6,0-3.2.019-4.8a6.719,6.719,0,0,1,.588-2.845,3.73,3.73,0,0,1,.669-.956.739.739,0,0,1,1.1-.011,3.182,3.182,0,0,1,.874,1.486,7.57,7.57,0,0,1,.38,2.346c.017,1.6.019,3.2.017,4.8a.416.416,0,0,0,.194.383c.948.69,1.89,1.39,2.834,2.086.065.048.133.093.246.17,0-.3.011-.556,0-.814-.01-.187.056-.24.239-.235.466.012.932,0,1.431,0v.289c0,.583.008,1.166,0,1.748a.439.439,0,0,0,.21.406c1.192.871,2.377,1.752,3.571,2.622a.454.454,0,0,1,.217.424c-.014.508,0,1.018,0,1.526v.272l-9.061-3.731c-.021.379-.043.726-.058,1.073-.1,2.312-.193,4.624-.3,6.936a.417.417,0,0,0,.254.455c.774.412,1.535.849,2.307,1.266a.326.326,0,0,1,.2.344c-.013.377-.006.755-.007,1.132H14.7a.517.517,0,0,0-.108-.046c-1.031-.182-2.06-.372-3.094-.537a3.917,3.917,0,0,0-1.064-.059c-.706.084-1.4.226-2.1.352-.5.09-1.007.193-1.51.29Z" transform="translate(0 0)" fill="#fff"/>
    </g>
  </g>
</svg>
