<svg id="Group_2957" data-name="Group 2957" xmlns="http://www.w3.org/2000/svg" xmlns:xlink="http://www.w3.org/1999/xlink" width="19.441" height="19.447" viewBox="0 0 19.441 19.447">
  <defs>
    <clipPath id="clip-path">
      <rect id="Rectangle_1071" data-name="Rectangle 1071" width="19.441" height="19.447" fill="#434343"/>
    </clipPath>
  </defs>
  <g id="Group_2881" data-name="Group 2881" clip-path="url(#clip-path)">
    <path id="Path_4192" data-name="Path 4192" d="M5.456,13.027a1.748,1.748,0,0,0-.2.152Q2.768,15.658.285,18.14a.752.752,0,0,0-.254.787.713.713,0,0,0,1.14.358,2.349,2.349,0,0,0,.179-.171q2.466-2.466,4.931-4.933a1.5,1.5,0,0,0,.137-.188,7.859,7.859,0,0,0,6.654,1.7,7.709,7.709,0,0,0,4.78-3.01A7.914,7.914,0,0,0,6.6,1.733a7.68,7.68,0,0,0-2.95,5.393,7.856,7.856,0,0,0,1.81,5.9M18,7.919a6.481,6.481,0,1,1-6.494-6.473A6.492,6.492,0,0,1,18,7.919" transform="translate(0 0)" fill="#434343"/>
  </g>
</svg>
