<svg xmlns="http://www.w3.org/2000/svg" width="20.071" height="9.336" viewBox="0 0 20.071 9.336">
  <g id="Group_815" data-name="Group 815" transform="translate(20.071) rotate(90)" style="isolation: isolate">
    <path id="Path_183" data-name="Path 183" d="M1182.228,1730.727l0,.3a.74.74,0,0,0,.207.554.278.278,0,0,0,.181.074.3.3,0,0,0,.221-.111l8.557-9.408a.869.869,0,0,0,0-1.035h0l-8.557-9.408a.271.271,0,0,0-.4-.037.744.744,0,0,0-.207.555l0,.269.773.92,7.478,8.219-7.478,8.22Zm.773-.892" transform="translate(-1182.224 -1711.581)" fill="#434343"/>
  </g>
</svg>
