<svg xmlns="http://www.w3.org/2000/svg" xmlns:xlink="http://www.w3.org/1999/xlink" width="23.01" height="18.43" viewBox="0 0 23.01 18.43">
  <defs>
    <linearGradient id="linear-gradient" x1="-111.678" y1="-10.697" x2="-110.738" y2="-10.697" gradientUnits="objectBoundingBox">
      <stop offset="0" stop-color="#fcea10"/>
      <stop offset="1" stop-color="#f9b233"/>
    </linearGradient>
  </defs>
  <path id="Path_460" data-name="Path 460" d="M785.656,1489.343l0,0,0,0a1.165,1.165,0,0,0-1.122-.633l-20.644,1.322a1.181,1.181,0,0,0-.431,2.245l8.585,4.072a.039.039,0,0,1,.021.042l-1.651,9.357a1.166,1.166,0,0,0,.673,1.279,1.1,1.1,0,0,0,.137.053,1.165,1.165,0,0,0,1.27-.383l13.033-16.065A1.166,1.166,0,0,0,785.656,1489.343Zm-21.734,1.851c.007-.03.016-.031.037-.032l19.314-1.236-10.594,5.469c-.047-.032-8.734-4.158-8.734-4.158C763.925,1491.229,763.916,1491.224,763.921,1491.194Zm7.681,14.775c-.013.017-.019.025-.047.011s-.027-.022-.022-.042c0,0,1.667-9.472,1.668-9.529l10.594-5.469Z" transform="translate(-762.778 -1488.699)" fill="url(#linear-gradient)"/>
</svg>
