<svg xmlns="http://www.w3.org/2000/svg" xmlns:xlink="http://www.w3.org/1999/xlink" width="41.281" height="41.42" viewBox="0 0 41.281 41.42">
  <defs>
    <clipPath id="clip-path">
      <rect id="Rectangle_477" data-name="Rectangle 477" width="41.281" height="41.42" fill="#004c7a"/>
    </clipPath>
  </defs>
  <g id="Group_1318" data-name="Group 1318" clip-path="url(#clip-path)">
    <path id="Path_3551" data-name="Path 3551" d="M198.056,121.772a.76.76,0,0,1,.539.223l7.264,7.264a.762.762,0,0,1-1.078,1.078l-6.725-6.725-6.725,6.725a.762.762,0,0,1-1.078-1.078L197.517,122a.76.76,0,0,1,.539-.223" transform="translate(-177.415 -113.689)" fill="#004c7a"/>
    <path id="Path_3552" data-name="Path 3552" d="M300.227,121.772a.762.762,0,0,1,.762.762v17.45a.762.762,0,1,1-1.525,0v-17.45a.762.762,0,0,1,.762-.762" transform="translate(-279.587 -113.689)" fill="#004c7a"/>
    <path id="Path_3553" data-name="Path 3553" d="M166.5,357.464H149.784a2.508,2.508,0,0,1-2.505-2.505v-4.942a.762.762,0,1,1,1.525,0v4.942a.981.981,0,0,0,.98.98H166.5a.981.981,0,0,0,.98-.98v-4.942a.762.762,0,1,1,1.525,0v4.942a2.508,2.508,0,0,1-2.505,2.505" transform="translate(-137.503 -326.071)" fill="#004c7a"/>
    <path id="Path_3554" data-name="Path 3554" d="M20.641,41.42A20.675,20.675,0,0,1,0,20.71,20.641,20.641,0,1,1,35.237,35.354a20.471,20.471,0,0,1-14.6,6.067m0-39.827A19.117,19.117,0,1,0,39.688,20.71,19.1,19.1,0,0,0,20.641,1.593" transform="translate(0 0)" fill="#004c7a"/>
  </g>
</svg>
