<svg id="Group_149" data-name="Group 149" xmlns="http://www.w3.org/2000/svg" width="152" height="152" viewBox="8 8 146 146">
  <g id="Group_148" data-name="Group 148" transform="translate(0 0)">
    <g id="Group_147" data-name="Group 147" transform="translate(0)">
      <g id="Group_144" data-name="Group 144">
        <circle id="Ellipse_6" data-name="Ellipse 6" cx="65.147" cy="65.147" r="65.147" transform="translate(0 128.072) rotate(-79.404)" fill="#163857"/>
      </g>
      <g id="Group_146" data-name="Group 146" transform="translate(76.017 10.868)">
        <g id="Group_145" data-name="Group 145">
          <path id="Path_266" data-name="Path 266" d="M592.5,4742.247V4872.54a65.146,65.146,0,0,0,0-130.293Z" transform="translate(-592.497 -4742.247)" fill="#102638"/>
        </g>
      </g>
    </g>
  </g>
  <path id="Path_267" data-name="Path 267" d="M628.029,4757.736a24.494,24.494,0,1,0-34.641,34.639l1.755,1.84a50.263,50.263,0,0,1,4.307,5.45q2.545,3.6,5.091,7.9a46.051,46.051,0,0,1,4.3,10.1,39.01,39.01,0,0,1,1.755,11.328,36.577,36.577,0,0,1,1.93-11.417,58.035,58.035,0,0,1,4.171-9.922,70.634,70.634,0,0,1,5.27-8.077q3.035-4.045,4.171-5.227c.761-.789,1.375-1.451,1.845-1.975a24.481,24.481,0,0,0,.043-34.639Zm-10.4,24.189a9.577,9.577,0,0,1-7.025,2.9,9.224,9.224,0,0,1-6.8-2.9,9.751,9.751,0,0,1,0-13.787,9.224,9.224,0,0,1,6.8-2.9,9.577,9.577,0,0,1,7.025,2.9,9.65,9.65,0,0,1,0,13.787Z" transform="translate(-534.672 -4707.37)" fill="#51d5d5"/>
</svg>
