<svg id="Group_154" data-name="Group 154" xmlns="http://www.w3.org/2000/svg" width="184.582" height="184.582" viewBox="0 0 184.582 184.582">
  <g id="Group_153" data-name="Group 153" transform="translate(0 0)">
    <path id="Path_3091" data-name="Path 3091" d="M65.26,0A65.26,65.26,0,1,1,0,65.26,65.26,65.26,0,0,1,65.26,0Z" transform="translate(0 92.291) rotate(-45)" fill="#163757"/>
    <g id="Group_152" data-name="Group 152" transform="translate(92.29 27.031)">
      <g id="Group_151" data-name="Group 151">
        <path id="Path_268" data-name="Path 268" d="M1089.7,4742.792v130.52a65.26,65.26,0,0,0,0-130.52Z" transform="translate(-1089.698 -4742.792)" fill="#102538"/>
      </g>
    </g>
  </g>
  <path id="Path_269" data-name="Path 269" d="M1125.686,4748.8H1089.7a6.226,6.226,0,0,0-6.224,6.232v73.083a6.221,6.221,0,0,0,6.224,6.226h35.989a6.226,6.226,0,0,0,6.224-6.226V4755.03A6.23,6.23,0,0,0,1125.686,4748.8Zm-26.874,3.786h17.767c.448,0,.81.669.81,1.5s-.362,1.5-.81,1.5h-17.767c-.455,0-.813-.672-.813-1.5S1098.357,4752.583,1098.812,4752.583Zm8.881,75.6a3.974,3.974,0,1,1,3.968-3.978A3.979,3.979,0,0,1,1107.694,4828.188Zm19.552-13.62h-39.109v-55.254h39.109Z" transform="translate(-1015.4 -4698.406)" fill="#52d5d5"/>
</svg>
