<svg id="Group_136" data-name="Group 136" xmlns="http://www.w3.org/2000/svg" width="144" height="144" viewBox="4 4 136 136">
  <g id="Group_134" data-name="Group 134" transform="translate(0 0)">
    <path id="Path_3089" data-name="Path 3089" d="M65.278,0A65.278,65.278,0,1,1,0,65.278,65.278,65.278,0,0,1,65.278,0Z" transform="translate(0 129.67) rotate(-83.321)" fill="#163957"/>
    <g id="Group_133" data-name="Group 133" transform="translate(72.428 7.151)">
      <g id="Group_132" data-name="Group 132">
        <path id="Path_258" data-name="Path 258" d="M445.428,4742v130.556a65.278,65.278,0,0,0,0-130.556Z" transform="translate(-445.428 -4741.995)" fill="#102738"/>
      </g>
    </g>
  </g>
  <g id="Group_135" data-name="Group 135" transform="translate(38.122 27.302)">
    <path id="Path_259" data-name="Path 259" d="M447.108,4765.256s15.3.119,15.359.06a30.485,30.485,0,0,1,3.234-6.58c3.6-5.58,3.284-10.259-4.864-7.619-1.354-5.126-10.1-5.285-11.231-.29-9.075-1.816-8.678,2.768-5.265,8.445A31.1,31.1,0,0,1,447.108,4765.256Z" transform="translate(-420.725 -4747.174)" fill="#50d5d5" fill-rule="evenodd"/>
    <path id="Path_260" data-name="Path 260" d="M502.228,4792.47h-3.475c1.9-28.372-19.959-38.453-19.959-38.453H462.213c-16.8,9.717-20.437,23.615-18.951,38.453H439.6a3,3,0,0,0-2.993,2.989v2.766a3,3,0,0,0,2.993,2.993h62.624a3,3,0,0,0,2.992-2.993v-2.766A3,3,0,0,0,502.228,4792.47Z" transform="translate(-436.612 -4727.39)" fill="#50d5d5" fill-rule="evenodd"/>
    <path id="Rectangle_100" data-name="Rectangle 100" d="M.37,0H20.205a.372.372,0,0,1,.372.372v4.26A.372.372,0,0,1,20.2,5H.372A.372.372,0,0,1,0,4.632V.37A.37.37,0,0,1,.37,0Z" transform="translate(23.993 19.447)" fill="#50d5d5"/>
  </g>
</svg>
