<svg id="Group_159" data-name="Group 159" xmlns="http://www.w3.org/2000/svg" width="184.582" height="184.582" viewBox="0 0 184.582 184.582">
  <g id="Group_158" data-name="Group 158" transform="translate(0 0)">
    <path id="Path_3090" data-name="Path 3090" d="M65.26,0A65.26,65.26,0,1,1,0,65.26,65.26,65.26,0,0,1,65.26,0Z" transform="translate(0 92.291) rotate(-45)" fill="#163857"/>
    <g id="Group_157" data-name="Group 157" transform="translate(92.292 27.029)">
      <g id="Group_156" data-name="Group 156">
        <path id="Path_270" data-name="Path 270" d="M920.323,4741.577V4872.1a65.26,65.26,0,0,0,0-130.521Z" transform="translate(-920.323 -4741.577)" fill="#102638"/>
      </g>
    </g>
  </g>
  <path id="Path_271" data-name="Path 271" d="M925.4,4755.5a2.437,2.437,0,0,1,.871-3.337,2.808,2.808,0,0,1,1.408-.342,2.608,2.608,0,0,1,1.934,1.227l3.24,5.534-4.3,2.451Zm41.665,0a2.371,2.371,0,0,0-.961-3.337,2.616,2.616,0,0,0-3.424.875l-3.155,5.532,4.3,2.45Zm-18.417-6.233a2.494,2.494,0,0,0-4.987,0v6.408h5v-6.408Zm32.021,17.371a2.63,2.63,0,0,0-1.937-1.234,2.711,2.711,0,0,0-1.4.259l-5.532,3.24,2.45,4.3,5.618-3.238a2.447,2.447,0,0,0,.805-3.328Zm-5,52.1h-1.937a1.772,1.772,0,0,0,.261-.961v-2.638a2.167,2.167,0,0,0-2.194-2.193h-51.04a2.167,2.167,0,0,0-2.194,2.193v2.638a1.772,1.772,0,0,0,.26.961h-1.937a2.163,2.163,0,0,0-2.19,2.191v2.637a2.164,2.164,0,0,0,2.19,2.193h58.867a2.167,2.167,0,0,0,2.194-2.193v-2.637a2.373,2.373,0,0,0-2.28-2.191Zm-6.407-8.158H923.209v-24.3a23.077,23.077,0,0,1,46.154,0v24.3Zm-26.4-20.167a11.933,11.933,0,0,0-11.924-11.925v23.952a11.975,11.975,0,0,0,11.924-12.027Zm18.591-11.939a11.926,11.926,0,0,0,0,23.851ZM920.673,4769l-5.617-3.242a1.72,1.72,0,0,0-.875-.256,2.54,2.54,0,0,0-2.451,1.232,2.365,2.365,0,0,0,.875,3.338l5.617,3.24Zm0,0" transform="translate(-853.901 -4699.406)" fill="#51d5d5"/>
</svg>
