<svg xmlns="http://www.w3.org/2000/svg" width="184.582" height="184.582" viewBox="0 0 184.582 184.582">
  <g id="Group_789" data-name="Group 789" transform="translate(-21.008 -251.703)">
    <g id="Group_797" data-name="Group 797" transform="translate(21.008 251.703)">
      <circle id="Ellipse_106" data-name="Ellipse 106" cx="65.26" cy="65.26" r="65.26" transform="translate(0 92.291) rotate(-45)" fill="#163857"/>
      <g id="Group_796" data-name="Group 796" transform="translate(92.291 27.028)">
        <g id="Group_795" data-name="Group 795">
          <path id="Path_3086" data-name="Path 3086" d="M40.433,257.392V387.915a65.261,65.261,0,0,0,0-130.523Z" transform="translate(-40.433 -257.392)" fill="#102538"/>
        </g>
      </g>
    </g>
    <g id="Group_798" data-name="Group 798" transform="translate(73.2 304.597)">
      <path id="Path_3087" data-name="Path 3087" d="M72.406,262.836a40.415,40.415,0,1,0,40.413,40.413A40.411,40.411,0,0,0,72.406,262.836Zm3.05,74.588v-2.718a3.05,3.05,0,0,0-6.1,0v2.718A34.371,34.371,0,0,1,38.226,306.2h2.632a3.05,3.05,0,1,0,0-6.1H38.241a34.371,34.371,0,0,1,31.115-31.025v2.528a3.05,3.05,0,0,0,6.1,0v-2.528A34.371,34.371,0,0,1,106.571,300.1h-2.618a3.05,3.05,0,1,0,0,6.1h2.632A34.371,34.371,0,0,1,75.456,337.424Z" transform="translate(-31.993 -262.836)" fill="#52d5d5"/>
      <path id="Path_3088" data-name="Path 3088" d="M74.019,267.756,55.955,286.689l-.1,0a3.345,3.345,0,0,0-.66.066L40.067,275.324a2.289,2.289,0,0,0-2.751,3.658L52.434,290.4a3.429,3.429,0,0,0,6.846-.285,2.43,2.43,0,0,0-.014-.266L77.33,270.916a2.288,2.288,0,0,0-3.312-3.159Z" transform="translate(-15.437 -247.032)" fill="#52d5d5"/>
    </g>
  </g>
</svg>
