<svg xmlns="http://www.w3.org/2000/svg" width="52.244" height="52.244" viewBox="0 0 52.244 52.244">
  <g id="Group_136" data-name="Group 136" transform="translate(0.001)">
    <g id="Group_134" data-name="Group 134">
      <circle id="Ellipse_4" data-name="Ellipse 4" cx="23.544" cy="23.544" r="23.544" transform="translate(0 46.768) rotate(-83.321)" fill="#ea5d50"/>
      <g id="Group_133" data-name="Group 133" transform="translate(26.122 2.579)">
        <g id="Group_132" data-name="Group 132">
          <path id="Path_258" data-name="Path 258" d="M445.428,4742v47.087a23.543,23.543,0,1,0,0-47.087Z" transform="translate(-445.428 -4741.995)" fill="#e8453e"/>
        </g>
      </g>
    </g>
    <g id="Group_135" data-name="Group 135" transform="translate(13.749 9.847)">
      <path id="Path_259" data-name="Path 259" d="M443.911,4753.694s5.517.043,5.54.021a10.994,10.994,0,0,1,1.166-2.373c1.3-2.013,1.185-3.7-1.754-2.748-.488-1.849-3.643-1.906-4.05-.1-3.273-.655-3.13,1-1.9,3.046A11.21,11.21,0,0,1,443.911,4753.694Z" transform="translate(-434.395 -4747.173)" fill="#fff" fill-rule="evenodd"/>
      <path id="Path_260" data-name="Path 260" d="M460.278,4767.885h-1.253c.684-10.233-7.2-13.869-7.2-13.869h-5.98c-6.059,3.5-7.371,8.517-6.835,13.869h-1.319a1.082,1.082,0,0,0-1.079,1.078v1a1.084,1.084,0,0,0,1.079,1.08h22.586a1.083,1.083,0,0,0,1.079-1.08v-1A1.081,1.081,0,0,0,460.278,4767.885Z" transform="translate(-436.612 -4744.413)" fill="#fff" fill-rule="evenodd"/>
      <path id="Rectangle_100" data-name="Rectangle 100" d="M.37,0H7.05a.372.372,0,0,1,.372.372V1.432a.372.372,0,0,1-.372.372H.372A.372.372,0,0,1,0,1.433V.37A.37.37,0,0,1,.37,0Z" transform="translate(8.653 7.014)" fill="#fff"/>
    </g>
  </g>
</svg>
