<svg xmlns="http://www.w3.org/2000/svg" width="66.592" height="66.592" viewBox="0 0 66.592 66.592">
  <g id="Group_159" data-name="Group 159" transform="translate(0.001)">
    <g id="Group_158" data-name="Group 158">
      <circle id="Ellipse_8" data-name="Ellipse 8" cx="23.544" cy="23.544" r="23.544" transform="translate(0 33.296) rotate(-45)" fill="#7c5ea4"/>
      <g id="Group_157" data-name="Group 157" transform="translate(33.296 9.751)">
        <g id="Group_156" data-name="Group 156">
          <path id="Path_270" data-name="Path 270" d="M920.323,4741.576v47.088a23.544,23.544,0,0,0,0-47.088Z" transform="translate(-920.323 -4741.576)" fill="#70559e"/>
        </g>
      </g>
    </g>
    <path id="Path_271" data-name="Path 271" d="M916.434,4749.947a.88.88,0,0,1,.314-1.2,1.016,1.016,0,0,1,.508-.123.941.941,0,0,1,.7.443l1.169,2-1.552.885Zm15.031,0a.856.856,0,0,0-.347-1.2.945.945,0,0,0-1.235.316l-1.138,2,1.551.884Zm-6.644-2.249a.9.9,0,0,0-1.8,0v2.312h1.8V4747.7Zm11.552,6.267a.949.949,0,0,0-.7-.445.981.981,0,0,0-.507.093l-2,1.169.884,1.552,2.027-1.169a.882.882,0,0,0,.29-1.2Zm-1.8,18.8h-.7a.639.639,0,0,0,.094-.347v-.952a.782.782,0,0,0-.792-.792H914.758a.782.782,0,0,0-.792.792v.952a.639.639,0,0,0,.094.347h-.7a.78.78,0,0,0-.79.791v.951a.781.781,0,0,0,.79.792H934.6a.782.782,0,0,0,.792-.792v-.951a.856.856,0,0,0-.823-.791Zm-2.312-2.943H915.643v-8.765a8.326,8.326,0,0,1,16.651,0v8.765Zm-9.525-7.276a4.3,4.3,0,0,0-4.3-4.3v8.641a4.32,4.32,0,0,0,4.3-4.339Zm6.707-4.307a4.3,4.3,0,0,0,0,8.6Zm-14.711-3.417-2.027-1.169a.625.625,0,0,0-.316-.092.917.917,0,0,0-.884.445.853.853,0,0,0,.316,1.2l2.027,1.169Zm0,0" transform="translate(-890.638 -4729.711)" fill="#fff"/>
  </g>
</svg>
