<svg xmlns="http://www.w3.org/2000/svg" width="49.264" height="49.263" viewBox="0 0 49.264 49.263">
  <g id="Group_142" data-name="Group 142" transform="translate(0)">
    <g id="Group_140" data-name="Group 140">
      <circle id="Ellipse_5" data-name="Ellipse 5" cx="23.544" cy="23.544" r="23.544" transform="translate(0 2.229) rotate(-2.713)" fill="#9bd7f6"/>
      <g id="Group_139" data-name="Group 139" transform="translate(24.632 1.088)">
        <g id="Group_138" data-name="Group 138">
          <path id="Path_261" data-name="Path 261" d="M712.643,4742.248v47.087a23.543,23.543,0,1,0,0-47.087Z" transform="translate(-712.643 -4742.248)" fill="#89d0e9"/>
        </g>
      </g>
    </g>
    <g id="Group_141" data-name="Group 141" transform="translate(11.5 10.628)">
      <path id="Path_262" data-name="Path 262" d="M727.886,4768.572a13.146,13.146,0,1,0-5.106,5.089c1.349.536,2.737,1.09,2.737,1.09a2.479,2.479,0,0,0,3.3-3Zm-1.456,3.877s-2.347-.931-3.9-1.557a10.642,10.642,0,1,1,2.664-2.687Zm0,0" transform="translate(-703.286 -4749.045)" fill="#fff"/>
      <path id="Path_263" data-name="Path 263" d="M709.213,4756.953h10.264a.825.825,0,1,0,0-1.651H709.213a.825.825,0,0,0,0,1.651Zm0,0" transform="translate(-701.227 -4746.522)" fill="#fff"/>
      <path id="Path_264" data-name="Path 264" d="M719.5,4757.812H709.235a.826.826,0,1,0,0,1.652H719.5a.826.826,0,0,0,0-1.652Zm0,0" transform="translate(-701.22 -4745.508)" fill="#fff"/>
      <path id="Path_265" data-name="Path 265" d="M719.5,4760.326H709.235a.826.826,0,1,0,0,1.651H719.5a.826.826,0,0,0,0-1.651Zm0,0" transform="translate(-701.22 -4744.495)" fill="#fff"/>
    </g>
  </g>
</svg>
