<svg xmlns="http://www.w3.org/2000/svg" width="54.943" height="54.942" viewBox="0 0 54.943 54.942">
  <g id="Group_149" data-name="Group 149" transform="translate(0)">
    <g id="Group_148" data-name="Group 148">
      <g id="Group_147" data-name="Group 147">
        <g id="Group_144" data-name="Group 144">
          <circle id="Ellipse_6" data-name="Ellipse 6" cx="23.544" cy="23.544" r="23.544" transform="translate(0 46.284) rotate(-79.404)" fill="#447582"/>
        </g>
        <g id="Group_146" data-name="Group 146" transform="translate(27.472 3.927)">
          <g id="Group_145" data-name="Group 145">
            <path id="Path_266" data-name="Path 266" d="M592.5,4742.248v47.087a23.543,23.543,0,0,0,0-47.087Z" transform="translate(-592.497 -4742.248)" fill="#3c646e"/>
          </g>
        </g>
      </g>
    </g>
    <path id="Path_267" data-name="Path 267" d="M601.309,4753.163a8.852,8.852,0,1,0-12.519,12.519l.634.665a18.1,18.1,0,0,1,1.557,1.97q.92,1.3,1.84,2.855a16.64,16.64,0,0,1,1.555,3.649,14.1,14.1,0,0,1,.634,4.094,13.217,13.217,0,0,1,.7-4.126,20.964,20.964,0,0,1,1.507-3.586,25.537,25.537,0,0,1,1.9-2.919q1.1-1.462,1.507-1.889c.275-.285.5-.524.667-.714a8.848,8.848,0,0,0,.015-12.519Zm-3.76,8.742a3.461,3.461,0,0,1-2.539,1.047,3.333,3.333,0,0,1-2.459-1.047,3.524,3.524,0,0,1,0-4.982,3.333,3.333,0,0,1,2.459-1.047,3.461,3.461,0,0,1,2.539,1.047,3.487,3.487,0,0,1,0,4.982Z" transform="translate(-567.57 -4734.961)" fill="#fff"/>
  </g>
</svg>
